<svg width="299" height="225" viewBox="0 0 299 225" fill="none" xmlns="http://www.w3.org/2000/svg">
<path fill-rule="evenodd" clip-rule="evenodd" d="M32.533 200.455C55.1 225.029 142.368 210.913 199.83 210.913C224.619 210.913 307.809 223.342 273.456 137.984C160.82 -141.89 -38.9709 122.591 32.533 200.455Z" fill="#5287DE"/>
<path fill-rule="evenodd" clip-rule="evenodd" d="M132.382 202.431C132.492 202.347 132.607 202.256 132.654 202.126C132.808 201.71 132.207 201.433 131.763 201.443C131.12 201.458 130.295 201.891 130.492 202.504C130.606 202.859 131.043 203.023 131.409 202.958C131.776 202.892 132.087 202.658 132.382 202.431ZM134.294 195.134C134.78 195.287 135.26 195.475 135.683 195.758C136.477 196.29 137.017 197.116 137.536 197.92C137.908 198.496 138.285 199.083 138.47 199.743C138.671 200.457 138.635 201.22 138.501 201.951C138.082 204.225 136.678 206.301 134.724 207.537C132.77 208.773 130.294 209.151 128.06 208.555C127.625 208.439 127.187 208.281 126.853 207.979C126.572 207.726 126.382 207.389 126.209 207.053C125.299 205.288 124.686 203.327 124.756 201.343C124.826 199.358 125.641 197.35 127.186 196.103C129.124 194.537 131.917 194.388 134.294 195.134" fill="white"/>
<path fill-rule="evenodd" clip-rule="evenodd" d="M236.885 87.1733C235.82 87.1599 234.821 88.0534 234.716 89.1137C234.672 89.547 234.856 90.0857 235.287 90.1454C235.61 90.1901 235.894 89.9404 236.111 89.697C236.571 89.1819 236.965 88.609 237.283 87.9962C237.389 87.7905 237.483 87.5267 237.343 87.3422C237.241 87.2078 237.054 87.1755 236.885 87.1733ZM236.424 82.4187C237.936 82.9466 239.307 83.8751 240.359 85.084C241.263 86.1229 241.951 87.4716 241.761 88.8357C241.691 89.3365 241.507 89.8141 241.296 90.2736C240.498 92.0144 239.126 93.6825 237.242 94.0197C236.253 94.1965 235.234 93.9846 234.284 93.6611C233.184 93.2868 232.136 92.762 231.177 92.1058C230.669 91.7577 230.164 91.3446 229.941 90.7701C229.788 90.3741 229.783 89.9381 229.789 89.5134C229.803 88.463 229.873 87.395 230.239 86.4104C230.702 85.1647 231.608 84.1365 232.569 83.2188C232.955 82.8497 233.365 82.4861 233.862 82.2883C234.674 81.9646 235.599 82.1306 236.424 82.4187Z" fill="white"/>
<path fill-rule="evenodd" clip-rule="evenodd" d="M236.887 6.63942C243.145 13.0957 248.084 20.816 251.317 29.1943C251.54 29.7697 251.755 30.4089 251.543 30.9882C249.912 35.4482 246.764 39.1665 243.677 42.782C241.705 45.0922 239.732 47.4025 237.76 49.7127C235.877 51.9182 233.994 54.1241 232.047 56.274C222.136 67.221 210.426 76.7931 196.863 82.6828C196.351 82.9051 195.802 83.1267 195.25 83.0379C194.699 82.949 194.183 82.4157 194.327 81.8782C196.004 75.6313 197.691 69.1002 196.346 62.7742C196.021 61.2483 195.659 59.3271 196.925 58.4089C207.168 50.9751 214.543 40.3494 221.611 29.8681C223.388 27.2326 225.161 24.5898 226.734 21.8282C229.526 16.9251 231.676 11.6594 233.114 6.20658C233.311 5.45831 234.259 5.12137 235.01 5.31746C235.761 5.51355 236.347 6.08299 236.887 6.63942" fill="white"/>
<path fill-rule="evenodd" clip-rule="evenodd" d="M41.7212 31.7213C42.7387 40.9229 45.5705 49.9201 50.0064 58.045C52.7529 63.0756 56.0936 67.7531 59.4254 72.4164C61.7439 75.6614 64.2232 79.0432 67.8408 80.7203C68.8026 81.1662 68.6684 82.5535 68.4103 83.5821C67.2944 88.0282 66.7738 92.6234 66.8666 97.2066C66.8754 97.6396 66.8868 98.0884 66.7167 98.4867C66.1394 99.8387 64.1614 99.6134 62.7997 99.0605C54.3744 95.6389 47.9059 88.7582 41.8633 81.9608C34.0178 73.1353 26.2892 63.9222 21.6545 53.0598C21.3395 52.3214 21.0337 51.5442 21.0864 50.743C21.1401 49.9267 21.5594 49.1847 21.9847 48.4859C26.1861 41.5825 32.0311 35.6877 38.8975 31.4289C39.3812 31.1289 39.8976 30.8283 40.4663 30.8086C41.035 30.7889 41.6587 31.1555 41.7212 31.7213Z" fill="white"/>
<path fill-rule="evenodd" clip-rule="evenodd" d="M235.658 193.142C236.385 191.912 237.284 190.556 238.694 190.323C239.249 190.231 239.542 189.627 239.732 189.096C242.061 182.559 242.286 175.289 240.364 168.62C239.816 166.716 240.491 164.698 241.159 162.833C242.884 158.021 244.608 153.208 246.333 148.395C245.345 146.686 242.74 146.736 241.405 145.281C239.687 143.409 240.983 140.431 242.328 138.276C250.189 125.682 258.049 113.089 265.91 100.496C266.873 98.9531 268.986 98.4695 270.758 98.8806C272.529 99.2917 274.041 100.407 275.498 101.495C281.231 105.779 286.964 110.063 292.697 114.346C295.774 116.645 299.17 119.582 298.993 123.42C298.895 125.543 297.681 127.431 296.505 129.203C291.962 136.052 287.419 142.9 282.875 149.749C280.315 153.608 281.022 158.675 280.249 163.241C279.026 170.455 274.081 176.38 269.502 182.086C264.923 187.791 260.341 194.162 260.084 201.475C259.777 210.19 255.638 218.702 248.973 224.324C250.907 219.632 238.694 221.504 224.724 215.943C227.023 207.807 231.363 200.424 235.658 193.142Z" fill="white"/>
<path fill-rule="evenodd" clip-rule="evenodd" d="M82.2576 213.546C81.3865 212.833 81.1087 211.63 80.9549 210.512C79.1758 197.571 86.8164 184.798 85.4554 171.806C84.754 165.111 81.6789 158.864 77.8092 153.369C75.1369 149.575 74.9871 144.492 75.9841 139.953C76.9811 135.413 78.9922 131.168 80.3487 126.723C86.3809 106.958 79.0408 85.8436 71.7839 66.4994C86.2446 59.504 103.119 60.8589 119.139 61.8066C135.159 62.7544 152.388 62.8215 165.74 53.8715C167.57 73.233 163.535 92.616 159.522 111.642C179.882 109.658 200.241 107.673 220.6 105.689C221.184 105.632 221.823 105.588 222.308 105.92C222.955 106.362 223.054 107.265 223.091 108.051C224.043 128.186 224.62 148.339 224.822 168.496C224.827 169.002 224.81 169.566 224.455 169.924C224.152 170.231 223.688 170.295 223.26 170.343C194.736 173.523 166.212 176.703 137.688 179.883C135.221 180.158 131.708 179.515 131.852 177.024C132.496 165.918 132.12 154.751 130.731 143.714C123.15 143.427 115.518 144.584 108.358 147.104C106.734 147.676 104.781 149.213 105.657 150.703C111.453 160.555 104.259 175.365 112.131 183.636C114.837 186.48 114.65 190.954 114.114 194.853C112.964 203.21 111.011 211.455 108.29 219.436C109.605 210.25 83.0613 218.472 82.2576 213.546Z" fill="white"/>
<path fill-rule="evenodd" clip-rule="evenodd" d="M0.670845 5.01333C0.695213 5.20949 0.589116 5.41546 0.415294 5.50944C0.276863 5.37089 0.138431 5.23234 0 5.09379C0.207526 5.00299 0.442884 4.97709 0.665178 5.02059L0.670845 5.01333Z" fill="#00160A"/>
<path fill-rule="evenodd" clip-rule="evenodd" d="M133.796 195.134C134.282 195.287 134.761 195.475 135.184 195.758C135.979 196.29 136.519 197.116 137.038 197.92C137.41 198.496 137.786 199.083 137.972 199.743C138.173 200.457 138.137 201.22 138.003 201.951C137.583 204.225 136.18 206.301 134.226 207.537C132.272 208.773 129.796 209.151 127.562 208.555C127.127 208.439 126.689 208.281 126.354 207.979C126.073 207.726 125.884 207.389 125.711 207.053C124.801 205.288 124.187 203.327 124.257 201.343C124.327 199.358 125.143 197.35 126.688 196.103C128.626 194.537 131.419 194.388 133.796 195.134M131.072 206.95C132.287 206.765 133.356 205.971 134.055 204.959C134.753 203.948 135.111 202.734 135.283 201.517C135.382 200.822 135.391 200.025 134.9 199.523C134.606 199.223 134.187 199.088 133.785 198.968C132.274 198.516 130.549 198.131 129.196 198.941C128.211 199.531 127.661 200.624 127.163 201.659C126.58 202.871 126.724 204.401 127.524 205.483C128.323 206.565 129.742 207.152 131.072 206.95V206.95Z" fill="#00160A"/>
<path fill-rule="evenodd" clip-rule="evenodd" d="M189.3 140.537C189.321 140.28 189.352 140.003 189.522 139.808C189.689 139.618 189.952 139.55 190.198 139.493C196.546 138.014 203.102 137.436 209.611 137.78C210.44 137.824 211.506 138.104 211.561 138.933C211.875 143.683 212.19 148.434 212.504 153.184C212.52 153.425 212.528 153.691 212.374 153.876C212.249 154.028 212.047 154.086 211.857 154.136C205.087 155.901 197.952 156.249 191.043 155.151C190.865 155.122 190.678 155.089 190.54 154.973C190.373 154.834 190.314 154.606 190.266 154.393C189.248 149.859 188.921 145.17 189.3 140.537ZM190.796 148.418C190.921 150.212 191.297 151.988 191.91 153.678C192.522 153.766 193.127 153.893 193.736 153.997C198.987 154.886 204.357 153.991 209.607 153.098C209.979 153.034 210.388 152.95 210.617 152.65C210.852 152.344 210.821 151.917 210.779 151.533C210.598 149.896 210.417 148.259 210.236 146.622C210.222 146.49 210.203 146.349 210.114 146.25C210.005 146.131 209.828 146.112 209.667 146.101C205.937 145.856 202.194 146.134 198.465 146.412C196.405 146.566 194.344 146.72 192.283 146.874C191.799 146.91 191.248 146.982 190.97 147.38C190.765 147.673 190.772 148.061 190.796 148.418ZM190.854 141.571C190.528 142.617 190.47 143.746 190.686 144.82C190.725 145.013 190.779 145.217 190.926 145.349C191.143 145.543 191.474 145.511 191.763 145.469C195.274 144.954 198.823 144.699 202.371 144.705C202.872 144.706 203.025 144.032 203.02 143.531C203.012 142.797 203.004 142.063 202.996 141.33C202.991 140.905 202.97 140.437 202.679 140.128C202.33 139.756 201.747 139.768 201.238 139.806C200.063 139.896 198.887 139.986 197.711 140.076C197.149 140.119 195.658 140.501 194.972 140.546C193.779 140.737 192.585 140.927 191.392 141.118C191.264 141.138 191.13 141.161 191.032 141.245C190.937 141.327 190.892 141.451 190.854 141.571ZM206.595 144.763C207.528 144.775 208.462 144.682 209.374 144.485C209.592 144.438 209.82 144.379 209.975 144.22C210.202 143.986 210.2 143.619 210.183 143.293C210.135 142.347 210.087 141.402 210.039 140.456C210.021 140.118 209.984 139.738 209.72 139.527C209.488 139.341 209.161 139.352 208.864 139.372C207.827 139.443 206.789 139.514 205.752 139.584C205.588 139.595 205.415 139.609 205.278 139.7C205.026 139.866 204.989 140.214 204.982 140.515C204.959 141.518 205 142.522 205.104 143.52C205.135 143.808 205.177 144.113 205.355 144.341C205.633 144.698 206.143 144.757 206.595 144.763Z" fill="#5287DE"/>
<path fill-rule="evenodd" clip-rule="evenodd" d="M205.546 119.778C206.932 119.177 208.634 119.379 209.842 120.286C211.051 121.193 211.72 122.771 211.532 124.271C212.382 123.811 213.459 123.358 214.252 123.91C215.148 124.533 214.943 125.875 214.809 126.958C214.574 128.85 214.878 130.806 215.678 132.537C216.008 133.251 216.292 134.336 215.559 134.624C215.435 134.673 215.301 134.684 215.168 134.695C206.579 135.387 197.99 136.08 189.401 136.772C189.166 136.791 188.902 136.802 188.724 136.646C188.542 136.488 188.519 136.218 188.509 135.977C188.427 133.956 188.344 131.935 188.262 129.914C188.24 129.372 188.229 128.787 188.536 128.339C189.042 127.598 190.103 127.6 190.989 127.458C191.876 127.316 192.907 126.568 192.566 125.738C192.185 124.812 193.482 124.135 194.471 123.985C195.46 123.834 196.772 123.244 196.473 122.289C196.145 121.246 197.581 120.598 198.664 120.454C199.429 120.352 200.228 120.254 200.954 120.517C201.679 120.779 202.292 121.526 202.129 122.28C201.942 123.144 202.993 123.948 203.821 123.643C204.65 123.338 204.986 122.205 204.567 121.428C204.224 120.793 204.884 120.064 205.546 119.778ZM209.981 133.096C209.66 132.5 209.657 131.791 209.654 131.114C209.641 127.935 209.445 124.757 209.07 121.601C209.051 121.441 209.021 121.263 208.89 121.17C208.778 121.089 208.627 121.099 208.489 121.112C207.818 121.175 207.023 121.323 206.758 121.943C206.645 122.207 206.658 122.506 206.674 122.793C206.844 125.979 207.014 129.165 207.184 132.351C207.2 132.648 207.239 132.988 207.486 133.154C207.62 133.244 207.789 133.261 207.951 133.27C208.631 133.307 209.317 133.249 209.981 133.096ZM198.429 128.198C198.345 128.728 198.228 129.255 198.197 129.792C198.145 130.688 198.334 131.579 198.522 132.457C198.642 133.02 199.369 133.297 199.902 133.08C200.435 132.863 200.757 132.294 200.846 131.725C200.935 131.156 200.831 130.578 200.74 130.009C200.384 127.775 200.23 125.51 200.28 123.249C200.293 122.676 199.735 122.16 199.166 122.216C198.596 122.273 198.151 122.889 198.276 123.447C198.623 125.003 198.675 126.623 198.429 128.198ZM204.077 125.146C203.743 124.708 202.975 124.941 202.714 125.428C202.452 125.914 202.532 126.503 202.597 127.052C202.766 128.483 202.782 129.933 202.645 131.368C202.605 131.791 202.56 132.253 202.793 132.608C203.153 133.154 203.94 133.149 204.591 133.083C204.795 133.063 205.029 133.023 205.131 132.846C205.203 132.722 205.186 132.569 205.167 132.427C204.867 130.201 204.567 127.974 204.267 125.748C204.239 125.537 204.206 125.316 204.077 125.146ZM211.517 126.103C211.265 126.447 211.212 126.895 211.19 127.322C211.115 128.783 211.308 130.244 211.501 131.694C211.577 132.266 211.839 133 212.414 132.961C212.996 132.922 213.149 132.142 213.135 131.558C213.099 130.01 213.063 128.463 213.027 126.916C213.018 126.509 212.975 126.038 212.638 125.811C212.284 125.573 211.769 125.759 211.517 126.103ZM193.912 125.738C193.912 125.738 194.168 127.757 194.257 128.786C194.369 130.078 194.512 131.367 194.685 132.651C194.71 132.838 194.744 133.04 194.882 133.168C195.12 133.391 196.04 133.243 196.21 132.964C196.38 132.685 196.37 132.337 196.355 132.011C196.309 130.98 196.262 129.949 196.215 128.917C196.165 127.812 195.902 125.428 195.902 125.428M190.574 133.049C190.647 133.281 190.734 133.523 190.921 133.678C191.286 133.98 191.878 133.793 192.165 133.416C192.453 133.04 192.518 132.544 192.573 132.074C192.64 131.496 192.705 130.896 192.519 130.346C192.332 129.796 191.814 129.311 191.236 129.362C190.703 129.409 190.291 129.896 190.167 130.416C190.042 130.936 190.147 131.481 190.276 132C190.364 132.353 190.463 132.703 190.574 133.049Z" fill="#E7EAEE"/>
<path fill-rule="evenodd" clip-rule="evenodd" d="M225.392 50.3614C224.698 51.4027 223.946 52.4575 222.873 53.1004C221.8 53.7434 220.319 53.8686 219.355 53.0716C218.291 52.1922 218.225 50.6068 218.309 49.229C218.342 48.6985 218.384 48.1638 218.536 47.6545C218.8 46.7712 219.375 46.0174 219.976 45.3185C220.705 44.4705 221.512 43.6526 222.523 43.1754C223.534 42.6982 224.79 42.6144 225.737 43.2081C226.871 43.9188 227.291 45.4305 227.076 46.7517C226.861 48.0728 226.133 49.2474 225.392 50.3614M223.189 51.4631C224.064 50.5314 224.814 49.4829 225.413 48.3543C225.807 47.6116 226.143 46.8043 226.127 45.9634C226.111 45.1225 225.668 44.2436 224.887 43.9316C223.871 43.5252 222.754 44.1753 221.905 44.8661C221.3 45.3578 220.714 45.8973 220.326 46.5736C220.08 47.0013 219.921 47.4718 219.763 47.9389C219.464 48.8226 219.161 49.7433 219.275 50.6692C219.389 51.5951 220.051 52.5246 220.978 52.6206C221.837 52.7094 222.598 52.0926 223.189 51.4631Z" fill="#5287DE"/>
<path fill-rule="evenodd" clip-rule="evenodd" d="M46.7588 62.1309C47.8452 63.2317 48.7419 64.5192 49.3979 65.92C50.0572 67.3278 49.3925 69.1371 48.0987 69.9983C46.8049 70.8596 45.0556 70.8483 43.637 70.2136C42.2184 69.5789 41.1035 68.3943 40.2825 67.0743C39.6635 66.0793 39.1835 64.964 39.132 63.7931C39.0806 62.6222 39.5115 61.3899 40.4375 60.6718C41.374 59.9455 42.6909 59.8418 43.8235 60.1903C44.9561 60.5388 45.9263 61.2873 46.7588 62.1309M42.5202 61.4614C41.5802 61.3645 40.7452 62.2276 40.584 63.159C40.4227 64.0905 40.7777 65.0355 41.2369 65.8617C42.2329 67.6531 44.0098 69.2443 46.0565 69.1452C47.1086 69.0943 48.2618 68.3652 48.2431 67.3117C48.235 66.8561 48.0104 66.4357 47.786 66.0392C47.1899 64.9857 46.546 63.9431 45.6861 63.0914C44.8262 62.2397 43.7239 61.5854 42.5202 61.4614Z" fill="#5287DE"/>
<path fill-rule="evenodd" clip-rule="evenodd" d="M128.898 200.712C129.653 200.138 130.591 199.767 131.537 199.828C132.483 199.889 133.419 200.432 133.815 201.293C134.239 202.218 133.975 203.367 133.312 204.139C132.65 204.911 131.652 205.337 130.644 205.478C129.957 205.574 129.137 205.488 128.761 204.904C128.579 204.623 128.538 204.276 128.502 203.943C128.436 203.345 128.37 202.747 128.305 202.149C128.277 201.896 128.25 201.633 128.332 201.392C128.428 201.108 128.66 200.893 128.898 200.712M131.884 202.432C131.993 202.347 132.108 202.256 132.156 202.126C132.309 201.71 131.708 201.433 131.265 201.443C130.622 201.458 129.797 201.891 129.994 202.504C130.108 202.859 130.544 203.023 130.911 202.958C131.278 202.892 131.588 202.658 131.884 202.432H131.884Z" fill="#00160A"/>
<path fill-rule="evenodd" clip-rule="evenodd" d="M238.697 1.51558C245.56 8.6224 250.976 17.1205 254.522 26.343C254.766 26.9764 255.002 27.68 254.769 28.3176C252.981 33.2271 249.529 37.32 246.144 41.2997L239.655 48.9288L239.654 48.9295L239.654 48.93L239.654 48.9303L239.654 48.9304L239.654 48.9305L239.653 48.9306L239.653 48.9307L239.653 48.9308C237.589 51.3578 235.524 53.7853 233.39 56.1512C222.522 68.2011 209.68 78.7378 194.807 85.2208C194.246 85.4655 193.644 85.7095 193.04 85.6117C192.435 85.5139 191.869 84.9269 192.027 84.3352C193.866 77.4588 195.716 70.2697 194.241 63.3063C193.885 61.6266 193.488 59.5119 194.876 58.5012C206.108 50.3183 214.196 38.6221 221.947 27.0847C223.895 24.1836 225.839 21.2746 227.564 18.2347C230.626 12.8376 232.984 7.04135 234.56 1.03912C234.776 0.215459 235.816 -0.155435 236.639 0.0604169C237.463 0.276269 238.106 0.903078 238.697 1.51558ZM233.895 10.341C233.197 10.0525 232.554 10.8329 232.199 11.4989C231.814 12.2199 231.43 12.9421 231.045 13.6648C223.935 27.0255 216.716 40.591 205.88 51.1144C204.857 52.1087 203.713 53.3098 203.901 54.7247C204.506 59.26 202.086 64.0494 198.076 66.2512C196.256 67.2509 196.278 69.8303 196.544 71.8904C196.651 72.7152 196.962 73.749 197.791 73.8188C200.221 74.0237 202.552 75.2202 204.136 77.0749C204.636 77.66 205.583 77.2943 206.234 76.8847C222.626 66.5759 235.221 51.3489 247.518 36.388C247.942 35.8719 248.394 35.2216 248.172 34.5911C246.312 29.2881 246.61 23.2616 248.985 18.1685C247.584 15.3786 245.913 12.7239 244.005 10.2531C240.829 11.6323 237.094 11.6648 233.895 10.341ZM195.015 82.4975C195.661 82.8362 196.444 82.5142 197.091 82.1764C198.791 81.2885 200.429 80.2809 201.987 79.1633C202.399 78.868 202.522 78.2781 202.376 77.7925C202.231 77.3069 201.866 76.9154 201.463 76.6089C200.202 75.6519 198.44 75.4002 196.963 75.966C196.69 76.0706 196.418 76.207 196.23 76.4308C196.01 76.6928 195.929 77.0417 195.859 77.3768C195.502 79.07 195.22 80.7792 195.015 82.4975ZM241.047 6.80992C239.933 4.63133 238.216 2.76565 236.137 1.4764C235.413 2.11414 235.273 3.08323 235.129 4.07118C235.031 4.74909 234.931 5.4359 234.641 6.03063C234.547 6.22432 234.431 6.4096 234.316 6.59447C234.097 6.94641 233.878 7.29687 233.808 7.70105C233.7 8.31754 234.222 9.09093 234.813 8.88695C235.294 8.7211 235.798 8.82763 236.306 8.93507C236.575 8.99178 236.844 9.04874 237.112 9.06604C238.673 9.16685 239.968 7.94337 241.047 6.80992ZM249.875 19.8676C248.681 22.2418 248.87 25.0459 249.087 27.6943L249.398 31.4925C249.432 31.9102 249.66 32.4739 250.062 32.3582C250.312 31.6586 250.788 31.0814 251.265 30.5027C251.683 29.9965 252.101 29.4891 252.37 28.8976C253.281 26.8944 252.27 24.5857 251.274 22.6235L249.875 19.8676ZM196.465 62.0237C196.515 62.7666 197.286 63.3228 198.03 63.3019C198.774 63.281 199.444 62.7993 199.879 62.1949C200.314 61.5905 200.552 60.8706 200.784 60.1632L201.551 57.8271C201.765 57.1759 201.779 56.1801 201.098 56.1035C200.852 56.0759 200.617 56.206 200.416 56.3494C199.652 56.8922 199.097 57.6718 198.556 58.4364L197.082 60.5191C196.762 60.9709 196.428 61.4715 196.465 62.0237ZM49.763 53.7919C44.5854 44.3083 41.28 33.8065 40.0924 23.0662C40.0194 22.4057 39.2914 21.9779 38.6276 22.0009C37.9638 22.0239 37.361 22.3747 36.7965 22.7249C28.7818 27.6959 21.9594 34.5764 17.0554 42.6342C16.559 43.4499 16.0696 44.316 16.007 45.2688C15.9454 46.204 16.3023 47.1111 16.6701 47.973C22.0798 60.6518 31.1009 71.4056 40.2582 81.7069C47.3113 89.6411 54.8615 97.6724 64.6957 101.666C66.2852 102.312 68.5939 102.574 69.2677 100.996C69.4638 100.537 69.4533 100.021 69.4431 99.5211L69.4427 99.5022C69.3344 94.1526 69.9421 88.789 71.2445 83.5993C71.5458 82.3987 71.7025 80.7794 70.5798 80.259C66.3573 78.3014 63.4633 74.3542 60.7572 70.5665C56.8682 65.1234 52.9689 59.6637 49.763 53.7919ZM58.9035 95.2462C58.3217 95.4015 57.7409 95.0344 57.2552 94.6785C48.3047 88.1182 41.3686 79.2391 34.5536 70.4795L22.5271 55.021C24.5571 53.7276 24.8149 50.9174 24.8591 48.5102C24.9166 45.381 24.9586 42.1594 23.8287 39.241C23.5775 38.5923 23.9045 37.8735 24.2546 37.2725C25.7563 34.695 27.8388 32.4583 30.3023 30.777C30.5408 30.6142 30.7933 30.4525 31.0792 30.4121C31.8336 30.3055 32.4124 31.0395 32.8155 31.6863C34.4078 34.2406 36.5962 37.1293 39.5979 36.919C40.7409 36.8389 41.3748 38.1857 41.7082 39.2823C45.8547 52.9193 53.6399 65.2193 62.7697 76.1625C63.9561 77.5846 64.2537 79.5039 64.5487 81.4058C64.8776 83.5266 65.2032 85.6257 66.7541 86.9893C68.0782 88.1536 67.8325 90.2445 67.4752 91.9715C67.402 92.3249 67.315 92.7034 67.0466 92.9446C66.8473 93.1238 66.578 93.1984 66.3191 93.2674L58.9035 95.2462ZM37.6846 33.7601C36.0427 32.6124 34.6244 31.1458 33.5321 29.4662C33.2959 29.1029 33.0664 28.6957 33.1079 28.2642C33.153 27.7951 33.5058 27.4197 33.8568 27.1054C34.7237 26.3293 35.7035 25.6795 36.7556 25.183C37.1409 25.0011 37.6384 24.8534 37.9585 25.1347C38.147 25.3003 38.2065 25.5648 38.2556 25.8109L39.7722 33.3984C39.8618 33.847 39.3915 34.251 38.9344 34.264C38.4773 34.277 38.0594 34.0221 37.6846 33.7601ZM22.6771 48.4356C22.645 49.8627 22.536 51.4644 21.4668 52.4098C21.2431 52.4364 21.0945 52.1908 21.0068 51.9832C20.2365 50.159 19.4555 48.2908 19.3342 46.3142C19.2129 44.3377 19.875 42.1973 21.4896 41.0516C21.7081 40.8965 22.0285 40.7685 22.2214 40.9545C22.2989 41.0292 22.332 41.1377 22.3603 41.2416C22.799 42.8549 22.7645 44.554 22.7269 46.2255L22.6771 48.4356ZM66.247 95.9074C66.5063 96.1196 66.5339 96.4993 66.541 96.8344L66.618 100.503C65.1138 99.6685 63.6727 98.7204 62.311 97.6692C62.0529 97.4699 61.7692 97.1472 61.9273 96.8619C62.0057 96.7204 62.1687 96.6522 62.3204 96.5962C63.2938 96.2372 64.3002 95.9678 65.3227 95.7927C65.6388 95.7386 65.9989 95.7042 66.247 95.9074ZM66.3336 81.4575C66.3198 81.2919 66.3198 81.1113 66.4183 80.9774C66.678 80.6242 67.2418 80.944 67.4801 81.3121C68.054 82.1987 68.1807 83.3598 67.8115 84.3494C66.9687 83.6267 66.4257 82.5642 66.3336 81.4575ZM255.166 55.8886C256.451 54.2704 258.792 54.0375 260.857 54.088C261.34 54.0998 261.836 54.1231 262.275 54.3233C263.497 54.8803 263.756 56.4773 263.798 57.8197C263.835 59.0412 263.828 60.2787 263.532 61.4641C263.235 62.6496 262.621 63.7917 261.639 64.5192C261.198 64.8462 260.687 65.0845 260.145 65.1752C259.308 65.3154 258.452 65.1003 257.657 64.8043C256.597 64.4097 255.592 63.8679 254.679 63.1993C254.234 62.8727 253.774 62.445 253.759 61.8925C253.726 60.6185 253.869 59.34 254.182 58.1046C254.382 57.315 254.66 56.5265 255.166 55.8886ZM258.497 63.9483C260.146 64.422 261.901 63.1456 262.525 61.547C263.15 59.9484 262.919 58.1529 262.576 56.4713C262.444 55.8256 261.754 55.4649 261.118 55.2923C260.134 55.0251 259.088 54.9896 258.088 55.1897C257.591 55.2891 257.083 55.4593 256.734 55.8272C256.544 56.0276 256.413 56.2751 256.284 56.5193L255.318 58.346C255.148 58.6673 254.977 58.9915 254.877 59.3409C254.578 60.3861 254.973 61.5468 255.702 62.3525C256.432 63.1582 257.453 63.6484 258.497 63.9483ZM236.424 82.4188C237.936 82.9467 239.307 83.8752 240.359 85.0841C241.263 86.123 241.951 87.4718 241.761 88.8359C241.691 89.3366 241.507 89.8142 241.296 90.2738C240.498 92.0145 239.126 93.6827 237.242 94.0198C236.253 94.1966 235.234 93.9847 234.283 93.6612C233.184 93.287 232.136 92.7621 231.177 92.1059C230.669 91.7579 230.164 91.3448 229.941 90.7702C229.788 90.3743 229.783 89.9382 229.789 89.5135C229.803 88.4632 229.873 87.3951 230.239 86.4105C230.702 85.1648 231.608 84.1366 232.569 83.2189C232.955 82.8498 233.365 82.4862 233.862 82.2884C234.674 81.9647 235.599 82.1308 236.424 82.4188ZM237.97 91.574C239.063 90.4921 239.699 88.9238 239.526 87.3954C239.353 85.867 238.319 84.4328 236.872 83.9109C236.271 83.6941 235.605 83.6336 234.989 83.804C234.657 83.896 234.345 84.0525 234.054 84.2376C232.81 85.0297 231.936 86.3809 231.723 87.8415C231.511 89.302 231.964 90.8462 232.932 91.9601C233.552 92.6734 234.564 92.9792 235.501 92.8607C236.439 92.7422 237.299 92.2388 237.97 91.574ZM99.9416 73.4089C99.8908 72.6883 98.9276 72.4994 98.2058 72.5207C94.416 72.6321 90.6313 72.9161 86.8673 73.3717C86.2489 73.4465 86.199 74.4436 86.6951 74.8203C87.1913 75.197 87.8825 75.127 88.4991 75.0392L99.9416 73.4089ZM87.8266 78.2819C87.8591 77.9108 88.3254 77.7765 88.6954 77.7346L111.017 75.2058C111.421 75.16 111.851 75.1186 112.214 75.3005C112.578 75.4824 112.812 75.98 112.575 76.3099C112.4 76.5531 112.064 76.6025 111.766 76.6314L88.9351 78.8478C88.4603 78.8939 87.7848 78.7573 87.8266 78.2819ZM137.868 82.0433C136.62 82.3179 135.338 81.867 134.14 81.4192C130.267 79.9713 126.41 78.4834 122.568 76.9558C121.017 76.3392 119.315 77.2626 117.92 78.1793C113.883 80.8321 109.997 83.7136 106.285 86.8054C105.332 87.5996 103.865 87.0424 102.904 86.258C102.7 86.0922 102.5 85.9153 102.299 85.7378L102.299 85.7377L102.299 85.7376C101.55 85.0756 100.792 84.4051 99.8234 84.2676C98.3344 84.0563 97.0245 85.1854 95.9456 86.2336L88.988 92.9932C88.0523 93.9023 87.0674 95.3581 87.9001 96.3624C88.4496 97.0251 89.4584 96.9913 90.3133 96.8922C94.7769 96.3746 99.2185 95.6488 103.659 94.9232C110.997 93.7241 118.331 92.5257 125.753 92.2688C127.398 92.2119 129.044 92.2014 130.689 92.1909C131.72 92.1844 132.751 92.1778 133.781 92.1599C138.428 92.0788 143.072 91.7655 147.688 91.2216C147.911 91.1953 148.165 91.1493 148.281 90.9566C148.369 90.811 148.347 90.6274 148.322 90.4593L146.367 77.1501C146.267 76.4738 146.094 75.6922 145.476 75.4C144.852 75.1049 144.117 75.4854 143.604 75.9483C142.803 76.6728 142.185 77.6348 141.576 78.5839C140.577 80.1408 139.6 81.6627 137.868 82.0433ZM106.115 89.3258C110.291 85.8909 114.645 82.6729 119.154 79.6893C120.08 79.0766 121.206 78.4493 122.241 78.8516L133.175 83.1021C135 83.8115 136.996 84.5301 138.869 83.9614C141.047 83.3002 142.349 81.1324 143.446 79.1374C143.659 78.7494 144.279 78.794 144.587 79.1128C144.894 79.4316 144.972 79.9008 145.035 80.3391L145.835 85.8894C145.958 86.7416 146.079 87.626 145.833 88.4511C145.587 89.2762 144.863 90.0256 144.003 90.009C129.928 89.7371 115.826 90.8981 101.985 93.4683C101.556 93.5479 101.127 93.6289 100.698 93.71C97.3917 94.3345 94.0731 94.9613 90.7128 94.9725C92.3353 92.6733 94.3914 90.7206 96.4331 88.7843C97.5542 87.7211 98.9558 86.5744 100.461 86.9222C101.274 87.11 101.897 87.6941 102.517 88.2754L102.517 88.2755C102.716 88.4618 102.915 88.6479 103.119 88.8204C103.961 89.5313 105.264 90.0257 106.115 89.3258ZM286.684 128.043C286.31 128.182 285.894 128.087 285.514 127.968C282.94 127.158 280.85 125.348 278.795 123.569C278.517 123.328 278.24 123.088 277.962 122.851C274.558 119.946 270.864 117.382 266.953 115.209C266.555 114.988 266.138 114.755 265.894 114.371C265.65 113.986 265.657 113.401 266.033 113.144C267.787 111.946 268.924 109.89 269.008 107.768C269.03 107.202 269.669 106.825 270.233 106.87C270.797 106.915 271.289 107.254 271.751 107.582L289.623 120.273C289.97 120.52 290.345 120.807 290.43 121.225C290.5 121.566 290.357 121.912 290.213 122.229C289.442 123.93 288.556 125.579 287.562 127.161C287.337 127.519 287.08 127.895 286.684 128.043ZM268.804 112.988C268.594 113.358 268.412 113.895 268.752 114.151L283.336 125.136C284.135 125.738 285.376 126.301 286.005 125.524C286.727 124.631 287.402 123.7 288.024 122.735C288.195 122.471 288.369 122.17 288.307 121.861C288.251 121.58 288.015 121.376 287.792 121.195C282.44 116.854 276.773 112.901 270.851 109.377L268.804 112.988ZM261.546 119.705C261.781 119.301 262.067 118.859 262.524 118.76C262.874 118.684 263.229 118.834 263.551 118.99C265.307 119.843 266.916 121 268.284 122.393C268.613 122.728 268.654 123.267 268.507 123.714C268.361 124.16 268.059 124.536 267.763 124.901C267.287 125.487 266.78 126.097 266.078 126.375C265.32 126.676 264.439 126.531 263.721 126.144C263.004 125.758 262.428 125.153 261.921 124.515C261.258 123.684 260.666 122.686 260.769 121.627C260.836 120.934 261.195 120.307 261.546 119.705ZM264.617 124.363C265.722 124.793 266.428 124.452 266.457 123.728C266.475 123.271 266.077 122.918 265.714 122.639L264.617 121.795C264.255 121.516 263.855 121.224 263.397 121.227C262.94 121.23 262.474 121.702 262.662 122.119C262.633 122.321 263.513 123.934 264.617 124.363ZM260.258 133.283C260.527 133.43 260.813 133.575 261.12 133.581C261.427 133.588 261.76 133.414 261.835 133.116C262.012 132.417 262.474 131.837 262.927 131.27C262.976 131.208 263.026 131.146 263.074 131.085C263.57 130.457 264.048 129.746 264.061 128.947C264.075 128.147 263.413 127.295 262.621 127.404C261.997 127.49 261.416 127.081 260.963 126.643C260.891 126.573 260.82 126.502 260.748 126.43L260.747 126.43C260.368 126.051 259.982 125.667 259.479 125.503C258.88 125.307 258.064 125.618 258.017 126.246C257.921 127.512 256.87 128.465 255.895 129.276C255.603 129.519 255.866 129.985 256.139 130.249C257.369 131.438 258.758 132.461 260.258 133.283ZM260.453 130.871L258.532 129.571C258.044 129.241 258.083 128.431 258.518 128.033C258.954 127.636 259.63 127.605 260.186 127.804C260.741 128.004 261.202 128.394 261.651 128.777C261.948 129.031 261.989 129.492 261.853 129.858C261.717 130.224 261.441 130.517 261.171 130.8C261.079 130.897 260.976 130.999 260.843 131.016C260.702 131.034 260.57 130.951 260.453 130.871ZM275.681 130.957L276.62 128.961C276.908 128.349 277.186 127.593 276.798 127.04C276.663 126.848 276.464 126.713 276.27 126.582L272.853 124.278C272.484 124.03 272.085 123.771 271.64 123.778C271.114 123.787 270.673 124.163 270.299 124.534C269.739 125.089 269.215 125.681 268.732 126.305C268.365 126.78 268.063 127.562 268.565 127.891L273.794 131.323C274.207 131.594 274.73 131.872 275.164 131.637C275.419 131.498 275.557 131.219 275.681 130.957ZM274.522 129.544C274.302 129.594 274.073 129.538 273.857 129.473C272.537 129.075 271.329 128.313 270.401 127.293C270.092 126.954 270.267 126.355 270.659 126.117C271.051 125.879 271.561 125.934 271.984 126.112C272.257 126.226 272.507 126.386 272.757 126.546C272.894 126.634 273.031 126.722 273.172 126.802C273.324 126.888 273.482 126.968 273.64 127.047L273.641 127.047C274.09 127.273 274.54 127.498 274.847 127.888C275.261 128.415 275.176 129.393 274.522 129.544ZM276.288 131.774C276.891 131.63 277.075 131.016 277.266 130.377C277.424 129.849 277.587 129.304 277.996 128.995C278.699 128.464 279.694 128.908 280.452 129.359L282.861 130.792C283.244 131.021 283.638 131.257 283.913 131.609C284.188 131.961 284.323 132.459 284.131 132.862C284.002 133.132 283.759 133.31 283.514 133.49C283.314 133.637 283.112 133.785 282.971 133.985C282.79 134.242 282.722 134.564 282.656 134.881C282.572 135.28 282.49 135.673 282.186 135.924C281.631 136.381 280.807 136.015 280.194 135.64L276.8 133.566C276.458 133.356 276.097 133.127 275.929 132.762C275.761 132.398 275.898 131.866 276.288 131.774ZM280.737 133.833C281.223 133.668 281.613 133.307 281.988 132.956C282.26 132.702 281.897 132.283 281.572 132.1L279.493 130.929C279.276 130.807 278.975 130.696 278.806 130.879C278.265 131.471 278.186 132.435 278.625 133.107C279.063 133.778 279.978 134.093 280.737 133.833ZM256.882 133.761C256.417 133.63 255.943 133.496 255.563 133.237C254.972 132.834 254.15 132.932 253.531 133.288C252.911 133.644 252.449 134.214 252.002 134.772C251.754 135.081 251.499 135.404 251.404 135.789C251.31 136.174 251.423 136.641 251.769 136.834L255.395 138.856C255.669 139.009 255.976 139.167 256.283 139.099C256.588 139.031 256.799 138.76 256.983 138.506L257.916 137.222C258.435 136.507 258.978 135.597 258.598 134.799C258.294 134.159 257.598 133.963 256.882 133.761ZM255.735 137.087C255.545 137.137 255.35 137.046 255.175 136.957L252.705 135.699C253.18 135.027 254.083 134.769 254.902 134.85C255.721 134.932 256.481 135.296 257.222 135.654L256.087 136.834C255.985 136.939 255.876 137.05 255.735 137.087ZM238.623 86.8029C239.005 87.3863 238.885 88.1658 238.632 88.8156C238.297 89.672 237.732 90.4655 236.934 90.921C236.136 91.3766 235.087 91.4432 234.309 90.9536C233.531 90.464 233.141 89.3751 233.558 88.5556C233.654 88.3662 233.786 88.1984 233.917 88.0305L233.917 88.0304C234.043 87.8697 234.169 87.7089 234.264 87.5291C234.327 87.4109 234.376 87.2855 234.424 87.1602L234.424 87.1599C234.495 86.979 234.565 86.7986 234.676 86.6408C235.072 86.08 235.852 85.9697 236.538 85.9794C237.317 85.9904 238.196 86.1515 238.623 86.8029ZM236.885 87.1734C235.82 87.16 234.821 88.0535 234.715 89.1138C234.672 89.5471 234.856 90.0858 235.287 90.1455C235.61 90.1902 235.894 89.9405 236.111 89.6971C236.57 89.182 236.965 88.6091 237.283 87.9962C237.389 87.7906 237.483 87.5267 237.343 87.3423C237.241 87.2079 237.053 87.1755 236.885 87.1734ZM262.358 59.3847C262.276 58.4091 261.624 57.4495 260.676 57.2051C259.472 56.8946 258.305 57.7425 257.35 58.538C257.067 58.7733 256.772 59.0263 256.652 59.3741C256.449 59.9644 256.814 60.5863 257.174 61.0963C257.587 61.6802 258.027 62.2672 258.628 62.6531C259.23 63.0391 260.032 63.1889 260.663 62.8535C260.985 62.6826 261.235 62.4034 261.452 62.111C262.037 61.3256 262.44 60.3603 262.358 59.3847ZM259.688 61.8859C259.281 61.9471 258.857 61.7822 258.557 61.4994C258.107 61.0755 257.929 60.3941 258.086 59.7961C258.251 59.1666 258.78 58.6466 259.411 58.4913C260.043 58.336 260.752 58.5519 261.191 59.0331C261.174 59.1643 261.16 59.2963 261.147 59.4283C261.1 59.8769 261.054 60.3264 260.898 60.7478C260.697 61.2933 260.263 61.7997 259.688 61.8859ZM227.284 214.067C229.504 206.212 233.695 199.083 237.842 192.053C238.543 190.864 239.412 189.556 240.773 189.33C241.309 189.242 241.592 188.658 241.775 188.146C244.024 181.834 244.241 174.814 242.385 168.375C241.856 166.537 242.508 164.589 243.153 162.788L248.148 148.848C247.629 147.949 246.647 147.554 245.651 147.154C244.819 146.82 243.977 146.481 243.39 145.841C241.732 144.033 242.983 141.159 244.282 139.078L267.051 102.6C267.981 101.111 270.021 100.644 271.731 101.041C273.441 101.438 274.902 102.514 276.308 103.565L292.914 115.973C295.885 118.193 299.164 121.028 298.993 124.734C298.899 126.784 297.726 128.607 296.591 130.317L283.431 150.156C281.729 152.721 281.523 155.84 281.315 158.973V158.973C281.222 160.39 281.128 161.81 280.895 163.182C279.76 169.881 275.301 175.427 271.029 180.742C270.859 180.954 270.689 181.166 270.519 181.377C266.098 186.886 261.674 193.037 261.425 200.098C261.129 208.513 257.133 216.731 250.698 222.159L256.298 208.57C257.629 205.338 258.862 201.317 256.634 198.625C255.625 197.407 254.101 196.762 252.639 196.162L243.942 192.592C243.342 192.346 242.724 192.096 242.076 192.092C240.056 192.08 238.854 194.272 238.035 196.119C235.201 202.511 231.582 208.553 227.284 214.067ZM255.88 195.612C257.371 196.164 259.47 196.5 260.177 195.075C263.597 188.178 267.11 181.149 272.554 175.708C275.691 172.572 277.615 168.387 278.703 164.085C279.791 159.784 280.099 155.329 280.403 150.902C279.082 151.383 278.967 153.166 278.973 154.573C278.985 157.673 278.443 160.775 277.38 163.687C277.158 164.296 276.859 164.955 276.264 165.212C275.668 165.469 274.791 164.953 274.991 164.336C276.527 159.598 277.1 154.551 276.664 149.59C276.529 148.051 276.242 146.406 275.149 145.316C275.268 147.745 275.386 150.184 275.14 152.603C274.714 156.789 273.214 160.779 271.727 164.715C271.534 165.226 271.301 165.783 270.811 166.023C270.32 166.263 269.559 165.882 269.687 165.351L271.914 156.143C273.138 151.081 274.342 145.635 272.447 140.783C271.492 140.719 271.267 142.084 271.353 143.038C271.936 149.567 270.132 156.047 268.346 162.354C268.137 163.09 267.399 164.011 266.826 163.505C266.578 163.286 266.567 162.91 266.587 162.58C266.7 160.726 267.208 158.93 267.716 157.137C267.873 156.58 268.031 156.024 268.176 155.466C269.518 150.322 269.861 144.919 269.179 139.647C268.002 141.156 267.503 143.068 267.033 144.922L264.238 155.927C262.974 160.902 261.36 166.371 256.98 169.044C256.631 169.257 256.226 169.454 255.828 169.36C255.334 169.243 255.054 168.732 254.848 168.268C252.052 161.968 251.703 154.618 253.889 148.081C254.021 147.685 253.618 147.27 253.201 147.237C252.784 147.205 252.394 147.432 252.052 147.673C248.466 150.205 247.092 154.791 245.951 159.032L244.434 164.67C244.212 165.494 243.989 166.325 243.943 167.177C243.873 168.471 244.21 169.737 244.547 170.997C244.625 171.289 244.702 171.581 244.775 171.872C246.234 177.73 245.575 184.092 242.946 189.527C242.558 190.328 243.582 191.057 244.416 191.366L255.88 195.612ZM261.546 141.799C260.948 141.387 260.307 140.916 260.122 140.214C259.839 139.136 260.865 138.054 261.969 137.909C263.073 137.764 264.153 138.298 265.068 138.932C266.357 139.827 267.989 138.463 268.954 137.226C267.652 136.447 266.41 135.237 266.359 133.72C266.307 132.204 268.151 130.759 269.378 131.651C269.854 131.998 270.43 132.21 270.999 132.42C271.852 132.734 272.691 133.042 273.16 133.79C273.692 134.64 273.503 135.79 272.961 136.634C272.419 137.478 271.585 138.084 270.77 138.67C271.939 138.786 273.077 139.203 274.045 139.869L275.099 136.797C275.181 136.558 275.269 136.309 275.457 136.141C275.818 135.816 276.38 135.917 276.843 136.063C278.057 136.449 279.247 137.05 280.048 138.041C280.85 139.031 281.184 140.47 280.624 141.614C280.064 142.758 278.484 143.368 277.413 142.678C277.191 142.535 276.968 142.344 276.745 142.153C276.148 141.641 275.551 141.13 274.975 141.539C276.734 142.909 277.942 144.968 278.281 147.172C283.819 138.734 289.296 130.257 294.714 121.742C295.231 120.93 295.649 119.648 294.806 119.181C291.208 117.184 288.028 114.51 284.856 111.842C280.851 108.475 276.858 105.117 272.053 103.146C271.748 103.02 271.414 102.899 271.096 102.983C270.761 103.072 270.526 103.362 270.316 103.637C261.368 115.321 253.337 127.708 246.322 140.646C245.343 142.451 246.653 144.603 247.906 146.229C248.532 147.042 249.741 147.9 250.423 147.134C251.284 146.17 252.695 145.618 253.914 146.049C255.132 146.48 255.891 148.065 255.228 149.176C254.748 149.978 255.687 150.871 256.507 151.32C258.145 152.218 259.826 153.039 261.541 153.778C261.779 153.881 262.057 153.982 262.289 153.866C262.51 153.755 262.6 153.492 262.669 153.254L264.569 146.713C264.882 145.637 265.091 144.241 264.169 143.606L261.546 141.799ZM295.54 123.463C295.287 123.376 295.057 123.629 294.909 123.851L280.68 145.158C280.298 145.731 279.906 146.327 279.794 147.007C279.682 147.687 279.932 148.478 280.551 148.781C281.576 149.282 282.648 148.229 283.305 147.296L296.525 128.553C297.507 127.161 296.676 125.258 295.836 123.777C295.763 123.649 295.679 123.511 295.54 123.463ZM255.48 151.915C255.229 151.733 254.855 151.841 254.645 152.069C254.435 152.298 254.35 152.61 254.271 152.91C254.076 153.648 253.881 154.393 253.852 155.155C253.823 155.918 253.962 156.675 254.1 157.426L255.462 164.835C255.519 165.146 255.586 165.476 255.806 165.702C256.027 165.928 256.455 165.978 256.634 165.717C258.65 162.766 260.695 159.758 261.75 156.343C261.882 155.919 261.92 155.322 261.504 155.165C259.362 154.359 257.33 153.263 255.48 151.915ZM271.214 133.634C270.532 132.983 269.629 132.568 268.691 132.472C267.835 132.385 267.342 133.587 267.732 134.353C268.123 135.119 268.985 135.499 269.783 135.819C270.347 136.045 271.03 136.258 271.521 135.901C272.227 135.389 271.846 134.236 271.214 133.634ZM265.597 142.22C265.876 142.022 265.912 141.616 265.834 141.284C265.54 140.029 264.166 139.389 262.932 139.021C262.454 138.879 261.86 138.78 261.524 139.148C261.243 139.454 261.303 139.962 261.545 140.3C261.787 140.639 262.167 140.847 262.533 141.044L264.439 142.071C264.801 142.267 265.262 142.458 265.597 142.22ZM276.444 137.7C276.04 138.24 276.081 139.026 276.418 139.611C276.755 140.195 277.338 140.602 277.953 140.878C278.164 140.973 278.396 141.056 278.622 141.011C278.818 140.972 278.984 140.84 279.104 140.681C279.544 140.093 279.33 139.206 278.826 138.671C278.321 138.136 277.603 137.869 276.912 137.618C276.793 137.575 276.654 137.533 276.546 137.598C276.504 137.623 276.473 137.661 276.444 137.7ZM85.2658 186.704C85.5298 184.752 85.8996 182.605 87.4321 181.369C88.6541 180.384 90.3316 180.227 91.9009 180.197C97.0416 180.098 102.199 180.933 107.046 182.649C108.579 183.192 110.184 183.907 111.022 185.301C111.93 186.811 111.709 188.715 111.458 190.458L107.565 217.513C110.249 209.678 112.176 201.584 113.311 193.379C113.84 189.552 114.025 185.16 111.354 182.368C107.186 178.009 107.299 171.802 107.415 165.49C107.515 160.042 107.616 154.517 104.967 150.036C104.103 148.574 106.03 147.064 107.632 146.503C114.696 144.029 122.226 142.894 129.705 143.175C131.076 154.011 131.447 164.973 130.812 175.876C130.669 178.322 134.136 178.953 136.569 178.683L220.997 169.317C221.419 169.271 221.876 169.208 222.175 168.906C222.525 168.554 222.542 168.001 222.537 167.504C222.338 147.716 221.769 127.931 220.83 108.163C220.793 107.392 220.695 106.506 220.057 106.072C219.578 105.746 218.948 105.789 218.372 105.845L158.111 111.689C162.07 93.0108 166.051 73.9821 164.246 54.9744C151.072 63.7608 134.074 63.6949 118.268 62.7645C117.612 62.7258 116.953 62.6865 116.294 62.647C101.083 61.7377 85.2212 60.7893 71.547 67.3715C78.7068 86.3623 85.9487 107.091 79.9972 126.495C79.4706 128.212 78.8441 129.898 78.2179 131.583C77.2524 134.182 76.2876 136.779 75.6909 139.482C74.7073 143.939 74.8551 148.929 77.4917 152.654C81.3096 158.048 84.3435 164.181 85.0355 170.754C85.6922 176.991 84.2249 183.177 82.7593 189.356C81.2279 195.812 79.6983 202.261 80.5952 208.752C80.747 209.85 81.0211 211.031 81.8805 211.731L85.2658 186.704ZM91.239 108.325C92.8356 108.381 93.4702 110.386 93.6743 111.971L95.2908 124.523C92.1346 122.886 87.6945 125.664 87.7851 129.22C85.1256 124.084 84.7215 118.199 84.3215 112.373C84.2345 111.106 84.1477 109.841 84.0379 108.588C82.8636 95.1844 78.8258 82.2201 74.8127 69.3782C74.2405 67.5471 76.7122 66.3596 78.6097 66.0813C91.0619 64.2549 103.665 64.5071 116.273 64.7594C121.988 64.8737 127.705 64.9881 133.409 64.9089C143.544 64.7683 154.268 63.8087 162.49 57.8774C164.338 70.201 161.826 82.6346 159.346 94.9116C159.011 96.5723 158.676 98.2301 158.352 99.8844C155.638 113.768 153.79 128.568 158.984 141.726C159.203 142.281 158.457 142.699 157.873 142.821C153.602 143.712 149.185 143.904 144.853 143.387C142.994 143.165 141.155 142.814 139.316 142.463C137.93 142.199 136.545 141.935 135.151 141.726C124.657 140.15 113.702 141.785 104.124 146.357C103.74 146.54 103.284 146.454 102.882 146.315C100.942 145.643 99.5584 143.85 98.868 141.917C98.1775 139.983 98.0787 137.896 97.9866 135.844L97.6003 127.24C97.5864 126.931 97.6673 126.511 97.9765 126.502C114.755 125.977 131.514 124.846 148.21 123.11C147.504 119.158 147.434 115.093 148.004 111.119C148.363 108.611 146.005 106.324 143.494 105.988C140.983 105.652 138.499 106.79 136.415 108.23C135.635 108.768 134.886 109.353 134.137 109.938C132.885 110.916 131.634 111.893 130.241 112.65C129.329 113.146 128.232 113.546 127.275 113.145C126.103 112.656 125.71 111.261 125.359 110.016C125.337 109.938 125.315 109.86 125.293 109.783C124.836 108.18 124.082 106.585 122.755 105.576C121.427 104.568 119.425 104.317 118.115 105.347C116.995 106.228 116.641 107.754 116.453 109.167C116.436 109.293 116.42 109.419 116.404 109.546C116.238 110.845 116.066 112.188 115.291 113.23C114.44 114.373 112.542 114.863 111.609 113.786C109.764 111.655 106.526 111.209 103.809 111.956C101.092 112.704 98.7672 114.431 96.5131 116.122C95.1532 113.994 95.0407 111.127 96.2296 108.898L96.2494 108.861C96.4729 108.442 96.7297 107.962 96.5321 107.536C96.4097 107.272 96.1398 107.11 95.8724 106.995C94.2738 106.309 92.2313 106.895 91.239 108.325ZM139.28 144.303C140.174 144.482 141.272 144.88 141.328 145.791C141.855 154.471 148.75 162.271 157.228 164.192C165.706 166.113 175.102 162.228 180.046 155.075C184.989 147.922 185.376 137.985 181.323 130.292C176.975 122.042 166.411 117.661 157.504 120.414C157.091 118.591 157.137 116.666 157.638 114.865C157.731 114.53 157.853 114.181 158.122 113.962C158.386 113.749 158.742 113.7 159.079 113.66L184.169 110.637C186.375 110.371 188.587 110.105 190.808 110.086C200.363 110.008 209.909 109.055 219.291 107.243C220.748 126.825 221.434 146.463 221.346 166.099C221.342 167.03 221.059 168.268 220.128 168.295C204.337 168.755 188.671 170.833 172.998 172.912C162.468 174.309 151.936 175.706 141.361 176.613C139.004 176.815 136.631 176.993 134.276 176.768C133.849 176.727 133.367 176.64 133.135 176.279C132.995 176.062 132.98 175.79 132.968 175.531L131.56 144.125C131.542 143.719 131.566 143.23 131.918 143.026C132.151 142.891 132.442 142.939 132.706 142.992L139.28 144.303ZM96.0778 137.032C95.8283 138.663 95.5475 140.499 96.6158 141.733C100.6 146.336 104.74 151.255 105.799 157.251C106.293 160.051 106.081 162.933 105.869 165.803C105.603 169.419 105.338 173.016 106.489 176.407C106.519 176.496 106.55 176.584 106.581 176.673C106.792 177.278 107.008 177.894 106.939 178.525C106.86 179.249 106.232 179.978 105.515 179.854L97.1849 178.417C94.4264 177.941 91.5121 177.478 88.8918 178.463C88.3852 178.653 87.802 178.319 87.5306 177.851C87.2591 177.383 87.2234 176.819 87.1998 176.278C87.1714 175.625 87.1501 174.967 87.1287 174.308C86.9941 170.159 86.8571 165.933 84.9377 162.298L78.8137 150.701C77.9097 148.989 76.9845 147.201 76.9221 145.266C76.8804 143.974 77.2292 142.704 77.5749 141.458L80.63 130.449C81.2732 128.132 81.9536 125.74 83.4768 123.879C87.1772 130.159 87.5423 138.284 84.4202 144.871C84.1314 145.481 85.0137 146.108 85.6426 145.865C86.2716 145.622 86.5909 144.933 86.8126 144.296C87.7007 141.745 88.0121 139.056 88.324 136.363C88.5763 134.184 88.8289 132.002 89.3875 129.889C89.7297 128.595 90.2233 127.273 91.2225 126.382C92.2216 125.492 93.8511 125.187 94.8981 126.021C95.6993 126.659 95.9598 127.75 96.1122 128.763C96.5143 131.436 96.5124 134.17 96.1067 136.843C96.0972 136.906 96.0875 136.969 96.0778 137.032ZM110.451 115.298C111.678 116.238 112.881 117.159 114.354 116.989C116.227 116.772 117.394 114.844 117.937 113.038C118.056 112.643 118.162 112.238 118.268 111.833C118.647 110.386 119.029 108.928 120.021 107.84C120.31 107.524 120.725 107.229 121.134 107.353C121.466 107.454 121.659 107.79 121.813 108.101C122.032 108.541 122.238 108.988 122.445 109.436C123.028 110.699 123.611 111.962 124.457 113.059C125.604 114.546 127.387 115.715 129.253 115.51C130.921 115.327 132.224 114.146 133.495 112.994C133.755 112.758 134.014 112.523 134.275 112.298C137.335 109.659 141.32 108.114 145.358 108.003C144.814 109.365 145.177 110.851 145.533 112.309C145.619 112.66 145.705 113.009 145.777 113.355C146.347 116.082 146.059 118.981 144.963 121.543L117.987 123.62C111.69 124.105 105.376 124.591 99.0643 124.368C98.6655 124.354 98.2566 124.335 97.8898 124.178C97.197 123.882 96.7854 123.142 96.6363 122.403C96.302 120.746 97.0656 119.021 98.2222 117.788C99.3788 116.556 100.889 115.726 102.373 114.917C103.917 114.075 105.631 113.204 107.352 113.564C108.497 113.803 109.482 114.557 110.451 115.298ZM161.532 154.609C157.446 154.524 153.905 151.189 152.692 147.284C152.444 146.487 152.959 145.612 153.67 145.175C154.38 144.737 155.24 144.634 156.07 144.54L162.057 143.867C160.236 140.327 158.94 136.517 158.222 132.6C158.157 132.245 158.097 131.872 158.21 131.528C158.407 130.926 159.056 130.608 159.657 130.406C164.522 128.771 170.364 130.756 173.225 135.019C176.086 139.282 175.71 145.444 172.353 149.327C170.899 151.008 168.994 152.249 166.987 153.204C165.276 154.018 163.427 154.648 161.532 154.609ZM180.925 133.563C181.652 135.965 181.862 138.492 181.962 141C180.329 140.752 178.68 140.612 177.029 140.58C176.706 136.362 173.899 132.55 170.21 130.483C166.52 128.416 162.067 127.969 157.898 128.677C157.862 128.082 157.754 127.462 157.646 126.841C157.36 125.204 157.074 123.567 158.132 122.404C158.771 121.702 159.745 121.421 160.678 121.248C164.929 120.455 169.461 121.285 173.156 123.533C176.85 125.78 179.672 129.423 180.925 133.563ZM150.953 146.859C150.946 146.936 150.94 147.013 150.936 147.086C150.908 147.669 151.18 148.204 151.449 148.733C151.521 148.875 151.593 149.016 151.659 149.158C151.97 149.829 152.121 150.714 151.6 151.239C150.341 152.511 149.227 153.928 148.29 155.454C148.058 155.831 147.487 155.862 147.106 155.637C146.725 155.412 146.488 155.011 146.268 154.627C144.874 152.196 143.445 149.653 143.272 146.855C143.25 146.508 143.288 146.087 143.597 145.924C143.732 145.853 143.893 145.851 144.046 145.85L150.28 145.832C150.428 145.831 150.585 145.833 150.715 145.906C151.021 146.08 150.986 146.484 150.953 146.859Z" fill="#00160A"/>
</svg>
