<svg width="261" height="210" viewBox="0 0 261 210" fill="none" xmlns="http://www.w3.org/2000/svg">
<path fill-rule="evenodd" clip-rule="evenodd" d="M150.222 209.568C181.469 209.568 208.889 186.325 193.49 154.756C178.091 123.186 235.309 124.206 252.116 102.387C272.614 75.7784 266.678 -37.1722 135.091 31.688C114.012 42.7186 59.8771 20.3401 41.9204 31.4439C20.7835 44.5142 -8.95495 71.2778 20.7835 98.6934C35.432 112.198 -17.0865 147.249 5.91557 178.646C28.3598 209.281 44.0928 180.077 78.2639 186.325C112.435 192.574 127.016 209.568 150.222 209.568Z" fill="#5287DE"/>
<path d="M113.956 154.646C113.956 154.646 121.15 151.262 123.836 148.908C126.522 146.553 129.861 140.703 129.861 140.703C129.861 140.703 166.541 167.193 190.457 163.414C195.967 162.544 206.704 158.881 207.389 152.427C209.259 134.805 183.39 130.302 189.041 121.365C192.49 115.91 203.205 124.029 203.205 124.029L247.647 145.889C247.647 145.889 232.294 183.736 195.034 185.253C149.2 187.118 113.956 154.646 113.956 154.646Z" fill="white"/>
<path fill-rule="evenodd" clip-rule="evenodd" d="M78.7199 6.42836C78.3027 6.2646 76.0626 3.52167 73.2187 3.02244C71.9264 2.79559 73.0993 4.44115 71.677 4.45596C67.441 4.50006 60.5572 3.70424 59.2819 4.45596C58.3341 5.01287 60.4214 6.95845 59.2819 7.04777C48.5306 7.89048 32.1287 18.6253 28.5702 23.8332C27.4377 25.4907 36.597 22.6786 35.1377 23.498C33.4997 24.4177 31.6832 30.4395 30.597 35.0903C29.8451 38.293 29.3716 42.4147 29.2046 46.8984C29.0653 50.7695 29.121 51.41 29.678 53.5266C30.3185 55.8938 30.8198 56.59 31.6832 56.2558C31.9895 56.1444 32.1287 55.7267 32.1287 54.9469C32.1287 54.3342 32.4629 52.4962 32.8807 50.8531L33.6048 47.901L33.9111 49.1264C34.301 50.5467 36.5846 54.9469 38.6455 58.1496C38.7566 58.3196 39.2349 58.1034 39.6661 57.0611C40.059 56.1112 39.8996 54.5939 40.5671 52.9676C42.0877 49.2632 45.0734 44.4469 48.5306 40.5916C53.6401 34.8937 55.3353 28.2996 60.1248 23.0063C69.0631 13.1279 80.2813 7.04137 78.7199 6.42836Z" fill="white"/>
<path fill-rule="evenodd" clip-rule="evenodd" d="M35.2646 24.8421C33.8308 25.9951 31.7024 35.3472 31.6659 35.5035C30.914 38.7062 30.1892 49.828 30.9301 51.9336C31.671 54.0393 33.7456 46.4489 33.7456 46.4489C33.7456 46.4489 36.8813 54.5914 39.6521 56.8239C39.7704 56.9192 36.3587 46.7498 35.2646 40.8132C33.8204 32.9765 36.0807 24.1859 35.2646 24.8421Z" fill="#E7EAEE"/>
<path fill-rule="evenodd" clip-rule="evenodd" d="M88.7073 188.631C91.3809 188.046 95.8919 186.009 97.6191 185.313C99.3463 184.616 104.609 177.185 106.503 168.802C107.868 162.619 108.564 153.819 107.784 152.343C107.669 152.133 107.248 148.132 108.369 149.438C110.862 152.343 113.821 156.903 123.157 148.732C125.7 146.506 129.07 143.634 128.183 141.095C125.7 133.991 114.936 119.685 113.296 118.602C111.334 117.306 101.418 118.407 86.6606 114.051C69.9249 109.112 62.9562 94.5663 56.407 96.4597C51.1107 97.9909 38.421 107.401 35.2363 113.36C20.2012 141.492 38.421 161.205 42.5703 166.867L46.599 168.607L46.7383 172.2L46.9332 174.455C47.2953 178.772 47.4345 179.162 49.384 180.61C54.2576 184.314 63.8657 187.767 72.5547 188.993C76.5928 189.55 85.3654 189.355 88.7073 188.631Z" fill="white"/>
<path fill-rule="evenodd" clip-rule="evenodd" d="M48.1834 170.885L48.3783 173.14C48.7404 177.457 48.8796 177.847 50.8291 179.295C53.7042 181.48 58.227 183.578 63.2367 185.183C66.7191 186.298 70.4367 187.175 73.9998 187.678C78.0379 188.235 86.8105 188.04 90.1524 187.316C91.8043 186.958 78.2167 176.283 70.2122 179.295C64.0651 181.608 49.5765 163.964 55.4674 159.354C62.0756 154.184 49.9664 133.788 49.5765 129.36C49.1866 124.933 47.6512 123.875 47.6064 124.03C47.5616 124.185 47.5616 124.715 47.6821 125.991C48.2017 131.493 48.1834 170.885 48.1834 170.885Z" fill="#E7EAEE"/>
<path fill-rule="evenodd" clip-rule="evenodd" d="M46.7325 128.096C47.3172 127.982 47.8834 128.364 47.9972 128.949C50.0991 139.747 58.9898 147.058 74.8877 150.881C90.88 154.726 101.773 154.519 107.513 150.414C107.997 150.067 107.636 153.035 107.281 153.262C103.538 155.663 90.81 159.245 75.6212 156.007C56.2008 151.868 47.0823 135.538 45.8799 129.361C45.7661 128.776 46.1478 128.21 46.7325 128.096Z" fill="#80B0FF"/>
<path fill-rule="evenodd" clip-rule="evenodd" d="M38.6339 108.613C39.1509 108.317 58.4398 130.424 84.9106 135.428C111.381 140.432 117.791 137.25 118.821 130.424C118.91 129.835 119.459 129.43 120.048 129.519C120.637 129.608 121.043 130.157 120.954 130.746C119.648 139.396 107.399 141.454 84.5478 137.554C61.9832 133.704 46.5129 124.555 38.2334 110.085C37.9376 109.568 38.1169 108.909 38.6339 108.613Z" fill="#80B0FF"/>
<path fill-rule="evenodd" clip-rule="evenodd" d="M149.737 107.387C149.013 107.137 148.233 106.58 147.732 105.939L146.896 104.909L149.848 101.985C154.388 97.5287 157.869 92.9614 160.876 87.5308C161.879 85.7206 164.413 79.6772 164.413 79.0924C164.413 78.8974 164.72 78.1177 165.082 77.31C165.639 76.1404 166.056 75.6948 167.254 75.0264C168.674 74.1909 170.29 73.9124 170.986 74.3858C172.323 75.277 172.323 78.0898 170.986 82.9356C169.51 88.2548 167.532 92.0702 163.439 97.5565C162.798 98.392 161.601 100.035 160.737 101.177C158.426 104.24 156.922 105.716 154.889 106.858C152.884 107.972 151.714 108.111 149.737 107.387ZM169.733 104.881L171.738 105.772C172.153 105.964 176.74 108.168 182.25 110.815C191.133 115.084 202.415 120.504 202.483 120.504C202.595 120.504 203.117 119.296 203.235 117.887C203.514 114.851 204.544 110.729 205.742 107.861C206.299 106.58 206.744 104.979 206.744 104.839C206.744 104.776 206.292 104.593 205.55 104.294C204.668 103.938 203.377 103.418 201.954 102.737C194.936 99.3667 181.206 92.4879 179.508 91.4575C177.837 90.4828 177.503 90.3992 177.503 91.0398C177.503 91.8753 175.804 95.7463 174.495 97.835C173.799 98.9768 172.434 101.038 171.459 102.402L169.733 104.881ZM202.01 115.492C202.809 115.954 201.425 116.633 201.091 116.745C199.123 116.912 196.807 116.542 194.909 115.436C193.916 114.732 186.101 110.391 180.918 107.511C178.548 106.194 176.728 105.183 176.361 104.965C175.191 104.268 174.077 103.516 173.882 103.294C173.297 102.542 173.854 102.207 175.498 102.347C176.485 102.43 200.285 114.492 202.01 115.492ZM96.4085 185.628L96.4086 185.628C96.9278 185.409 97.3747 185.22 97.714 185.083C99.4412 184.387 104.704 176.955 106.598 168.573C107.963 162.39 108.659 153.59 107.879 152.114C107.409 151.259 110.202 154.126 112.282 156.262C112.913 156.91 113.478 157.49 113.867 157.878C126.009 169.937 144.083 179.629 162.854 184.168C172.211 186.452 178.867 187.26 187.807 187.26C202.818 187.26 214.654 184.307 225.404 177.819C225.911 177.512 226.386 177.231 226.84 176.962L226.844 176.96L226.846 176.959L226.849 176.957C230.596 174.738 232.828 173.417 238.938 166.54C245.792 158.825 251.888 140.918 253.921 134.736C254.812 131.951 256.985 120.874 256.985 118.109C256.985 114.837 255.843 113.292 254.283 111.704C251.526 109.003 247.794 108.028 244.703 109.198L243.255 109.755L242.809 108.279C242.169 106.051 240.832 104.268 238.771 102.932C235.708 100.899 235.262 100.759 232.505 100.759C230.361 100.759 229.776 100.871 228.411 101.511L226.824 102.235L226.49 101.233C225.849 99.1719 223.701 96.2989 222.034 95.4679C220.555 94.7308 217.996 94.6633 216.213 94.9945C212.314 95.7185 209.529 97.5287 208.388 100.063C208.053 100.843 207.636 101.456 207.469 101.456C207.329 101.456 201.843 99.9233 195.298 97.0269C194.202 96.5402 193.172 96.0835 192.204 95.6545L192.184 95.6455C180.431 90.4364 177.884 89.3074 178.115 87.8929C178.31 86.6953 178.254 86.0269 177.92 84.9965C177.335 83.2699 176.667 82.7964 174.773 82.7964C173.269 82.7964 173.269 82.7964 173.437 82.0445C174.328 77.7835 174.3 75.3328 173.353 73.7732C172.712 72.7428 171.961 72.325 170.234 72.0744C169.231 71.9351 168.758 72.0187 167.644 72.6314C166.892 73.0213 166.251 73.2998 166.196 73.2441C166.14 73.1884 166.335 71.6566 166.641 69.8464C168.925 56.4509 167.161 44.9093 161.34 32.6555C161.284 32.5383 161.22 32.3997 161.146 32.241C159.377 28.4421 152.262 13.1665 131.913 5.45863C130.994 5.11044 130.124 4.77376 129.288 4.45015L129.286 4.44922L129.283 4.44825L129.283 4.44818C122.352 1.76523 117.744 -0.0183664 106.626 0.0001427C94.1646 0.0208884 89.944 1.7825 81.7285 5.54217C80.5866 6.07131 79.5841 6.37766 79.5005 6.26626C79.417 6.12701 78.8878 5.79282 78.3587 5.51432C77.8295 5.23583 76.6877 4.5396 75.8522 3.98261C73.4572 2.36734 71.9812 1.69896 71.2292 1.86605C70.3659 2.08885 70.3659 2.81293 71.2292 3.14713C71.5913 3.28637 72.009 3.75981 72.1761 4.23325C72.5382 5.23583 72.9559 5.34723 73.2065 4.51175C73.3179 4.2054 73.485 3.98261 73.5686 4.03831C73.6003 4.05415 73.7063 4.1038 73.8682 4.17956C74.2752 4.37012 75.0352 4.72589 75.8522 5.12443C76.9941 5.68142 78.2473 6.26626 78.5815 6.40551C79.1942 6.6283 78.9992 6.7954 76.3535 8.35496C66.0214 14.4261 57.6109 23.8671 52.9043 34.6169C52.1802 36.2322 51.5397 37.2348 50.8713 37.7918C49.1725 39.2121 45.8306 43.2503 45.0508 44.8377C44.6331 45.701 43.7419 47.0378 43.0456 47.8176C42.3773 48.5973 41.6532 49.5999 41.4025 50.0177C41.1797 50.4633 40.9569 50.7696 40.8734 50.7139C40.8177 50.6304 40.9012 49.2657 41.0962 47.6783C41.5139 43.9743 41.5139 42.9996 41.1797 42.9161C40.6784 42.7768 39.9544 44.7263 39.648 47.1492C39.4252 48.6252 39.3695 50.8531 39.5088 53.1368L39.6759 56.7572L37.6986 53.5545C37.0175 52.4819 36.3469 51.4092 35.8712 50.6484L35.8704 50.6471L35.8686 50.6443L35.8681 50.6435L35.8673 50.6422C35.5669 50.1617 35.3448 49.8065 35.2478 49.6556C34.5237 48.5974 34.106 47.0099 34.4123 46.4808C34.5794 46.1745 34.5516 46.0352 34.2731 46.0352C33.6882 46.0352 32.5464 47.9011 31.7945 50.0455C31.4324 51.0481 31.0704 51.8836 30.959 51.8836C30.5413 51.8836 30.7362 41.9135 31.1818 38.7108C32.1008 32.389 34.5237 24.5912 35.6099 24.5912C35.8326 24.5912 36.0276 24.4798 36.0276 24.3127C36.0276 23.8114 35.3035 24.0063 34.7187 24.6469C33.4097 26.0672 31.6831 30.4395 30.597 35.0904C29.845 38.2931 29.3716 42.4148 29.2045 46.8985C29.0652 50.7696 29.1209 51.4101 29.6779 53.5267C30.3185 55.8939 30.8198 56.5901 31.6831 56.2559C31.9894 56.1445 32.1287 55.7268 32.1287 54.947C32.1287 54.3343 32.4629 52.4963 32.8806 50.8531L33.6047 47.9011L33.911 49.1265C34.3009 50.5468 36.5846 54.947 38.6454 58.1497C40.0658 60.3219 40.0936 60.4612 40.567 63.8588C40.8177 65.7804 41.5975 70.4544 43.4077 77.6443C45.0071 83.997 53.9988 90.2989 56.2438 91.8724C56.5397 92.0797 56.7184 92.2049 56.7475 92.2374C57.026 92.5437 57.4159 92.7108 57.6387 92.6273C57.8894 92.5437 58.0286 92.6551 58.0286 92.9614C58.0286 93.2399 58.2236 93.602 58.4464 93.7691C58.7249 93.964 58.9198 94.716 58.9755 96.0249C59.1147 98.6427 61.0642 103.656 62.5681 105.299C63.5428 106.357 65.5758 106.803 67.8316 106.413C69.3076 106.19 69.7254 106.023 69.5861 105.689C69.5026 105.466 70.0317 105.744 70.7558 106.301C79.222 112.762 87.7996 116.633 97.4355 118.304C101.167 118.945 107.35 119.307 110.72 119.056C113.7 118.861 113.7 118.861 113.56 119.446C113.365 120.226 113.616 120.699 117.71 127.634C120.968 133.12 121.247 133.482 124.867 137.186C132.554 145.123 140.936 151.278 150.433 156.04C159.373 160.496 173.645 164.2 186.693 165.37C199.74 166.54 209.112 154.564 209.084 151.501C209.028 147.296 208.443 144.539 207.023 141.865C205.63 139.275 204.711 138.384 200.534 135.599C195.883 132.508 193.015 129.973 191.121 127.272C189.923 125.573 189.478 123.651 189.478 122.621C189.478 121.953 190.341 120.449 191.622 120.142C192.792 119.836 193.015 119.864 194.324 120.505C195.103 120.867 197.136 121.813 198.807 122.621C200.506 123.401 202.149 124.181 202.483 124.348C203.469 124.621 203.885 126.55 204.111 127.595C204.161 127.829 204.202 128.018 204.238 128.135C204.628 129.583 206.473 131.453 207.663 132.09C209.754 133.208 214.905 133.357 216.325 131.826C216.687 131.436 217.888 130.956 218.135 131.101C218.382 131.247 219.277 132.452 219.277 133.427C219.305 135.098 220.168 136.629 222.006 138.161C225.487 141.057 228.188 141.754 230.918 140.473C232.338 139.804 233.502 139.543 233.502 139.543C233.502 139.543 234.663 141.024 234.733 141.531C235.28 145.488 241.138 147.146 242.698 147.314C243.055 147.349 243.751 147.196 244.458 147.041L244.458 147.041C245.402 146.833 246.366 146.621 246.569 146.85C246.967 147.299 239.913 158.965 238.938 160.441C229.664 174.365 211.618 182.887 189.533 183.778C175.191 184.363 157.562 180.353 142.273 173.056C132.498 168.35 123.837 162.585 114.563 154.509C112.948 153.116 111.082 151.529 110.413 150.972C109.745 150.443 108.158 148.632 106.932 146.961C104.871 144.176 103.702 143.174 103.702 144.121C103.702 144.539 105.038 147.101 106.57 149.635C107.183 150.638 107.573 151.334 107.433 151.222C107.294 151.111 106.849 153.116 106.431 155.678C105.066 163.894 102.81 171.998 100.527 177.039C99.2736 179.768 96.8706 181.806 96.1465 182.363C93.473 184.396 89.4706 185.31 83.9286 185.867C76.9105 186.563 66.5784 185.004 58.697 182.052C56.6083 181.272 51.2334 179.016 50.8713 178.765C50.8496 178.744 50.7262 177.942 50.554 176.824L50.5538 176.823C50.5053 176.508 50.453 176.168 50.3979 175.813C49.3953 168.935 48.0028 142.45 48.0028 130.196C48.0028 125.128 47.9471 124.014 47.6129 124.014C46.9167 124.014 46.6382 124.682 46.3319 127.077C45.6356 132.535 45.7749 161.025 46.5268 167.013L46.6939 168.378L45.747 167.848C44.2989 167.013 38.7847 161.415 36.8631 158.825C35.2363 156.611 34.2694 153.775 33.546 151.654C33.3778 151.16 33.2227 150.705 33.0756 150.306C29.0374 139.111 30.4577 126.548 36.0276 115.241C40.762 105.605 46.5825 100.258 55.1044 97.668C56.4969 97.2503 57.7223 96.8047 57.8615 96.6933C58.3907 96.192 54.993 96.4426 53.1271 97.0275C47.056 98.8934 40.7063 103.99 36.3896 110.507C30.3185 119.641 27.5892 133.12 29.5108 144.622C29.9564 147.351 31.7666 153.255 32.2679 153.673C32.3123 153.718 32.5413 154.198 32.8876 154.925L32.8878 154.925L32.8879 154.925L32.8879 154.925L32.888 154.925C33.846 156.935 35.7009 160.826 37.0302 162.585C38.6454 164.785 43.5191 169.575 45.5521 171.051L46.8332 171.97L47.0281 174.226C47.3902 178.543 47.5294 178.933 49.4789 180.381C54.3525 184.085 63.9605 187.538 72.6496 188.763C76.6877 189.32 85.4603 189.125 88.8022 188.401C90.9504 187.931 94.285 186.524 96.4085 185.628ZM182.933 162.251C166.753 160.831 147.203 153.116 133.055 141.196C127.095 136.155 119.353 126.353 116.29 120.922C115.649 119.808 115.176 119.279 114.619 119.14C114.034 118.973 114.535 118.806 116.93 118.416C127.04 116.689 136.87 112.484 144.808 106.496L145.977 105.633L146.311 106.441C147.063 108.251 149.96 110.089 152.104 110.089C152.967 110.089 155.864 108.78 157.618 107.582L158.816 106.775L159.791 107.75C160.682 108.641 160.849 108.696 162.52 108.696C164.441 108.696 166.753 107.833 168.034 106.608L168.73 105.967L170.708 107.276C171.766 108.028 174.718 109.671 177.252 110.98C181.04 112.93 185.05 115.185 188.865 117.525L189.478 117.915L188.893 118.694C188.28 119.53 187.139 121.117 187.139 123.54C187.139 126.269 189.977 131.173 195.41 134.541C199.678 137.186 207.023 142.39 206.745 149.997C206.711 150.916 205.686 153.2 204.322 155.261C203.431 156.57 200.952 158.519 198.696 159.661C194.853 161.582 188.086 162.696 182.933 162.251ZM34.4402 37.2349C35.1922 37.402 35.6935 37.6526 35.5821 37.764C35.22 38.1261 33.2984 37.959 32.8528 37.5134C32.1566 36.845 32.3237 36.3715 33.2984 36.1766C33.7997 36.0931 34.5516 35.6753 34.9694 35.2576C35.3871 34.8398 35.7492 34.6449 35.7492 34.7841C35.7492 35.1462 34.3567 36.4272 33.6605 36.7057C33.2149 36.9007 33.3541 36.9842 34.4402 37.2349ZM45.5244 37.6804C46.3321 37.2348 46.165 36.9285 45.2181 37.0677C44.2712 37.207 44.2155 37.0956 44.8282 36.1487C45.0789 35.7867 45.2181 35.2575 45.1624 34.979C45.0789 34.617 44.8839 34.7841 44.4383 35.6753C44.1041 36.3158 43.6307 36.8449 43.4079 36.8449C42.7117 36.8449 42.656 37.4019 43.3243 37.6526C44.1877 38.0146 44.8561 38.0146 45.5244 37.6804ZM35.8885 22.4747C35.2202 22.5861 33.1314 23.4216 31.2934 24.3406C29.4275 25.2318 27.8401 25.9837 27.7287 25.9559C24.888 25.6495 28.8426 20.9151 36.0278 16.0693C42.9066 11.4185 47.5574 8.96774 51.8741 7.71451C54.5755 6.93473 57.6111 6.82333 58.4744 7.46387C58.9478 7.82591 58.7808 7.85376 56.7199 7.88161C52.264 7.88161 47.1118 10.1653 38.7292 15.763C34.3847 18.6593 29.3439 22.8089 29.3439 23.4773C29.3439 23.6165 30.1516 23.338 31.1541 22.8924C33.2985 21.9177 35.4986 21.4164 36.4734 21.6392C37.5038 21.9177 37.281 22.2798 35.8885 22.4747ZM46.6662 24.8697C49.2841 24.3406 49.3955 24.3127 49.3955 24.0343C49.3955 23.895 48.3929 23.7558 47.1397 23.7001L44.8839 23.6165L46.9726 21.2493C48.1144 19.9404 49.4512 18.6315 49.9246 18.3251C50.9551 17.6567 51.0108 17.1833 50.1753 16.9048L49.5347 16.7099L50.231 16.4592C50.6209 16.32 51.3449 16.2643 51.8462 16.3478C52.5982 16.4592 52.7653 16.4035 52.6817 16.0136C52.5982 15.6237 52.2918 15.5402 50.9272 15.568C46.9447 15.6237 45.2459 16.682 48.3651 17.1833C49.2284 17.3225 49.9525 17.5453 49.9525 17.6846C49.9525 17.796 49.8132 17.9074 49.6461 17.9074C49.117 17.9074 44.6332 22.4468 44.0763 23.5608C43.2129 25.2039 43.6864 25.4546 46.6662 24.8697ZM65.0469 14.0641C64.2393 14.1198 64.0443 14.259 64.1 14.6489L64.1086 14.7056C64.1399 14.9117 64.1578 15.03 64.1117 15.0659C64.0493 15.1145 63.8701 15.0128 63.449 14.7739L63.3759 14.7325C62.8468 14.454 62.7911 14.3147 63.0974 14.0919C63.2924 13.9248 63.8215 13.6742 64.2393 13.5907L65.0191 13.3957L64.4342 12.783C64.1279 12.421 63.9608 12.0868 64.0443 11.9754C64.2671 11.7526 66.9964 12.0589 67.3863 12.3653C67.5533 12.5045 67.804 12.4767 67.9711 12.3096C68.361 11.9197 68.8901 12.226 68.8901 12.8387C68.8901 13.1729 68.8066 13.2008 68.5559 12.9501C68.3331 12.7273 68.1382 12.7273 67.8875 12.9223C67.6647 13.1172 67.4977 13.1172 67.3584 12.8944C67.2749 12.7552 66.7457 12.6159 66.1887 12.6159C65.6749 12.6159 65.4319 12.6159 65.3823 12.7139C65.3378 12.8017 65.4489 12.9683 65.6596 13.2843C66.1038 13.9784 66.0775 13.9805 65.0564 14.0633L65.0469 14.0641ZM60.8137 6.65624C60.8137 6.2942 60.4795 5.65366 60.0618 5.23592L59.282 4.45614L63.4594 4.62324C65.7709 4.73463 68.3888 4.98528 69.3078 5.23592C70.2268 5.45872 71.2851 5.62581 71.675 5.62581C72.2598 5.62581 72.1484 5.51442 71.0623 4.92958C69.1685 3.95485 66.7456 3.48141 62.0948 3.14722C56.5249 2.75733 53.7121 3.28646 54.2413 4.67893C54.3248 4.95743 54.7704 5.09667 55.4388 5.09667C56.8034 5.09667 59.0314 5.90431 59.7833 6.65624C60.5909 7.46387 60.8137 7.46387 60.8137 6.65624ZM47.2229 80.4014C49.4787 83.2977 52.4586 86.5839 53.8511 87.6979C54.6866 88.3663 55.4107 88.9233 55.4664 88.9233C55.4942 88.9233 54.8815 87.6422 54.1017 86.0827C50.9548 79.8165 49.1167 73.5783 48.2534 66.3931C48.0584 64.8057 47.7521 63.4689 47.4179 62.9119C46.7495 61.798 46.7495 60.3498 47.4457 58.9852C47.8078 58.2611 48.0027 57.3421 48.0027 56.3395V54.8078L46.666 56.2002C45.357 57.5649 44.1038 58.1219 44.1038 57.2864C44.1038 56.6737 46.1647 53.7216 47.2508 52.8026C48.1141 52.0785 48.2255 51.8279 48.504 49.6556C48.699 48.3467 49.1446 46.0352 49.5066 44.5035C49.8965 42.9718 50.1193 41.6629 50.0636 41.6072C49.8686 41.4122 43.324 48.9287 42.4328 51.3266C42.2372 51.8531 41.7088 52.7748 41.291 53.3318L40.5669 54.2615C40.5669 54.2615 40.7919 55.5633 41.0404 57.1994C41.2915 58.8524 41.4093 59.9887 41.5142 61.0008C41.6546 62.3547 41.7719 63.4862 42.1544 65.3348C42.5999 67.6185 43.0455 69.5958 43.1569 69.7351C43.2405 69.9022 43.6025 71.1832 43.9646 72.6035C44.7443 75.7505 46.0533 78.8697 47.2229 80.4014ZM160.236 106.747L159.651 106.162C159.651 106.162 169.358 93.8294 171.097 89.2853C172.424 85.8174 173.206 84.8341 174.26 84.8341C174.849 84.8341 175.33 84.9686 175.553 85.3028C175.943 85.8876 176.319 86.6117 175.817 89.0903C174.982 93.1006 173.701 95.7463 169.858 101.455C168.966 102.764 167.825 104.213 167.323 104.714C166.154 105.8 163.522 106.914 161.99 107.165C161.016 107.304 160.737 107.248 160.236 106.747Z" fill="#00160A"/>
<path d="M237.351 133.991C240.816 124.551 240.291 122.539 239.69 122.342C239.69 122.342 238.367 123.094 237.782 124.682C236.696 127.662 232.979 135.46 231.586 136.852C229.943 138.495 229.943 138.495 228.272 138.495C226.601 138.495 221.782 135.979 221.126 133.498C220.076 129.53 224.596 115.742 224.707 114.962L223.955 114.433C223.454 114.907 216.934 134.68 208.36 129.528C207.378 128.938 205.296 126.158 205.129 124.682C204.201 120.393 208.459 105.396 209.183 102.316C209.831 99.5585 213.205 96.9995 217.355 96.9995C223.733 96.9995 222.876 102.574 225.733 104.539C226.998 105.409 229.079 103.831 229.72 103.711C233.313 103.043 234.689 103.821 237.323 105.911C239.356 107.525 240.86 110.718 242.516 111.843C243.436 112.468 244.411 111.614 244.731 111.453C246.041 110.796 248.853 111.286 249.633 111.843C250.776 112.342 253.577 115.034 254.02 116.601C256.025 123.699 249.692 139.436 247.301 142.388C243.343 147.274 233.886 143.431 237.351 133.991Z" fill="white"/>
<path fill-rule="evenodd" clip-rule="evenodd" d="M77.2447 108.124C84.8754 112.942 92.7437 116.089 101.711 116.952C108.785 117.621 118.323 116.702 125.174 114.474C130.938 112.608 138.736 107.439 143.944 103.067C154.053 94.6003 160.431 81.3761 163.216 67.34C163.606 65.3627 164.2 60.3923 164.172 55.463C164.172 49.726 161.648 34.0485 153.998 25.0089C138.22 6.36472 112.284 -2.03394 90.4865 5.14217C82.6235 7.73083 74.2517 12.4209 67.9298 18.5478C59.9649 26.3178 54.0887 36.9006 51.7493 47.7061C49.2986 59.1244 52.4866 72.7706 58.0286 83.966C62.4567 92.8779 69.7532 103.362 77.2447 108.124ZM151.602 74.4695C146.367 90.2044 132.721 101.957 115.565 105.522C112.948 106.051 111.137 106.246 107.461 106.301C104.871 106.385 102.281 106.357 101.752 106.301C89.749 104.853 80.6144 100.425 72.2038 92.0146C68.5277 88.3106 66.9682 86.3055 64.6845 82.3509C61.0919 76.0847 59.1703 69.6794 58.5855 61.9651C56.5803 35.536 75.4901 13.5071 102.114 11.2235C112.558 10.3323 124.143 13.535 132.943 19.7732C136.202 22.0847 142.106 27.9331 143.944 30.6624C144.696 31.7485 151.992 42.4148 153.273 48.5417C154.917 56.5066 154.276 66.4767 151.602 74.4695Z" fill="white"/>
<path fill-rule="evenodd" clip-rule="evenodd" d="M164.182 55.463C164.182 74.1558 155.34 94.592 143.929 103.32C138.484 107.484 131.369 112.526 125.174 114.474C116.093 117.328 101.711 116.952 101.711 116.952C101.711 116.952 116.384 114.991 121.822 112.803C137.414 106.528 145.926 96.8951 151.181 87.6528C161.556 69.4091 164.182 55.0089 164.182 55.463Z" fill="#E7EAEE"/>
<path fill-rule="evenodd" clip-rule="evenodd" d="M102.031 102.959C94.5947 102.012 87.2146 99.3668 81.2549 95.44C77.718 93.1285 72.3709 87.6979 69.7809 83.8268C66.0769 78.257 63.6262 72.2972 62.4287 65.8918C61.5653 61.241 61.5932 54.0837 62.4565 49.9341C63.3477 45.701 64.4895 42.4705 66.5225 38.3766C68.8897 33.6422 71.3962 30.161 75.1558 26.4014C81.5612 19.996 88.997 15.93 97.8531 13.9805C100.722 13.3678 111.109 12.8666 111.471 13.34C111.555 13.4792 112.112 13.8413 112.697 14.1476C113.282 14.4818 114.841 15.6515 116.122 16.7933C118.044 18.4643 118.907 19.5226 120.578 22.1404C121.72 23.9228 122.639 25.538 122.639 25.6773C122.639 25.9836 123.53 26.5406 124.032 26.5406C124.728 26.5406 125.201 24.4519 125.34 20.7758C125.424 18.7428 125.591 17.0718 125.702 17.0718C126.092 17.0718 130.381 19.439 132.386 20.7758C136.313 23.3936 140.24 27.0697 143.136 30.913C144.445 32.6396 144.64 33.0852 144.64 34.1435C144.64 35.1182 144.919 35.8702 145.782 37.374C147.954 41.1615 149.653 45.9238 150.683 51.1873C151.352 54.7242 151.352 61.4081 150.656 65.112C148.762 75.3049 143.136 85.4421 135.812 91.8753C129.601 97.3059 123.001 100.648 115.203 102.291C112.53 102.876 104.509 103.266 102.031 102.959ZM82.1184 83.9104C82.3691 83.6319 82.5362 83.2141 82.4526 83.0192C82.4275 82.9607 82.0788 82.7967 81.5684 82.5568C80.3786 81.9974 78.3099 81.0249 77.4134 80.0115C73.8487 75.9454 72.5398 72.9099 71.7322 66.6437C70.9524 60.5447 71.6075 56.4215 73.0132 49.7949C73.699 46.5622 75.5217 43.892 76.6556 42.2308C77.4267 41.1012 77.8793 40.4381 77.4397 40.3818C76.3536 40.2147 76.1865 40.2982 75.0447 41.3843C72.5939 43.7237 71.4799 45.5896 70.3103 49.1822C68.5001 54.8077 68.1503 70.0108 71.7322 76.8645C75.3141 83.7182 81.4779 84.6345 82.1184 83.9104ZM121.72 60.5169C121.247 64.8432 119.242 71.0997 116.902 73.8289C115.816 75.11 111.829 77.3101 108.464 76.8645C105.213 76.4341 102.671 74.915 100.499 71.6567C98.6331 68.8439 97.6694 65.4296 97.0179 61.1296C95.8927 53.7042 100.805 45.0605 102.922 42.9161C105.066 40.716 106.598 39.9362 108.548 39.9083C110.441 39.9083 111.667 40.3261 113.588 41.6907C117.097 44.1414 122.639 52.1101 121.72 60.5169ZM84.1792 37.4854C84.7362 36.8449 84.8197 36.5385 84.6526 35.341C84.5412 34.227 84.3184 33.7814 83.7336 33.308C82.7032 32.4725 81.4221 32.4725 80.4752 33.3637C79.8068 34.0042 79.7233 34.227 79.8068 35.7587C79.8904 37.4018 79.9461 37.5132 80.8651 38.0145C82.0905 38.6829 83.288 38.488 84.1792 37.4854ZM101.557 20.3023C96.5443 23.8948 94.372 25.3709 92.1162 26.7633C90.3339 27.8773 89.7769 27.9052 89.7769 26.9026C89.7769 26.3734 90.1668 25.7886 91.1693 24.8696L92.5618 23.5885L89.8604 23.2265C86.8248 22.8366 83.8728 22.0011 83.2323 21.3605C82.174 20.2744 83.093 20.0238 86.1008 20.5808C87.4375 20.8036 90.0275 21.0821 91.8656 21.1378L95.2075 21.277L97.6304 19.5225C102.95 15.6793 108.464 13.507 111.11 14.1754C112.753 14.5653 112.558 15.0109 110.692 15.2337C108.547 15.4843 107.238 16.2084 101.557 20.3023Z" fill="white"/>
<path d="M108.715 73.0491C108.715 72.9099 108.882 72.7706 109.104 72.7706C109.327 72.7706 109.606 72.9099 109.689 73.0491C109.773 73.2162 109.606 73.3276 109.299 73.3276C108.965 73.3276 108.715 73.2162 108.715 73.0491Z" fill="white"/>
<path d="M110.385 72.7985C110.385 72.4921 111.082 72.2136 111.862 72.2136C112.474 72.2415 112.474 72.2415 111.945 72.6314C111.332 73.1048 110.385 73.1884 110.385 72.7985Z" fill="white"/>
<path d="M106.069 72.0744C105.985 71.8516 105.874 71.4617 105.79 71.2389C105.707 70.9604 105.846 70.8212 106.208 70.8212C106.514 70.8212 106.765 70.9883 106.765 71.2111C106.765 71.4339 106.849 71.7959 106.932 72.0465C107.044 72.3529 106.96 72.4921 106.654 72.4921C106.403 72.4921 106.125 72.2972 106.069 72.0744Z" fill="white"/>
<path d="M107.545 71.3781C107.406 70.5427 107.712 70.2642 108.715 70.2642C109.021 70.2642 109.272 70.5427 109.383 71.0161C109.606 71.8237 109.244 72.2136 108.269 72.2136C107.823 72.2136 107.628 72.0187 107.545 71.3781Z" fill="white"/>
<path d="M104.704 71.5174C104.175 71.0996 104.175 71.0996 104.76 71.0996C105.122 71.0996 105.373 71.2667 105.373 71.5174C105.373 72.0186 105.373 72.0186 104.704 71.5174Z" fill="white"/>
<path d="M110.302 71.4895C109.94 71.1275 110.107 70.0414 110.552 69.8743C111.36 69.5679 111.722 69.7072 111.889 70.4313C112.001 70.849 112.056 71.211 112.001 71.2389C111.778 71.4895 110.469 71.6566 110.302 71.4895Z" fill="white"/>
<path d="M112.781 70.9047C112.697 70.8212 112.614 70.4591 112.614 70.1249C112.614 69.6515 112.836 69.4565 113.505 69.3173C114.09 69.2059 114.452 69.2616 114.619 69.4844C114.897 69.93 114.897 70.487 114.647 70.6262C114.145 70.9047 112.976 71.0718 112.781 70.9047Z" fill="white"/>
<path d="M103.423 70.0413C103.423 69.7071 103.674 69.4286 104.036 69.3451C104.76 69.1502 104.732 69.1223 104.871 69.8464C104.927 70.2641 104.788 70.4312 104.203 70.4869C103.59 70.5705 103.423 70.4591 103.423 70.0413Z" fill="white"/>
<path d="M105.54 70.0692C105.15 69.6515 105.4 68.8717 105.93 68.8717C106.292 68.8717 106.487 69.0666 106.487 69.4008C106.487 69.93 105.846 70.3756 105.54 70.0692Z" fill="white"/>
<path d="M107.211 69.2337C106.988 68.7046 107.461 68.3147 108.38 68.3147C108.798 68.3147 108.993 68.4818 108.993 68.8438C108.993 69.1502 108.743 69.4287 108.38 69.5401C107.461 69.7629 107.406 69.7629 107.211 69.2337Z" fill="white"/>
<path d="M115.259 69.1502C115.343 69.011 115.482 68.8717 115.566 68.8717C115.649 68.8717 115.621 69.011 115.538 69.1502C115.454 69.3173 115.315 69.4287 115.231 69.4287C115.148 69.4287 115.176 69.3173 115.259 69.1502Z" fill="white"/>
<path d="M109.717 68.6768C109.494 68.1198 109.773 67.8413 110.664 67.702C111.165 67.6463 111.388 67.7577 111.444 68.1476C111.639 69.0667 110.051 69.568 109.717 68.6768Z" fill="white"/>
<path d="M103.033 68.2033C102.783 67.2842 102.838 67.2007 103.563 67.2007C103.952 67.2007 104.259 67.3121 104.259 67.4513C104.259 67.5906 104.342 67.8969 104.426 68.1197C104.509 68.3982 104.342 68.5653 103.869 68.6489C103.34 68.7603 103.145 68.6489 103.033 68.2033Z" fill="white"/>
<path d="M112.335 67.897C112.335 67.3957 112.53 67.1729 113.059 67.0336C113.839 66.8387 114.284 67.2286 114.284 68.1198C114.284 68.4818 114.062 68.5932 113.31 68.5932C112.446 68.5932 112.335 68.5096 112.335 67.897Z" fill="white"/>
<path d="M102.198 67.897C102.114 67.6742 102.17 67.4792 102.309 67.4792C102.476 67.4792 102.588 67.6742 102.588 67.897C102.588 68.1198 102.532 68.3147 102.476 68.3147C102.421 68.3147 102.309 68.1198 102.198 67.897Z" fill="white"/>
<path d="M105.011 68.1197C104.621 67.7577 104.843 66.9779 105.345 66.8387C105.651 66.7551 105.957 66.783 106.041 66.8665C106.375 67.1728 106.18 67.9805 105.763 68.1476C105.233 68.3425 105.233 68.3425 105.011 68.1197Z" fill="white"/>
<path d="M114.953 67.9248C114.646 67.1171 114.981 66.5044 115.76 66.4209C116.345 66.3373 116.512 66.4487 116.512 66.8943C116.512 67.8134 116.206 68.3146 115.649 68.3146C115.343 68.3146 115.036 68.1475 114.953 67.9248Z" fill="white"/>
<path d="M106.96 67.5628C106.626 67.2565 106.737 66.6995 107.211 66.5324C107.74 66.3374 108.854 66.8944 108.548 67.2008C108.158 67.535 107.155 67.7856 106.96 67.5628Z" fill="white"/>
<path d="M109.383 66.8665C109.132 66.4766 110.024 65.8082 110.748 65.8082C111.082 65.8082 111.221 65.9753 111.165 66.2817C111.054 66.8387 109.634 67.2842 109.383 66.8665Z" fill="white"/>
<path d="M101.752 66.6716C101.752 66.5324 101.669 66.226 101.585 65.9754C101.502 65.7247 101.529 65.5298 101.697 65.5298C102.059 65.5298 102.337 66.5881 102.003 66.8109C101.864 66.8944 101.752 66.8387 101.752 66.6716Z" fill="white"/>
<path d="M102.504 66.0311C102.337 65.4184 102.671 64.9728 103.312 64.9728C103.674 64.9728 104.036 66.0589 103.813 66.4209C103.507 66.8944 102.643 66.6159 102.504 66.0311Z" fill="white"/>
<path d="M104.453 66.1703C104.036 65.7525 104.286 64.7499 104.843 64.6107C105.261 64.4993 105.484 64.6385 105.707 65.1398C105.874 65.5019 105.957 65.8639 105.902 65.9196C105.623 66.1703 104.621 66.3652 104.453 66.1703Z" fill="white"/>
<path d="M111.973 66.1704C111.611 65.8084 111.778 65.5856 112.613 65.2792C113.31 65.0564 113.505 65.0843 113.644 65.4185C113.894 66.0869 112.502 66.7274 111.973 66.1704Z" fill="white"/>
<path d="M114.424 65.5297C114.145 65.0841 114.535 64.6942 115.259 64.6942C116.123 64.6942 116.373 65.4183 115.593 65.6411C114.758 65.8639 114.619 65.836 114.424 65.5297Z" fill="white"/>
<path d="M116.791 64.8615C116.791 64.4437 117.292 63.9981 117.515 64.2209C117.71 64.4159 117.32 65.2514 117.041 65.2514C116.902 65.2514 116.791 65.0843 116.791 64.8615Z" fill="white"/>
<path d="M101.39 64.4994C101.279 64.4158 101.195 64.0538 101.223 63.7475C101.223 63.2183 101.251 63.2183 101.501 63.831C101.78 64.4994 101.724 64.8336 101.39 64.4994Z" fill="white"/>
<path d="M101.919 64.0816C101.669 63.1069 101.697 63.0233 102.421 63.0233C103.228 63.0233 103.73 64.0537 103.117 64.4436C102.476 64.8335 102.114 64.7221 101.919 64.0816Z" fill="white"/>
<path d="M111.499 64.6385C111.499 64.555 111.639 64.1094 111.806 63.6081C112.196 62.4941 113.059 62.4384 113.254 63.5246C113.337 63.9423 113.365 64.3044 113.337 64.3322C113.198 64.4993 111.499 64.7499 111.499 64.6385Z" fill="white"/>
<path d="M103.897 63.9423C103.785 63.8588 103.702 63.5246 103.702 63.2183C103.702 62.7727 103.785 62.7448 104.119 63.0233C104.342 63.2183 104.537 63.5524 104.537 63.7474C104.537 64.1651 104.203 64.2765 103.897 63.9423Z" fill="white"/>
<path d="M113.922 63.3853C113.755 62.522 114.117 62.1321 114.981 62.2435C115.399 62.2992 115.538 62.5498 115.538 63.1625C115.538 63.8587 115.426 64.0258 114.814 64.0815C114.201 64.1651 114.062 64.0258 113.922 63.3853Z" fill="white"/>
<path d="M116.652 63.4967C116.29 62.3828 116.401 62.0486 117.153 61.965C117.821 61.8815 117.905 61.965 117.905 62.6891C117.905 63.3018 117.738 63.5524 117.32 63.6638C117.014 63.7474 116.707 63.6638 116.652 63.4967Z" fill="white"/>
<path d="M100.972 61.9093C100.972 61.3802 101.028 61.1574 101.112 61.4359C101.167 61.6866 101.167 62.1321 101.112 62.4106C101.028 62.6613 100.972 62.4385 100.972 61.9093Z" fill="white"/>
<path d="M101.669 62.2714C101.307 61.9372 101.474 60.851 101.919 60.6839C102.56 60.4333 102.866 60.7396 102.866 61.6587C102.866 62.2435 102.727 62.4663 102.365 62.4663C102.086 62.4663 101.752 62.3828 101.669 62.2714Z" fill="white"/>
<path d="M103.34 61.5195C103.228 61.1018 103.172 60.6562 103.284 60.5726C103.562 60.2941 103.729 60.7397 103.646 61.5473L103.562 62.3271L103.34 61.5195Z" fill="white"/>
<path d="M112.335 61.3245C112.335 61.0182 112.474 60.8511 112.613 60.9346C112.781 61.0182 112.892 61.2967 112.892 61.5195C112.892 61.7423 112.781 61.9094 112.613 61.9094C112.474 61.9094 112.335 61.6587 112.335 61.3245Z" fill="white"/>
<path d="M113.588 61.6866C113.198 61.2689 113.505 60.5169 114.145 60.3498C114.953 60.1549 114.981 60.1549 115.231 60.9625C115.398 61.4638 115.287 61.5752 114.563 61.6866C114.117 61.7702 113.672 61.7423 113.588 61.6866Z" fill="white"/>
<path d="M116.151 61.1575C115.844 60.879 115.928 59.96 116.234 59.96C116.401 59.96 116.513 59.8486 116.513 59.6815C116.513 59.5422 116.345 59.403 116.123 59.403C115.649 59.403 115.259 58.0383 115.649 57.6485C116.151 57.1472 116.707 57.6763 117.042 59.0409C117.237 59.765 117.432 60.6005 117.515 60.879C117.627 61.241 117.515 61.3524 116.986 61.3524C116.624 61.3524 116.234 61.2689 116.151 61.1575Z" fill="white"/>
<path d="M117.654 59.6814C117.459 58.8459 116.958 57.1749 116.596 55.9495C116.039 54.1672 115.983 53.7216 116.29 53.5266C116.485 53.3874 116.735 53.276 116.819 53.276C117.125 53.276 118.239 58.9851 118.128 60.0991L118.044 61.2131L117.654 59.6814Z" fill="white"/>
<path d="M100.694 59.5421C100.694 59.0965 100.75 58.9294 100.833 59.2079C100.889 59.4586 100.889 59.8485 100.833 60.0434C100.75 60.2105 100.694 60.0156 100.694 59.5421Z" fill="white"/>
<path d="M101.251 59.4865C101.362 58.5117 102.17 58.2889 102.393 59.1801C102.588 59.9042 102.643 59.8207 101.808 60.0991C101.223 60.2662 101.167 60.2105 101.251 59.4865Z" fill="white"/>
<path d="M113.003 59.2359C112.78 58.4282 113.254 57.9548 114.145 58.0662C114.813 58.1497 115.064 59.3473 114.507 59.7093C113.811 60.1549 113.17 59.9599 113.003 59.2359Z" fill="white"/>
<path d="M102.866 59.013C102.866 58.5396 103.005 58.2889 103.312 58.2889C103.59 58.2889 103.702 58.4839 103.646 58.9016C103.507 59.7928 102.866 59.8764 102.866 59.013Z" fill="white"/>
<path d="M100.388 57.8434C100.388 57.537 100.471 57.4535 100.555 57.6763C100.638 57.8712 100.61 58.1219 100.527 58.2054C100.443 58.3168 100.36 58.1497 100.388 57.8434Z" fill="white"/>
<path d="M100.917 57.7598C100.917 57.342 101.084 57.1749 101.502 57.1749C101.891 57.1749 102.031 57.3142 101.975 57.6484C101.836 58.3725 100.917 58.456 100.917 57.7598Z" fill="white"/>
<path d="M102.448 57.5091C102.253 57.0078 102.253 57.0078 103.089 56.785C103.59 56.6179 103.702 56.7015 103.702 57.1192C103.702 57.7876 102.699 58.1218 102.448 57.5091Z" fill="white"/>
<path d="M112.53 57.1193C112.335 56.4231 112.697 56.061 113.672 56.061C114.145 56.061 114.284 56.2281 114.284 56.7573C114.284 57.175 114.117 57.4535 113.895 57.4535C113.672 57.4535 113.31 57.5371 113.087 57.6206C112.836 57.7041 112.641 57.5371 112.53 57.1193Z" fill="white"/>
<path d="M114.953 56.4788C114.73 55.9218 115.064 55.504 115.705 55.504C116.095 55.504 116.234 55.699 116.234 56.2003C116.234 56.7016 116.095 56.8965 115.677 56.8965C115.371 56.8965 115.036 56.7016 114.953 56.4788Z" fill="white"/>
<path d="M100.638 56.0889C100.638 55.5041 101.279 54.8357 101.557 55.142C101.669 55.2256 101.752 55.6155 101.752 55.9775C101.752 56.4231 101.585 56.618 101.195 56.618C100.833 56.618 100.638 56.4231 100.638 56.0889Z" fill="white"/>
<path d="M102.17 55.7546C101.947 55.0584 102.198 54.752 103.145 54.6128C104.008 54.5014 104.286 55.4204 103.535 55.9774C102.81 56.5065 102.365 56.423 102.17 55.7546Z" fill="white"/>
<path d="M112.251 55.5876C112.056 55.4205 111.973 54.3901 112.14 54.3901C112.168 54.3901 112.585 54.2787 113.087 54.1394C113.922 53.8888 113.978 53.9166 113.95 54.6685C113.922 55.2255 113.755 55.504 113.337 55.6154C112.585 55.8104 112.474 55.8104 112.251 55.5876Z" fill="white"/>
<path d="M111.221 54.9469C111.221 54.752 111.305 54.6684 111.416 54.752C111.5 54.8634 111.5 55.0305 111.416 55.1419C111.305 55.2254 111.221 55.1419 111.221 54.9469Z" fill="white"/>
<path d="M114.34 54.5014C114.424 54.028 115.287 53.3317 115.482 53.5545C115.566 53.6381 115.705 53.9723 115.788 54.3343C115.983 54.8913 115.9 54.947 115.12 54.947C114.452 54.947 114.257 54.8356 114.34 54.5014Z" fill="white"/>
<path d="M100.917 54.4735C100.917 54.3343 101.056 54.0558 101.195 53.833C101.418 53.4988 101.474 53.5267 101.474 54.0558C101.474 54.39 101.362 54.6685 101.195 54.6685C101.056 54.6685 100.917 54.5849 100.917 54.4735Z" fill="white"/>
<path d="M101.752 53.8608C101.752 53.0811 102.337 52.8304 102.783 53.4153C103.061 53.833 103.061 53.9722 102.783 54.1672C102.198 54.5292 101.752 54.4178 101.752 53.8608Z" fill="white"/>
<path d="M110.218 53.4988C109.717 52.9418 109.717 52.914 110.191 53.0811C110.469 53.1925 110.831 53.276 110.97 53.276C111.11 53.276 111.221 53.471 111.221 53.6938C111.221 54.2786 110.831 54.2229 110.218 53.4988Z" fill="white"/>
<path d="M104.231 53.4711C103.033 52.5521 102.866 50.4912 103.98 50.4912C104.732 50.4912 105.428 51.6609 105.317 52.747C105.233 53.7496 104.899 53.9724 104.231 53.4711Z" fill="white"/>
<path d="M111.862 53.6381C111.973 53.5546 112.14 53.5546 112.251 53.6381C112.335 53.7495 112.251 53.833 112.057 53.833C111.862 53.833 111.778 53.7495 111.862 53.6381Z" fill="white"/>
<path d="M116.067 52.5519C116.15 52.3013 116.234 52.0506 116.234 51.9949C116.234 51.9392 116.373 51.8835 116.512 51.8835C116.68 51.8835 116.791 52.1342 116.791 52.4405C116.791 52.7747 116.596 52.9975 116.345 52.9975C116.039 52.9975 115.955 52.8583 116.067 52.5519Z" fill="white"/>
<path d="M101.474 52.4685C101.474 51.8279 102.059 50.7697 102.393 50.7697C102.978 50.7697 102.56 52.552 101.947 52.6634C101.697 52.7191 101.474 52.6356 101.474 52.4685Z" fill="white"/>
<path d="M107.74 52.162L106.904 51.967L107.656 51.7721C108.436 51.5493 108.993 51.7164 108.993 52.1898C108.993 52.4683 108.965 52.4683 107.74 52.162Z" fill="white"/>
<path d="M106.765 50.8252C106.765 49.6834 107.406 49.5163 107.991 50.5189C108.38 51.1873 108.408 51.3265 108.046 51.3265C107.823 51.3265 107.461 51.4101 107.211 51.4936C106.877 51.6329 106.765 51.4658 106.765 50.8252Z" fill="white"/>
<path d="M111.611 51.2152C110.358 50.6582 109.55 49.1822 109.55 47.4277C109.55 46.1745 109.661 45.8681 110.413 45.1719C110.887 44.7263 111.36 44.3643 111.5 44.3643C112.112 44.3643 114.368 46.5087 115.12 47.8454L115.983 49.3772L115.064 50.3519C114.006 51.4659 112.836 51.7722 111.611 51.2152Z" fill="white"/>
<path d="M105.79 50.491C105.707 50.3518 105.762 50.2125 105.902 50.2125C106.069 50.2125 106.208 50.3518 106.208 50.491C106.208 50.6581 106.152 50.7695 106.097 50.7695C106.013 50.7695 105.874 50.6581 105.79 50.491Z" fill="white"/>
<path d="M102.142 50.0456C102.226 49.7949 102.309 49.5443 102.309 49.4886C102.309 49.4329 102.56 49.3772 102.866 49.3772C103.562 49.3772 103.59 49.8228 102.894 50.2127C102.142 50.6026 101.947 50.5747 102.142 50.0456Z" fill="white"/>
<path d="M104.342 49.7113C103.702 49.6277 103.507 49.2657 103.925 49.015C104.036 48.9315 104.537 48.7922 105.039 48.6809C105.791 48.5138 105.93 48.5695 105.93 49.0429C105.93 49.6277 105.345 49.8784 104.342 49.7113Z" fill="white"/>
<path d="M106.487 48.7644C106.487 48.4302 106.514 48.2352 106.57 48.2909C106.598 48.3466 106.821 48.6251 107.016 48.9036C107.35 49.2935 107.322 49.3771 106.932 49.3771C106.654 49.3771 106.487 49.1543 106.487 48.7644Z" fill="white"/>
<path d="M102.588 48.5694C102.588 48.4023 102.727 48.2074 102.866 48.1238C103.033 48.0403 103.145 48.1517 103.145 48.3745C103.145 48.6251 103.033 48.82 102.866 48.82C102.727 48.82 102.588 48.7086 102.588 48.5694Z" fill="white"/>
<path d="M103.618 48.1517C103.395 47.5947 105.373 46.982 105.707 47.5112C105.957 47.9568 105.707 48.1517 104.648 48.3745C104.008 48.5138 103.729 48.4581 103.618 48.1517Z" fill="white"/>
<path d="M106.236 47.2605C106.236 46.9542 106.319 46.8706 106.403 47.0934C106.487 47.2883 106.459 47.539 106.375 47.6225C106.292 47.7339 106.208 47.5668 106.236 47.2605Z" fill="white"/>
<path d="M103.869 46.815C104.203 46.2023 105.178 45.1997 105.428 45.1997C105.707 45.1997 105.735 46.5086 105.456 46.6757C105.317 46.7314 104.871 46.8707 104.454 46.9821C103.841 47.1213 103.702 47.0935 103.869 46.815Z" fill="white"/>
<path d="M106.097 46.1745C105.79 45.339 105.93 44.977 106.598 44.8656C107.294 44.7264 107.294 44.7264 106.849 45.5897C106.292 46.7037 106.319 46.7037 106.097 46.1745Z" fill="white"/>
<path d="M105.93 44.5035C105.93 44.4478 106.487 44.0579 107.183 43.668C108.018 43.1667 108.603 42.9996 109.021 43.111C109.522 43.2781 109.383 43.3895 108.158 43.9743C106.793 44.587 105.93 44.8098 105.93 44.5035Z" fill="white"/>
<path d="M121.386 19.8289C120.634 18.7428 119.047 16.9883 117.905 15.93C116.763 14.8718 116.011 14.0084 116.234 14.0084C116.847 14.0084 121.525 15.2895 122.695 15.7908C123.67 16.2085 123.698 16.2642 123.447 17.1276C123.308 17.6288 123.196 18.8821 123.196 19.9125C123.196 20.9708 123.113 21.8063 123.001 21.8063C122.862 21.8063 122.166 20.9151 121.386 19.8289Z" fill="white"/>
<path d="M64.7125 104.185C63.5707 103.6 63.3201 103.266 61.8719 100.397C59.7832 96.3312 59.7275 95.3843 61.7048 97.6958C62.4846 98.6149 64.2948 100.509 65.7151 101.901C68.138 104.24 68.2494 104.408 67.4418 104.296C66.8569 104.213 66.6341 104.268 66.7734 104.491C67.1076 104.992 66.0493 104.853 64.7125 104.185Z" fill="white"/>
<path fill-rule="evenodd" clip-rule="evenodd" d="M111.385 154.924C111.154 154.375 111.411 153.743 111.96 153.512L112.56 153.257C118.394 150.761 121.742 149.262 124.017 146.881C126.293 144.5 126.565 141.003 126.992 138.875C127.11 138.291 128.432 139.316 129.016 139.434C129.6 139.551 129.978 140.119 129.861 140.703C129.347 143.262 127.963 145.701 125.735 148.016C123.514 150.324 119.215 152.797 112.797 155.5C112.248 155.731 111.616 155.473 111.385 154.924Z" fill="#00160A"/>
<path fill-rule="evenodd" clip-rule="evenodd" d="M137.765 43.8048C138.277 43.5001 138.939 43.668 139.244 44.1798C142.294 49.3046 143.929 55.1628 143.929 61.2578C143.929 79.7228 128.96 94.6917 110.495 94.6917C105.588 94.6917 100.829 93.6333 96.4714 91.6171C95.9308 91.367 93.8887 89.3755 95.9455 90.1854C98.0022 90.9954 105.96 92.8134 110.552 92.8134C127.826 92.8134 140.046 78.5315 140.046 61.2578C140.046 55.5539 137.765 50.4911 137.39 45.2832C137.347 44.6795 137.254 44.1094 137.765 43.8048Z" fill="#00160A"/>
<path fill-rule="evenodd" clip-rule="evenodd" d="M30.952 125.432C31.3332 124.974 32.0133 124.049 32.4709 124.43C34.3485 125.994 36.3521 127.806 38.4952 128.156C40.7254 128.52 43.3712 128.52 46.4291 128.15C47.0205 128.078 47.5579 128.499 47.6294 129.091C47.701 129.682 47.2797 130.219 46.6884 130.291C43.441 130.684 40.5953 130.684 38.1479 130.285C35.6134 129.871 33.2563 128.755 31.0904 126.951C30.6328 126.569 30.5708 125.889 30.952 125.432Z" fill="#00160A"/>
<path d="M53.8511 87.6979C52.4586 86.5839 49.4787 83.2977 47.2229 80.4013C46.0532 78.8696 44.7443 75.7505 43.9645 72.6035C43.6025 71.1832 43.2404 69.9021 43.1569 69.735C43.0455 69.5958 42.5999 67.6185 42.1543 65.3348C41.4859 62.1043 41.6273 61.0635 41.0403 57.1993C40.7918 55.5633 40.5669 54.2614 40.5669 54.2614L41.291 53.3317C41.7087 52.7747 42.2371 51.853 42.4328 51.3266C43.324 48.9286 49.8686 41.4122 50.0635 41.6071C50.1192 41.6628 49.8964 42.9717 49.5066 44.5035C49.1445 46.0352 48.6989 48.3467 48.504 49.6556C48.2255 51.8278 48.1141 52.0785 47.2508 52.8026C46.1646 53.7216 44.1038 56.6736 44.1038 57.2863C44.1038 58.1218 45.357 57.5648 46.6659 56.2002L48.0027 54.8077V56.3394C48.0027 57.342 47.8077 58.2611 47.4457 58.9851C46.7495 60.3498 46.7495 61.7979 47.4178 62.9119C47.752 63.4689 48.0584 64.8057 48.2533 66.3931C49.1167 73.5782 50.9547 79.8165 54.1017 86.0826C54.8815 87.6422 55.4942 88.9233 55.4663 88.9233C55.4106 88.9233 54.6865 88.3663 53.8511 87.6979Z" fill="white"/>
<path fill-rule="evenodd" clip-rule="evenodd" d="M169.732 104.881L171.738 105.772C172.153 105.964 176.74 108.168 182.25 110.815C191.133 115.084 202.415 120.504 202.483 120.504C202.595 120.504 203.117 119.296 203.235 117.887C203.514 114.851 204.544 110.729 205.742 107.861C206.299 106.58 206.744 104.979 206.744 104.839C206.744 104.776 206.292 104.593 205.55 104.294C204.668 103.938 203.377 103.418 201.954 102.737C194.936 99.3668 181.206 92.488 179.508 91.4576C177.837 90.4828 177.502 90.3993 177.502 91.0398C177.502 91.8753 175.804 95.7464 174.495 97.8351C173.798 98.9769 172.434 101.038 171.459 102.402L169.732 104.881ZM202.01 115.492C202.809 115.954 201.425 116.633 201.091 116.745C199.123 116.912 196.807 116.542 194.908 115.436C193.916 114.732 186.101 110.391 180.918 107.511C178.548 106.194 176.728 105.183 176.361 104.965C175.191 104.268 174.077 103.516 173.882 103.294C173.297 102.542 173.854 102.207 175.497 102.347C176.485 102.43 200.285 114.492 202.01 115.492Z" fill="white"/>
<path d="M149.737 107.387C149.013 107.137 148.233 106.58 147.731 105.939L146.896 104.909L149.848 101.985C154.387 97.5287 157.729 92.6589 160.737 87.2283C161.74 85.4181 164.72 78.1176 165.082 77.31C165.639 76.1403 166.056 75.6947 167.254 75.0264C168.674 74.1909 170.289 73.9124 170.986 74.3858C172.323 75.277 172.323 78.0898 170.986 82.9356C169.51 88.2548 167.532 92.0702 163.439 97.5565C162.798 98.392 161.6 100.035 160.737 101.177C158.426 104.24 156.922 105.716 154.889 106.858C152.884 107.972 151.714 108.111 149.737 107.387Z" fill="white"/>
<path d="M160.236 106.747L159.651 106.162C159.651 106.162 169.358 93.8295 171.097 89.2853C172.425 85.8175 173.206 84.8341 174.26 84.8341C174.849 84.8341 175.33 84.9686 175.553 85.3028C175.943 85.8877 176.319 86.6118 175.817 89.0904C174.982 93.1007 173.701 95.7464 169.858 101.455C168.966 102.764 167.825 104.213 167.323 104.714C166.154 105.8 163.522 106.914 161.99 107.165C161.016 107.304 160.737 107.248 160.236 106.747Z" fill="white"/>
<path fill-rule="evenodd" clip-rule="evenodd" d="M176.541 93.851C177.102 92.5661 177.503 91.4453 177.503 91.0398C177.503 90.3993 177.837 90.4828 179.508 91.4576C181.207 92.488 194.936 99.3668 201.954 102.737C204.572 103.99 206.745 104.7 206.745 104.839C206.745 104.979 175.945 95.2133 176.541 93.851Z" fill="#E7EAEE"/>
<path fill-rule="evenodd" clip-rule="evenodd" d="M81.2549 95.44C77.718 93.1285 72.3709 87.6978 69.7809 83.8268C66.0769 78.2569 63.6262 72.2971 62.4287 65.8918C61.5653 61.2409 61.5932 54.0836 62.4565 49.9341C63.3477 45.7009 64.4895 42.4704 66.5225 38.3766C68.8897 33.6422 71.3962 30.161 75.1558 26.4013C78.8427 22.7145 62.4565 37.9612 66.5225 65.2408C69.7809 88.101 83.7842 97.1065 81.2549 95.44Z" fill="#E7EAEE"/>
</svg>
