<svg width="245" height="197" viewBox="0 0 245 197" fill="none" xmlns="http://www.w3.org/2000/svg">
<path fill-rule="evenodd" clip-rule="evenodd" d="M171.037 0.485862C128.955 -6.41781 133.246 62.6878 77.2532 53.2293C19.9822 43.5549 2.86495 111.802 19.9822 149.5C38.4698 190.215 156.85 212.103 199.201 182.089C246.867 148.308 249.994 13.4391 171.037 0.485862Z" fill="#5287DE"/>
<path fill-rule="evenodd" clip-rule="evenodd" d="M77.5786 74.6754C77.5786 74.6754 82.4105 85.211 86.6072 90.095C92.5626 97.0258 101.067 102.783 104.26 108.189C111.848 121.033 108.483 127.316 108.483 127.316C108.483 127.316 104.474 113.47 98.7281 106.707C94.3426 101.546 85.7291 95.8214 82.8499 91.5826C77.6634 83.947 74.9841 76.6319 74.9841 76.6319L77.5786 74.6754Z" fill="white"/>
<path d="M137.234 186.813C117.422 187.738 97.6241 188.966 77.8495 190.495C75.3135 190.745 73.4374 190.783 73.5376 191.052C71.7548 190.938 68.532 189.969 66.6586 190.745C68.0699 191.072 70.7375 192.32 70.896 193.76C52.2349 194.836 33.4703 194.11 14.9482 191.594C33.0835 192.831 51.2742 193.255 69.4474 192.866C67.1054 191.294 64.0936 190.759 61.3536 191.428C64.8854 189.72 68.9784 189.2 72.8252 189.969C69.89 186.685 67.9448 182.528 67.3046 178.17C70.2367 180.176 72.5817 183.029 73.9811 186.294C73.8473 180.157 78.1901 174.194 84.0721 172.438C80.3158 177.222 78.3302 183.365 78.5759 189.443C97.3551 187.838 116.175 186.716 135.012 186.078C134.082 185.341 133.45 184.238 133.283 183.063C134.204 182.277 135.564 182.046 136.693 182.484C137.522 175.923 142.086 169.964 148.205 167.456C144.797 171.306 142.429 176.067 141.417 181.108C142.468 180.471 143.799 180.317 144.969 180.697C144.635 182.118 143.801 183.417 142.648 184.311C165.971 178.981 190.455 188.063 214.147 184.731C202.187 188.599 189.264 185.601 176.762 184.3C158.461 182.484 140.883 186.078 137.234 186.813Z" fill="white"/>
<path d="M186.585 44.9457C186.79 42.9937 188.471 41.5305 190.194 40.5913C193.312 38.8928 196.982 38.23 200.497 38.7309C202.088 38.9578 203.302 37.4414 204.439 36.3052C207.39 33.356 211.9 32.2793 216.016 32.9606C220.132 33.6419 223.862 35.9156 226.866 38.8109C229.87 41.7062 232.215 45.2096 234.385 48.7729C234.84 49.5204 235.896 49.5402 236.77 49.4974C238.656 49.4048 240.641 49.457 242.289 50.3796C243.937 51.3022 245.095 53.3502 244.428 55.117C244.116 55.9444 243.453 56.604 242.695 57.0606C241.184 57.9714 239.352 58.1281 237.593 58.2625C225.863 59.1582 214.132 60.054 202.401 60.9497C199.192 61.1948 195.931 61.437 192.779 60.784C189.627 60.1311 186.541 58.4512 184.928 55.6658C183.314 52.8805 183.584 48.9128 186.059 46.8551C186.582 46.4204 186.514 45.6221 186.585 44.9457" fill="white"/>
<path d="M147.32 62.9187C149.88 65.8599 163.096 64.83 163.525 70.2107C162.01 70.626 160.496 71.0413 158.982 71.4566C156.521 72.1318 154.031 72.8182 151.804 74.0658C150.759 74.6512 149.517 75.3749 148.454 74.8226C144.344 72.6868 139.565 72.0231 134.954 72.464C130.344 72.9049 125.884 74.4071 121.7 76.3935C119.516 77.4305 117.054 78.6281 114.793 77.7708C106.539 74.6411 97.1216 74.6958 88.904 77.9214C87.4471 78.4932 85.8228 77.8586 84.389 77.2312C82.8382 76.5526 81.2874 75.874 79.7366 75.1954C81.7367 72.9078 90.2871 69.7254 92.0303 67.5114C92.3366 67.1223 103.754 59.2049 116.274 62.7822C116.835 62.519 136.306 59.2049 147.32 62.9187Z" fill="white"/>
<path fill-rule="evenodd" clip-rule="evenodd" d="M96.1449 100.309C88.8853 93.4085 80.504 86.4239 78.5491 76.6009C82.1371 85.8161 90.1048 92.4501 97.0928 99.4473C104.081 106.445 110.7 115.173 110.268 125.052C121.694 122.558 133.534 121.973 145.15 123.33C146.341 117.967 149.807 113.453 152.527 108.68C159.269 96.8489 161.548 83.0754 163.715 69.6314C164.262 66.2325 160.101 64.2178 156.765 63.3677C153.432 62.5186 150.1 61.6696 146.768 60.8206C140.506 59.2249 134.018 57.618 127.649 58.709C123.342 59.4468 119.088 61.4095 114.78 60.6746C107.924 59.5049 100.649 60.9862 94.7956 64.7438C91.853 66.6329 89.2378 69.0817 86.0257 70.4638C79.2652 73.3726 73.3105 78.1289 68.9796 84.0793C66.7169 72.375 70.5291 60.397 74.9861 49.3406C79.9684 36.9809 86.2227 24.4755 96.9424 16.5589C112.659 4.95191 133.15 7.2111 149.499 17.9088C165.848 28.6064 175.838 46.2472 179.067 65.5166C179.442 67.7579 179.708 70.1836 178.653 72.1963C177.598 74.2089 177.2 75.3735 175.48 73.8888C174.013 72.623 172.452 71.3103 170.55 70.9459C168.647 70.5815 166.339 71.5703 165.97 73.4721C163.268 87.4002 160.431 101.682 152.925 113.721C150.97 116.857 148.694 119.85 147.451 123.329C146.5 125.992 146.193 128.834 145.893 131.645C145.269 137.503 144.644 143.36 144.02 149.218C143.757 151.687 143.39 154.376 141.591 156.088C139.873 157.722 137.317 158.016 134.956 158.226C127.286 158.907 119.615 159.588 111.945 160.27C110.574 160.391 109.018 160.454 108.017 159.509C107.245 158.781 107.031 157.653 106.879 156.603C105.802 149.151 105.802 141.544 106.88 134.092C108.427 123.4 103.642 112.461 96.1052 104.721C92.1776 100.687 87.546 97.3895 83.6248 93.3496C79.7037 89.3096 76.4218 84.2321 76.1865 78.607C78.8547 86 83.7715 92.5646 90.1157 97.2042C99.5966 104.138 106.352 114.701 108.668 126.216C110.489 116.367 103.405 107.209 96.1449 100.309Z" fill="white"/>
<path fill-rule="evenodd" clip-rule="evenodd" d="M76.5265 122.813C75.376 122.182 74.9523 120.767 74.6498 119.491C73.1657 113.227 72.0808 106.869 71.4037 100.467C71.3607 100.06 71.341 99.5903 71.6371 99.3079C72.2715 100.056 72.3835 101.101 72.4809 102.077C73.1809 109.095 74.5372 116.047 76.5265 122.813Z" fill="#00160A"/>
<path fill-rule="evenodd" clip-rule="evenodd" d="M167.759 101.476C168.802 97.989 169.571 94.4205 170.056 90.8138C170.122 90.3255 170.306 89.7112 170.797 89.6733C171.084 89.924 171.056 90.3703 171.002 90.7473C170.54 93.9632 169.88 97.1507 169.028 100.286C168.855 100.922 168.371 101.721 167.759 101.476H167.759Z" fill="#00160A"/>
<path fill-rule="evenodd" clip-rule="evenodd" d="M141.188 185.293C141.757 183.748 142.799 182.381 144.138 181.424C142.715 181.511 141.331 182.13 140.319 183.133C140.877 178.76 142.276 174.496 144.416 170.642C140.456 173.893 137.9 178.799 137.506 183.906C136.562 183.357 135.386 183.224 134.344 183.55C135.307 184.637 136.27 185.725 137.234 186.813C117.422 187.738 97.6241 188.966 77.8495 190.495C76.8214 185.03 78.1583 179.161 81.4519 174.681C77.1057 177.746 74.4226 183.037 74.518 188.355C72.5802 185.77 71.6147 182.077 68.7046 180.6C69.2196 183.133 69.8142 183.703 73.2326 190.246C73.3723 190.514 73.4374 190.783 73.5376 191.052C71.7548 190.938 68.532 189.969 66.6586 190.745C68.0699 191.072 70.7375 192.32 70.896 193.76C52.2349 194.836 33.4703 194.11 14.9482 191.594C33.0835 192.831 51.2742 193.255 69.4474 192.866C67.1054 191.294 64.0936 190.759 61.3536 191.428C64.8854 189.72 68.9784 189.2 72.8252 189.969C69.89 186.685 67.9448 182.528 67.3046 178.17C70.2367 180.176 72.5817 183.029 73.9811 186.294C73.8473 180.157 78.1901 174.194 84.0721 172.438C80.3158 177.222 78.3302 183.365 78.5759 189.443C97.3551 187.838 116.175 186.716 135.012 186.078C134.082 185.341 133.45 184.238 133.283 183.063C134.204 182.277 135.564 182.046 136.693 182.484C137.522 175.923 142.086 169.964 148.205 167.456C144.797 171.306 142.429 176.067 141.417 181.108C142.468 180.471 143.799 180.317 144.969 180.697C144.635 182.118 143.801 183.417 142.648 184.311C165.971 178.981 190.455 188.063 214.147 184.731C202.187 188.599 189.264 185.601 176.762 184.3C164.929 183.068 152.934 183.403 141.188 185.293Z" fill="#00160A"/>
<path fill-rule="evenodd" clip-rule="evenodd" d="M151.69 100.013C151.976 100.434 151.886 100.996 151.771 101.491C151.078 104.465 149.858 107.315 148.183 109.868C147.717 109.287 148.145 108.446 148.538 107.813C149.581 106.129 150.348 104.273 150.798 102.344C150.989 101.525 151.143 100.651 151.69 100.013H151.69Z" fill="#00160A"/>
<path fill-rule="evenodd" clip-rule="evenodd" d="M147.225 105.412C146.795 105.04 146.987 104.349 147.194 103.818C147.857 102.115 148.303 100.327 148.517 98.5114C148.588 97.9095 148.701 97.2011 149.244 96.9315C149.499 97.1624 149.461 97.567 149.402 97.9063C148.952 100.485 148.484 103.117 147.225 105.412Z" fill="#00160A"/>
<path fill-rule="evenodd" clip-rule="evenodd" d="M111.367 115.024C111.493 114.911 111.69 115.027 111.807 115.149C112.332 115.699 112.644 116.446 112.668 117.205C111.966 116.829 111.451 116.121 111.31 115.337C111.29 115.228 111.284 115.098 111.367 115.024L111.367 115.024Z" fill="#00160A"/>
<path fill-rule="evenodd" clip-rule="evenodd" d="M166.615 91.9948C166.428 95.306 165.672 98.5843 164.39 101.643C164.356 101.722 164.321 101.804 164.256 101.86C164.065 102.024 163.744 101.847 163.676 101.605C163.608 101.364 163.705 101.109 163.797 100.876C164.702 98.5865 165.302 96.1774 165.577 93.7315C165.658 93.0043 165.888 92.0798 166.615 91.9948L166.615 91.9948Z" fill="#00160A"/>
<path fill-rule="evenodd" clip-rule="evenodd" d="M110.144 109.313C108.912 107.648 107.921 105.804 107.212 103.857C107.121 103.607 107.176 103.185 107.433 103.254C107.53 103.28 107.588 103.377 107.635 103.465C108.705 105.46 109.775 107.455 110.845 109.449C110.79 109.749 110.325 109.558 110.144 109.313H110.144Z" fill="#00160A"/>
<path fill-rule="evenodd" clip-rule="evenodd" d="M75.0651 74.6992C74.4991 74.4057 74.4764 73.6168 74.5443 72.9828C75.8106 61.1674 81.5629 49.8879 90.3832 41.9248C90.5858 43.4238 89.4288 44.7221 88.4028 45.8336C81.0947 53.7501 76.3573 64.003 75.0651 74.6992Z" fill="#00160A"/>
<path fill-rule="evenodd" clip-rule="evenodd" d="M149.212 74.6875C149.373 70.8081 148.725 66.5384 147.32 62.9187C149.88 65.8598 149.986 70.1392 149.959 74.0387C154.044 71.6094 158.773 70.275 163.525 70.2107C162.01 70.626 160.496 71.0413 158.982 71.4565C156.521 72.1317 154.031 72.8182 151.804 74.0657C150.759 74.6512 149.517 75.3749 148.454 74.8225C144.344 72.6867 139.565 72.023 134.954 72.4639C130.344 72.9048 125.884 74.7654 121.7 76.7518C119.516 77.7888 117.054 78.9864 114.793 78.1291C106.539 74.9994 97.1216 74.6958 88.904 77.9213C87.4471 78.4931 85.8228 77.8585 84.389 77.2311C82.8382 76.5525 81.2874 75.8739 79.7366 75.1954C81.5394 75.5737 86.0161 77.1841 86.0161 77.1841C86.0161 77.1841 87.3057 77.34 87.7116 76.8447C88.1175 76.3494 88.2456 75.6911 88.3919 75.0677C89.0357 72.3243 90.2871 69.7253 92.0303 67.5113C92.3366 67.1223 92.9924 66.7591 93.2365 67.1899C90.824 69.9861 89.2154 73.4681 88.6501 77.1176C97.443 73.8013 107.477 73.906 116.198 77.4051C117.032 72.5797 117.057 67.6159 116.274 62.7821C116.835 62.5189 117.246 63.3548 117.302 63.972C117.704 68.4675 117.632 73.0052 117.087 77.4856C122.131 75.0491 127.362 72.8473 132.893 71.9588C138.424 71.0702 144.327 71.9449 149.212 74.6875Z" fill="#00160A"/>
<path fill-rule="evenodd" clip-rule="evenodd" d="M85.1014 65.0549C87.7383 57.5085 91.8487 50.4802 97.1329 44.482C97.5203 44.0423 97.9809 43.5752 98.5667 43.5553C99.1525 43.5354 99.7024 44.301 99.2891 44.7166C93.2096 50.8288 88.4677 58.2646 85.4901 66.3549C84.9542 66.3691 84.9245 65.5609 85.1014 65.0549H85.1014Z" fill="#00160A"/>
<path fill-rule="evenodd" clip-rule="evenodd" d="M76.7706 99.0366C76.8476 99.1305 76.8565 99.2612 76.8627 99.3825C77.1158 104.408 78.393 109.319 79.6635 114.189C79.7178 114.396 79.4144 114.547 79.2239 114.447C79.0334 114.348 78.95 114.124 78.8837 113.92C77.4016 109.358 76.4557 104.623 76.0716 99.8416C76.0524 99.6033 76.039 99.3462 76.1659 99.1435C76.2928 98.9408 76.6191 98.8516 76.7706 99.0366H76.7706Z" fill="#00160A"/>
<path fill-rule="evenodd" clip-rule="evenodd" d="M116.473 58.2249C115.944 58.2471 115.771 57.5277 115.779 56.9982C115.859 51.4629 115.939 45.9276 116.019 40.3923C116.028 39.7811 116.193 38.9851 116.801 38.9178C117.341 39.5505 117.33 40.4704 117.289 41.3013C117.017 46.9425 116.745 52.5837 116.473 58.2249Z" fill="#00160A"/>
<path fill-rule="evenodd" clip-rule="evenodd" d="M167.44 66.6963C168.613 64.792 168.534 62.3958 168.336 60.168C167.99 56.2659 167.396 52.3857 166.559 48.5586C166.479 48.1918 166.431 47.7295 166.74 47.516C166.995 47.3396 167.368 47.4615 167.568 47.6988C167.768 47.9361 167.838 48.2536 167.899 48.5578C168.859 53.3156 169.297 58.1786 169.201 63.0313C169.165 64.8357 168.869 66.9526 167.285 67.8177C166.981 67.5402 167.224 67.0471 167.44 66.6963H167.44Z" fill="#00160A"/>
<path fill-rule="evenodd" clip-rule="evenodd" d="M148.862 53.8721C149.26 55.6415 149.091 57.534 148.386 59.2048C147.901 58.6845 148.038 57.8684 148.121 57.1625C148.447 54.4205 147.487 51.6899 146.306 49.1938C145.126 46.6977 143.699 44.2876 142.989 41.6191C142.882 41.2176 142.899 40.6362 143.308 40.5652C143.654 40.5053 143.89 40.8964 144.018 41.2228C145.345 44.5841 146.672 47.9454 147.999 51.3067C148.33 52.1468 148.663 52.991 148.862 53.8721Z" fill="#00160A"/>
<path fill-rule="evenodd" clip-rule="evenodd" d="M184.793 43.8706C184.998 41.9186 186.679 40.4554 188.403 39.5163C191.52 37.8177 195.19 37.1549 198.705 37.6559C200.296 37.8827 201.51 36.3664 202.647 35.2301C205.598 32.281 210.108 31.2043 214.224 31.8855C218.341 32.5668 222.07 34.8406 225.074 37.7359C228.078 40.6311 230.423 44.1345 232.593 47.6978C233.048 48.4453 234.104 48.4651 234.978 48.4223C236.865 48.3298 238.85 48.3819 240.497 49.3045C242.145 50.2271 243.303 52.2751 242.636 54.0419C242.324 54.8694 241.661 55.5289 240.903 55.9855C239.393 56.8963 237.561 57.0531 235.802 57.1874C224.071 58.0831 212.34 58.9789 200.61 59.8747C197.4 60.1197 194.14 60.3619 190.988 59.709C187.836 59.056 184.75 57.3761 183.136 54.5908C181.522 51.8054 181.792 47.8378 184.268 45.7801C184.791 45.3453 184.722 44.547 184.793 43.8706M189.237 40.1218C187.833 40.791 186.431 41.7763 185.969 43.2616C185.804 43.7907 185.77 44.3527 185.617 44.8853C185.22 46.2666 184.077 47.3037 183.474 48.6082C182.217 51.3277 183.65 54.7097 186.046 56.5076C188.443 58.3055 191.547 58.8399 194.535 59.0503C205.292 59.8077 215.987 57.0786 226.766 56.8072C231 56.7006 235.369 56.9528 239.33 55.4528C240.829 54.8851 242.477 53.4486 241.833 51.9803C241.671 51.6094 241.378 51.3119 241.071 51.0478C239.175 49.417 236.459 48.7931 234.041 49.4328C232.808 49.759 231.778 48.5082 231.103 47.4261C228.165 42.7179 224.839 38.025 220.093 35.1487C215.347 32.2723 208.84 31.6433 204.425 35.006C202.441 36.5171 200.596 38.865 198.116 38.6019C195.092 38.2812 191.982 38.8135 189.237 40.1218Z" fill="#00160A"/>
<path fill-rule="evenodd" clip-rule="evenodd" d="M24.9607 26.3266C24.5649 27.5622 25.0639 28.8919 25.6048 30.0711C26.2335 31.4416 27.2667 32.9876 28.7716 32.8926C33.4185 32.5991 38.0655 32.3056 42.7125 32.0122C43.3858 31.9696 44.312 32.1452 44.316 32.8198C38.4888 33.2862 32.6615 33.7526 26.8342 34.219C22.9144 34.5328 18.8157 34.9045 15.5059 37.0279C12.1962 39.1513 10.0388 43.6284 11.8241 47.1321C12.5006 48.4597 13.8282 49.5695 15.3175 49.5251C19.3312 49.4056 23.345 49.286 27.3587 49.1665C28.2939 49.1387 29.5737 49.4339 29.5318 50.3685C23.1532 49.9874 16.7369 50.2397 10.4079 51.1204C8.1357 51.4366 5.79835 51.863 3.89286 53.1406C1.98737 54.4181 0.618193 56.7637 1.15174 58.995C1.52 60.5349 2.72633 61.7718 4.12133 62.5209C5.51633 63.27 7.09542 63.5946 8.65697 63.8568C25.2168 66.6373 42.2052 63.3852 58.9528 64.5999C60.8266 64.7358 62.8553 64.9988 64.1899 66.3211C49.7412 63.5478 34.8405 66.6428 20.1444 65.9474C16.8733 65.7927 13.6144 65.4498 10.3576 65.1071C7.69188 64.8266 4.89895 64.5005 2.69988 62.9679C1.64181 62.2306 0.75486 61.2118 0.312249 60.0005C-0.784263 56.9996 1.15073 53.5713 3.87736 51.9059C6.60398 50.2406 9.91262 49.9108 13.0944 49.6215C10.4939 47.842 9.72078 44.0938 10.8459 41.1505C11.971 38.2071 14.647 36.0611 17.58 34.9093C20.513 33.7575 23.7086 33.4793 26.8561 33.331C25.9279 32.1152 24.9859 30.8744 24.467 29.4355C23.9482 27.9966 23.9099 26.3017 24.7378 25.0155C25.3135 24.121 26.2369 23.5155 27.1582 22.9839C35.972 17.8983 46.6261 17.3078 56.7987 17.56C59.5628 17.6286 62.4172 17.7719 64.9031 18.9825C68.7596 20.8606 71.1037 25.203 71.127 29.4923C71.1504 33.7817 69.0748 37.9206 66.0244 40.9362C65.5346 40.2574 66.147 39.355 66.6836 38.7126C69.1687 35.7377 70.5806 31.7715 70.052 27.9314C69.5233 24.0914 66.8886 20.4996 63.2158 19.2603C61.6811 18.7424 60.0425 18.633 58.4249 18.5506C47.906 18.0146 36.8819 18.5651 27.6693 23.6702C26.5352 24.2987 25.3562 25.0918 24.9607 26.3266Z" fill="#00160A"/>
<path fill-rule="evenodd" clip-rule="evenodd" d="M96.1449 100.309C88.8853 93.4085 80.504 86.4239 78.5491 76.6009C82.1371 85.8161 90.1048 92.4501 97.0928 99.4474C104.081 106.445 110.7 115.173 110.268 125.052C121.694 122.558 133.534 121.973 145.15 123.33C146.341 117.967 149.807 113.453 152.527 108.68C159.269 96.8489 161.548 83.0754 163.715 69.6314C164.262 66.2325 160.101 64.2178 156.765 63.3677C153.432 62.5186 150.1 61.6696 146.768 60.8206C140.506 59.2249 134.018 57.618 127.649 58.709C123.342 59.4468 119.088 61.4095 114.78 60.6746C107.924 59.5049 100.649 60.9862 94.7957 64.7439C91.853 66.6329 89.2649 69.2 86.0257 70.4638C79.0121 73.2 74.9841 76.514 68.9796 84.0793C66.7169 72.375 70.5291 60.397 74.9861 49.3406C79.9684 36.9809 86.2227 24.4755 96.9424 16.5589C112.659 4.95191 135.659 6.13604 152.008 16.8337C168.357 27.5314 178.347 46.2472 181.575 65.5166C181.951 67.7579 182.217 70.1836 181.162 72.1963C180.107 74.2089 177.2 75.3735 175.48 73.8888C174.013 72.623 172.452 71.3103 170.55 70.9459C168.647 70.5815 166.339 71.5703 165.97 73.4721C163.268 87.4002 160.431 101.682 152.925 113.721C150.97 116.857 148.694 119.85 147.451 123.329C146.5 125.992 146.193 128.834 145.893 131.645C145.269 137.503 144.644 143.36 144.02 149.218C143.757 151.687 143.39 154.376 141.591 156.088C139.873 157.722 137.317 158.016 134.956 158.226C127.286 158.907 119.616 159.588 111.945 160.27C110.574 160.391 109.018 160.454 108.017 159.509C107.245 158.781 107.031 157.653 106.879 156.603C105.802 149.151 105.802 141.544 106.88 134.092C108.427 123.4 103.642 112.461 96.1052 104.721C92.1776 100.687 87.546 97.3895 83.6248 93.3496C79.7037 89.3096 76.4218 84.2321 76.1865 78.607C78.8547 86 83.7715 92.5646 90.1157 97.2042C99.5966 104.138 106.352 114.701 108.668 126.216C110.489 116.367 103.405 107.209 96.1449 100.309ZM112.428 59.3156C115.513 59.6169 118.743 60.3837 121.622 59.2355C129.374 56.1435 138.367 56.307 146.002 59.6789C149.261 61.1179 152.929 61.1972 156.437 61.8113C159.946 62.4254 163.65 63.8255 165.437 66.9071C167.443 70.3677 173.339 69.4112 175.623 72.6947C176.571 74.0564 178.901 73.5375 179.798 72.1421C180.695 70.7467 180.574 68.9505 180.374 67.3038C178.742 53.9002 173.833 40.7583 165.362 30.2434C156.891 19.7286 144.738 11.9964 131.406 9.85859C118.074 7.72082 103.688 11.4998 93.8201 20.7166C87.8475 26.2952 83.705 33.5323 80.0651 40.8496C73.7255 53.5939 68.536 67.5073 69.56 81.7045C73.8148 76.5558 78.437 71.1537 84.8187 69.1823C86.3426 68.7115 88.0124 68.4091 89.169 67.3108C95.2998 61.489 104.013 58.4938 112.428 59.3156ZM119.247 147.158C119.223 150.58 119.736 154.006 120.761 157.272C120.848 157.551 120.956 157.851 121.204 158.006C121.445 158.156 121.752 158.128 122.034 158.094C125.464 157.684 128.894 157.273 132.324 156.863C132.45 156.848 132.59 156.825 132.665 156.723C132.743 156.617 132.72 156.471 132.692 156.342C132.075 153.441 131.457 150.539 130.84 147.638C130.805 147.475 130.766 147.302 130.651 147.181C130.509 147.033 130.289 146.998 130.086 146.973C126.717 146.546 123.314 146.387 119.919 146.498C119.721 146.505 119.498 146.523 119.368 146.673C119.256 146.801 119.248 146.987 119.247 147.158ZM130.132 135.064C130.019 134.909 129.805 134.879 129.615 134.862C126.157 134.556 122.667 134.606 119.22 135.011C119.02 135.035 118.808 135.064 118.654 135.193C118.4 135.404 118.399 135.785 118.418 136.114C118.533 138.067 118.648 140.02 118.763 141.973C118.791 142.45 118.977 143.079 119.454 143.055C122.836 142.886 126.232 143.01 129.592 143.425C130.054 143.483 130.232 142.845 130.232 142.379C130.228 140.077 130.224 137.776 130.22 135.474C130.22 135.332 130.216 135.179 130.132 135.064ZM108.696 148.333C108.435 148.452 108.168 148.585 107.991 148.81C107.709 149.169 107.721 149.669 107.746 150.125C107.835 151.723 107.923 153.322 108.012 154.921C108.057 155.729 108.104 156.552 108.378 157.314C108.653 158.076 109.191 158.784 109.951 159.066C110.576 159.299 111.269 159.221 111.932 159.139C113.186 158.985 114.439 158.831 115.693 158.677C116.208 158.614 116.741 158.544 117.182 158.271C116.007 154.701 115.226 151.003 114.858 147.263C114.832 147.001 114.48 146.939 114.217 146.956C112.314 147.076 110.433 147.545 108.696 148.333ZM142.433 144.053C142.804 141.758 143.175 139.464 143.546 137.169C143.579 136.968 143.606 136.744 143.488 136.578C143.368 136.409 143.142 136.363 142.938 136.331C140.22 135.894 137.495 135.5 134.764 135.149C134.56 135.122 134.311 135.114 134.193 135.284C134.122 135.385 134.124 135.518 134.13 135.641C134.228 138.033 134.327 140.425 134.426 142.817C134.435 143.036 134.455 143.28 134.619 143.425C134.734 143.527 134.895 143.556 135.048 143.581C137.34 143.951 139.632 144.321 141.924 144.691C142.225 144.74 142.384 144.353 142.433 144.053ZM118.603 130.517C118.554 130.782 118.537 131.12 118.773 131.25C118.885 131.312 119.023 131.301 119.151 131.289C122.746 130.944 126.34 130.599 129.935 130.253C130.12 130.236 130.316 130.214 130.465 130.103C130.669 129.951 130.731 129.679 130.779 129.43C131.072 127.914 131.365 126.398 131.658 124.882C131.7 124.666 131.725 124.403 131.554 124.266C131.435 124.17 131.265 124.178 131.112 124.191C127.666 124.479 124.221 124.768 120.775 125.056C120.494 125.08 120.2 125.107 119.962 125.259C119.559 125.516 119.437 126.039 119.349 126.509C119.101 127.845 118.852 129.181 118.603 130.517ZM134.798 125.531C134.663 126.845 134.529 128.16 134.394 129.474C134.372 129.69 134.353 129.922 134.458 130.113C134.614 130.394 134.973 130.476 135.29 130.529C138.174 131.015 141.058 131.501 143.942 131.986C144.062 132.007 144.189 132.026 144.301 131.978C144.513 131.887 144.561 131.612 144.576 131.381C144.691 129.685 144.717 127.983 144.653 126.284C144.642 125.991 144.627 125.691 144.508 125.423C144.146 124.611 143.071 124.476 142.182 124.458C140.1 124.416 138.018 124.374 135.936 124.331C135.72 124.327 135.494 124.325 135.302 124.425C134.928 124.621 134.841 125.11 134.798 125.531ZM165.503 69.6248C164.015 71.5651 163.606 74.0979 163.228 76.5139C161.316 88.7347 158.837 101.239 152.112 111.621C149.809 115.177 146.938 118.689 146.612 122.914C147.881 118.515 151.394 115.187 153.805 111.296C155.574 108.441 156.755 105.266 157.837 102.086C160.447 94.4106 162.549 86.5621 164.123 78.6091C164.689 75.7499 165.247 72.7422 167.088 70.4826C166.463 70.4763 165.85 70.1446 165.503 69.6248ZM113.901 143.511C114.101 143.459 114.315 143.398 114.445 143.238C114.585 143.066 114.591 142.825 114.591 142.603C114.588 140.494 114.585 138.385 114.583 136.276C114.583 136.125 114.578 135.959 114.482 135.842C114.344 135.673 114.088 135.679 113.871 135.703C112.198 135.886 110.541 136.216 108.924 136.686C108.735 136.742 108.536 136.804 108.401 136.949C108.247 137.115 108.207 137.355 108.176 137.579C107.862 139.856 107.736 142.16 107.801 144.457C107.807 144.645 107.834 144.867 108 144.953C108.116 145.013 108.255 144.981 108.38 144.949C110.221 144.469 112.061 143.99 113.901 143.511ZM140.856 154.873C142.075 153.408 142.085 151.317 142.035 149.412C142.026 149.041 141.589 148.857 141.229 148.768C139.303 148.294 137.347 147.943 135.376 147.719C135.203 147.699 135.014 147.684 134.87 147.782C134.651 147.93 134.653 148.249 134.681 148.512C134.948 150.972 135.459 153.405 136.204 155.765C136.29 156.039 136.404 156.34 136.663 156.463C136.803 156.53 136.964 156.532 137.119 156.528C138.522 156.487 139.958 155.952 140.856 154.873ZM111.407 126.504C110.929 126.642 110.44 126.803 110.063 127.129C109.705 127.438 109.478 127.871 109.301 128.309C108.738 129.702 108.61 131.226 108.488 132.723C108.479 132.837 108.473 132.963 108.543 133.054C108.647 133.191 108.855 133.173 109.024 133.141C110.483 132.868 111.942 132.594 113.4 132.321C113.816 132.243 114.275 132.137 114.511 131.786C114.671 131.548 114.691 131.245 114.706 130.958C114.796 129.234 114.885 127.511 114.974 125.787C113.768 125.928 112.574 126.168 111.407 126.504ZM119.597 133.884C122.782 133.539 126.001 133.496 129.194 133.757C129.556 133.787 129.954 133.811 130.248 133.596C130.707 133.26 130.645 132.569 130.535 132.01C130.507 131.864 130.474 131.71 130.372 131.602C130.209 131.43 129.938 131.437 129.702 131.457C126.513 131.724 123.325 131.992 120.137 132.259C119.697 132.296 119.228 132.344 118.886 132.624C118.545 132.903 118.434 133.503 118.786 133.769C119.009 133.938 119.318 133.914 119.597 133.884ZM143.869 133.63C143.486 133.239 142.91 133.124 142.37 133.028C139.984 132.604 137.598 132.18 135.213 131.756C134.901 131.701 134.519 131.672 134.331 131.927C134.25 132.038 134.227 132.18 134.207 132.317C134.105 132.995 134.189 133.94 134.869 134.03C137.581 134.387 140.293 134.745 143.006 135.102C143.274 135.138 143.563 135.17 143.804 135.044C144.289 134.789 144.252 134.022 143.869 133.63ZM116.383 147.091C116.222 147.535 116.303 148.026 116.387 148.491C116.901 151.333 117.459 154.168 118.099 156.985C118.185 157.365 118.28 157.76 118.533 158.056C118.785 158.353 119.245 158.511 119.574 158.303C120.068 157.99 119.885 157.241 119.673 156.696C118.576 153.882 118.264 150.827 118.112 147.81C118.086 147.281 117.984 146.634 117.486 146.451C117.042 146.288 116.545 146.647 116.383 147.091ZM141.8 147.615C142.378 147.395 141.979 146.409 142.392 145.949C139.993 145.351 137.548 144.941 135.086 144.723C134.505 144.672 134.236 145.547 134.582 146.017C134.927 146.486 135.56 146.62 136.134 146.719C136.652 146.809 137.17 146.898 137.688 146.988C138.903 147.198 140.119 147.408 141.335 147.618C141.49 147.645 141.654 147.671 141.8 147.615ZM120.162 145.459C123.138 145.284 126.132 145.396 129.087 145.793C129.677 145.872 130.496 145.802 130.575 145.212C130.657 144.601 129.834 144.333 129.218 144.302C126.228 144.154 123.231 144.133 120.238 144.24C119.708 144.259 118.982 144.528 119.121 145.039C119.229 145.431 119.756 145.483 120.162 145.459ZM131.59 135.424C131.45 135.716 131.446 136.051 131.445 136.375C131.439 138.198 131.432 140.021 131.426 141.844C131.424 142.248 131.426 142.667 131.596 143.034C131.766 143.401 132.155 143.7 132.553 143.63C133.214 143.513 133.336 142.628 133.299 141.958C133.193 140.019 133.088 138.079 132.982 136.14C132.956 135.663 132.831 135.063 132.363 134.966C132.047 134.9 131.729 135.133 131.59 135.424ZM133.624 148.039C133.492 147.657 133.186 147.305 132.786 147.25C132.386 147.195 131.945 147.554 132.022 147.951C132.49 150.365 132.959 152.779 133.428 155.193C133.538 155.758 133.689 156.387 134.177 156.694C134.664 157 135.512 156.589 135.33 156.043C134.589 153.827 133.843 151.572 133.765 149.236C133.751 148.833 133.756 148.42 133.624 148.039ZM117.309 142.888C117.526 142.499 117.509 142.027 117.486 141.582C117.405 140.029 117.324 138.476 117.243 136.923C117.218 136.441 117.176 135.917 116.849 135.56C116.523 135.204 115.808 135.201 115.651 135.658C115.609 135.78 115.613 135.911 115.618 136.039C115.692 138.117 115.766 140.195 115.84 142.272C115.853 142.633 115.892 143.045 116.184 143.256C116.545 143.517 117.091 143.277 117.309 142.888ZM116.192 125.895C115.779 126.465 115.76 127.22 115.758 127.924C115.754 128.894 115.751 129.864 115.747 130.834C115.745 131.354 115.936 132.064 116.453 132.013C116.858 131.974 117.02 131.479 117.087 131.078C117.389 129.277 117.692 127.477 117.994 125.676C117.57 125.114 116.604 125.324 116.192 125.895ZM113.353 146.125C113.779 146.087 114.253 146.05 114.541 145.734C114.829 145.418 114.649 144.743 114.225 144.801C112.917 144.98 111.61 145.159 110.302 145.339C109.623 145.432 108.903 145.543 108.386 145.992C107.87 146.441 107.699 147.354 108.228 147.788C109.782 146.859 111.548 146.286 113.353 146.125ZM108.585 134.414C108.194 134.786 108.124 135.535 108.586 135.814C110.083 135.314 111.634 134.974 113.203 134.803C113.59 134.761 114 134.72 114.31 134.485C114.62 134.25 114.756 133.742 114.476 133.473C114.255 133.26 113.903 133.291 113.6 133.337C112.426 133.512 111.253 133.688 110.079 133.864C109.546 133.944 108.975 134.041 108.585 134.414ZM133.048 124.392C132.91 124.54 132.868 124.75 132.832 124.949C132.556 126.465 132.281 127.98 132.005 129.496C131.955 129.77 131.924 130.101 132.138 130.28C132.357 130.462 132.713 130.35 132.885 130.124C133.057 129.897 133.095 129.6 133.127 129.317C133.297 127.797 133.468 126.278 133.639 124.758C133.654 124.621 133.666 124.469 133.58 124.361C133.455 124.203 133.186 124.245 133.048 124.392ZM132.533 144.469C131.959 144.399 131.403 145.132 131.761 145.585C132.011 145.903 132.304 146.227 132.699 146.313C133.094 146.399 133.585 146.112 133.547 145.709C133.493 145.134 133.106 144.539 132.533 144.469ZM132.76 132.832C132.953 132.368 132.999 131.625 132.5 131.567C132.305 131.544 132.12 131.664 131.986 131.808C131.363 132.476 131.685 133.752 132.55 134.046C132.827 133.726 132.925 133.26 132.799 132.855C132.662 132.413 132.582 133.26 132.76 132.832ZM117.277 133.683C117.161 133.255 116.805 132.852 116.362 132.848C115.787 132.842 115.411 133.658 115.789 134.092C116.166 134.525 117.026 134.264 117.099 133.694C117.164 133.189 117.411 134.174 117.277 133.683ZM117.628 145.443C117.764 145.327 117.862 145.166 117.903 144.992C117.525 144.569 116.862 144.432 116.347 144.67C116.233 144.723 116.122 144.796 116.058 144.904C115.872 145.212 116.18 145.626 116.535 145.685C116.889 145.743 117.237 145.57 117.555 145.403L117.628 145.443Z" fill="#00160A"/>
</svg>
