<svg width="488" height="488" viewBox="0 0 488 488" fill="none" xmlns="http://www.w3.org/2000/svg">
<path d="M408.711 205.224C408.711 205.224 348.606 239.584 387.782 347.376C422.573 443.106 297.87 456.113 249.385 435.943C186.579 409.815 165.871 319.48 110.508 335.482C55.1441 351.485 29.7805 222.67 111.45 193.816C213.043 157.924 161.386 114.504 177.636 76.318C189.299 48.9114 281.342 21.6222 315.835 81.1797C344.861 131.297 366.431 119.878 384.805 117.723C411.305 114.614 456.852 168.165 408.711 205.224Z" fill="#DEE9FF"/>
<path d="M253.824 197.855C253.824 197.855 158.931 304.444 157.834 316.264C157.834 316.264 162.121 318.163 166.902 323.705C172.435 330.119 179.067 332.567 182.388 330.761C187.173 328.16 186.762 324.578 186.762 324.578L259.998 351.107C259.998 351.107 285.862 342.998 338.314 288.323L352.266 268.388L253.824 197.855Z" fill="#0E84E5"/>
<path d="M145.081 213.252C145.081 213.252 156.76 221.63 170.718 213.732L214.618 188.535C214.618 188.535 229.565 177.504 244.937 188.115C244.937 188.115 230.971 222.038 259.743 227.843C259.743 227.843 287.823 240.712 302.681 253.923C310.151 260.57 326.129 271.843 333.726 278.208C335.765 279.914 339.936 282.465 342.052 285.021C344.991 288.572 350.606 296.315 341.596 303.827C341.596 303.827 335.59 310.882 323.558 303.457C312.375 296.556 292.879 280.549 281.062 273.103C280.42 272.699 277.492 272.103 281.577 276.087C286.616 281 310.149 298.395 310.149 298.395C310.149 298.395 318.952 304.507 321.043 307.61C322.879 310.331 325.708 316.307 320.443 322.797C320.443 322.797 312.967 332.65 300.151 324.82L270.724 304.279C270.724 304.279 264.467 300.239 269.498 306.135C269.498 306.135 299.362 327.118 300.537 330.311C303.885 339.412 297.406 351.118 282.853 345.467L249.138 327.032C249.138 327.032 246.056 326.581 248.578 329.04C248.578 329.04 279.861 345.184 282.028 346.957C284.862 349.277 277.98 360.21 263.719 355.831C243.379 349.587 202.267 338.346 182.387 330.76C175.392 328.092 161.024 320.962 155.486 317.611C155.486 317.611 133.273 303.632 102.854 303.051L124.769 209.639L145.081 213.252Z" fill="#699CFF"/>
<path d="M179.06 337.057C179.06 337.057 185.483 328.571 189.454 325.502C197.51 319.277 212.045 325.31 212.751 332.938C212.751 332.938 215.884 340.434 202.89 351.488C200.488 353.53 192.854 358.384 181.692 349.212C181.692 349.213 175.033 343.088 179.06 337.057Z" fill="#0E84E5"/>
<path d="M191.933 261.63C191.933 261.63 210.546 276.371 229.813 232.519C229.813 232.519 240.065 236.091 255.992 226.855L259.31 221.694C259.31 221.694 226.963 225.137 227.106 225.773C227.248 226.409 191.933 261.63 191.933 261.63Z" fill="#0E84E5"/>
<path d="M206.738 353.652C206.509 348.024 214.398 337.7 217.851 334.055C221.92 329.761 237.941 325.656 239.802 342.711C239.802 342.711 238.809 354.664 229.909 361.478C225.679 364.719 207.223 365.583 206.738 353.652Z" fill="#0E84E5"/>
<path d="M242.648 345.14C245.374 340.804 258.89 338.735 259.191 351.188C259.305 355.904 256.849 363.677 249.846 366.758C244.755 368.997 231.318 365.352 233.873 359.892C235.627 356.138 236.485 354.938 242.648 345.14Z" fill="#0E84E5"/>
<path d="M155.179 325.937C156.354 323.356 158.294 320.881 162.169 317.759C164.514 315.871 171.102 315.138 175.064 317.612C177.907 319.389 183.513 323.553 182.257 327.257C179.867 334.295 175.815 343.83 167.043 341.075C167.042 341.074 149.944 337.446 155.179 325.937Z" fill="#0E84E5"/>
<path d="M141.578 204.06L123.675 320.448L66.186 309.383L91.6643 190.82L141.578 204.06Z" fill="#0E84E5"/>
<path d="M161.51 322.015C161.51 322.015 158.699 329.99 163.69 333.341C163.69 333.341 170.112 341.048 178.061 328.317C179.386 326.196 176.424 322.451 171.177 321.051C171.178 321.051 166.207 319.137 161.51 322.015Z" fill="#D4E5FF"/>
<path d="M186.951 336.356C186.951 336.356 190.223 329.032 193.002 327.907C195.864 326.748 204.463 326.561 208.076 335.007C208.697 336.46 206.453 339.493 205.443 341.101C203.581 344.07 198.773 348.513 193.184 345.461C193.184 345.46 186.034 342.879 186.951 336.356Z" fill="#D4E5FF"/>
<path d="M216.208 342.624C216.985 340.497 219.998 336.619 222.74 336.345C227.252 335.896 237.669 339.242 234.916 345.912C234.916 345.912 232.552 351.567 227.481 352.886C227.481 352.886 218.685 356.04 215.431 347.855C214.942 346.626 215.758 343.866 216.208 342.624Z" fill="#D4E5FF"/>
<path d="M240.093 355.415C241.392 358.655 246.963 362.003 250.363 358.916C251.741 357.666 254.58 353.484 254.736 351.631C254.996 348.496 248.828 341.879 243.425 348.042C242.15 349.497 239.374 353.619 240.093 355.415Z" fill="#D4E5FF"/>
<path d="M266.54 185.094C266.54 185.094 247.729 179.162 233.34 193.608L209.222 208.375C209.222 208.375 198.936 211.786 195.753 225.549L184.798 248.328C184.798 248.328 175.947 263.958 201.759 261.818C201.759 261.818 216.532 255.574 228.262 231.851L228.18 228.823C228.18 228.823 229.851 232.559 238.377 231.059C238.377 231.059 247.181 228.011 259.359 223.978C259.359 223.978 261.335 226.384 273.034 232.808C273.034 232.808 301.634 247.773 308.283 255.751L342.547 281.829C342.547 281.829 347.866 279.704 361.102 259.122L390.633 248.625L359.651 164.1C359.651 164.1 312.482 182.573 298.631 183.954L266.54 185.094Z" fill="#208AF2"/>
<path d="M339.037 166.156L379.846 262.224L423.274 245.37L380.613 148.131L339.037 166.156Z" fill="#699CFF"/>
<path d="M190.24 237.013C190.24 237.013 200.607 233.089 203.663 240.266C203.663 240.266 200.514 253.061 196.97 255.898C194.231 258.094 185.136 258.992 183.348 254.31C183.348 254.31 182.223 249.487 190.24 237.013Z" fill="#D4E5FF"/>
<path d="M283.714 238.694C283.714 238.694 302.999 246.616 322.48 231.01C322.48 231.01 309.098 249.044 291.085 243.048L283.714 238.694Z" fill="#0E84E5"/>
<path d="M104.205 298.029C104.331 299.29 104.08 300.56 103.484 301.678C102.889 302.796 101.975 303.713 100.858 304.312C99.7411 304.91 98.4719 305.165 97.2108 305.042C95.9496 304.919 94.7531 304.426 93.7726 303.623C92.7921 302.82 92.0717 301.745 91.7024 300.533C91.3331 299.321 91.3316 298.026 91.698 296.813C92.0644 295.6 92.7823 294.523 93.7609 293.718C94.7395 292.913 95.9348 292.417 97.1957 292.291C98.886 292.123 100.574 292.633 101.888 293.709C103.203 294.785 104.036 296.339 104.205 298.029Z" fill="white"/>
<path d="M402.249 236.016C402.375 237.276 402.124 238.546 401.528 239.664C400.932 240.782 400.018 241.698 398.901 242.296C397.785 242.895 396.516 243.149 395.255 243.026C393.994 242.903 392.798 242.409 391.818 241.607C390.837 240.805 390.117 239.729 389.748 238.518C389.379 237.306 389.377 236.012 389.743 234.799C390.11 233.586 390.827 232.509 391.806 231.705C392.784 230.9 393.979 230.403 395.239 230.277C396.076 230.194 396.922 230.276 397.727 230.519C398.532 230.762 399.282 231.162 399.933 231.695C400.584 232.228 401.123 232.883 401.521 233.625C401.918 234.366 402.166 235.179 402.249 236.016Z" fill="white"/>
</svg>
