<svg width="503" height="487" viewBox="0 0 503 487" fill="none" xmlns="http://www.w3.org/2000/svg">
<path d="M437.559 179.526C437.559 179.526 395.769 259.406 461.404 369.877C519.694 467.985 315.733 406.147 255.697 393.625C177.928 377.404 174.95 360.932 113.703 389.447C52.4563 417.963 1.12314 273.7 90.4888 225.88C201.657 166.394 133.587 129 145.296 83.8986C153.699 51.5288 255.396 3.36994 306.569 61.8632C349.631 111.085 372.523 94.2889 393.44 88.2866C423.608 79.6286 486.483 129.345 437.559 179.526Z" fill="#5287DE" fill-opacity="0.34"/>
<g filter="url(#filter0_d_69_222)">
<rect x="81" y="96.4428" width="363" height="59" rx="18.0026" fill="white" shape-rendering="crispEdges"/>
<rect x="81.5001" y="96.9428" width="362" height="57.9999" rx="17.5025" stroke="#CDCFD6" stroke-width="1.00014" shape-rendering="crispEdges"/>
<path d="M108.587 121.679L111.185 116.447C111.261 116.295 111.377 116.168 111.521 116.079C111.665 115.99 111.831 115.943 112 115.943C112.169 115.943 112.335 115.99 112.479 116.079C112.623 116.168 112.74 116.295 112.815 116.447L115.413 121.679L121.221 122.523C121.389 122.546 121.546 122.616 121.676 122.724C121.806 122.833 121.902 122.976 121.955 123.136C122.007 123.297 122.014 123.47 121.973 123.634C121.932 123.798 121.846 123.947 121.724 124.065L117.522 128.135L118.514 133.885C118.641 134.623 117.861 135.185 117.194 134.837L112 132.121L106.805 134.837C106.139 135.186 105.359 134.623 105.486 133.884L106.478 128.134L102.276 124.064C102.155 123.946 102.07 123.797 102.029 123.633C101.989 123.469 101.995 123.297 102.048 123.137C102.1 122.976 102.196 122.834 102.326 122.726C102.455 122.617 102.612 122.547 102.779 122.524L108.587 121.679Z" stroke="#7982AD" stroke-width="1.5" stroke-linecap="round" stroke-linejoin="round"/>
<path d="M144.736 125.306C144.736 126.917 144.445 128.309 143.863 129.483C143.282 130.656 142.484 131.561 141.469 132.197C140.455 132.833 139.297 133.152 137.994 133.152C136.692 133.152 135.533 132.833 134.519 132.197C133.505 131.561 132.707 130.656 132.125 129.483C131.544 128.309 131.253 126.917 131.253 125.306C131.253 123.696 131.544 122.304 132.125 121.13C132.707 119.957 133.505 119.052 134.519 118.416C135.533 117.779 136.692 117.461 137.994 117.461C139.297 117.461 140.455 117.779 141.469 118.416C142.484 119.052 143.282 119.957 143.863 121.13C144.445 122.304 144.736 123.696 144.736 125.306ZM142.946 125.306C142.946 123.984 142.725 122.868 142.282 121.958C141.845 121.048 141.251 120.36 140.5 119.892C139.754 119.425 138.919 119.191 137.994 119.191C137.07 119.191 136.232 119.425 135.481 119.892C134.735 120.36 134.141 121.048 133.699 121.958C133.261 122.868 133.043 123.984 133.043 125.306C133.043 126.629 133.261 127.745 133.699 128.655C134.141 129.565 134.735 130.253 135.481 130.72C136.232 131.188 137.07 131.421 137.994 131.421C138.919 131.421 139.754 131.188 140.5 130.72C141.251 130.253 141.845 129.565 142.282 128.655C142.725 127.745 142.946 126.629 142.946 125.306ZM146.531 123.129V121.488H155.837V123.129H152.079V132.943H150.319V123.129H146.531ZM157.269 130.019H159.148C159.188 130.537 159.421 130.929 159.849 131.198C160.282 131.466 160.843 131.6 161.534 131.6C162.24 131.6 162.844 131.456 163.347 131.168C163.849 130.875 164.1 130.402 164.1 129.751C164.1 129.368 164.005 129.035 163.816 128.752C163.627 128.463 163.361 128.24 163.018 128.081C162.675 127.921 162.27 127.842 161.803 127.842H159.834V126.261H161.803C162.504 126.261 163.021 126.102 163.354 125.784C163.692 125.465 163.861 125.068 163.861 124.59C163.861 124.078 163.68 123.668 163.317 123.36C162.954 123.047 162.439 122.89 161.773 122.89C161.102 122.89 160.543 123.042 160.095 123.345C159.648 123.643 159.412 124.029 159.387 124.501H157.537C157.557 123.885 157.746 123.34 158.104 122.868C158.462 122.391 158.949 122.018 159.566 121.749C160.182 121.476 160.888 121.339 161.684 121.339C162.489 121.339 163.187 121.481 163.779 121.764C164.376 122.043 164.836 122.423 165.159 122.905C165.487 123.382 165.651 123.924 165.651 124.531C165.651 125.177 165.469 125.699 165.106 126.097C164.744 126.495 164.289 126.778 163.742 126.947V127.066C164.174 127.096 164.55 127.235 164.868 127.484C165.191 127.728 165.442 128.048 165.621 128.446C165.8 128.839 165.889 129.274 165.889 129.751C165.889 130.447 165.703 131.054 165.33 131.571C164.957 132.083 164.445 132.48 163.794 132.764C163.143 133.042 162.399 133.181 161.564 133.181C160.754 133.181 160.028 133.05 159.387 132.786C158.745 132.518 158.236 132.147 157.858 131.675C157.485 131.198 157.289 130.646 157.269 130.019ZM169.463 125.635H172.744C174.087 125.635 175.113 125.975 175.824 126.656C176.535 127.337 176.89 128.2 176.89 129.244C176.89 129.93 176.731 130.554 176.413 131.116C176.095 131.673 175.628 132.117 175.011 132.451C174.395 132.779 173.639 132.943 172.744 132.943H167.942V121.488H169.702V131.302H172.744C173.44 131.302 174.012 131.118 174.459 130.75C174.907 130.382 175.131 129.91 175.131 129.333C175.131 128.727 174.907 128.232 174.459 127.849C174.012 127.467 173.44 127.275 172.744 127.275H169.463V125.635ZM178.71 132.943V121.488H180.47V132.943H178.71ZM183.272 132.943V121.488H187.955C189.188 121.488 190.167 121.767 190.893 122.323C191.619 122.88 191.982 123.616 191.982 124.531C191.982 125.227 191.776 125.766 191.363 126.149C190.95 126.527 190.421 126.783 189.774 126.917C190.197 126.977 190.607 127.126 191.005 127.365C191.408 127.603 191.741 127.931 192.004 128.349C192.268 128.762 192.399 129.269 192.399 129.87C192.399 130.457 192.25 130.981 191.952 131.444C191.654 131.906 191.226 132.272 190.669 132.54C190.113 132.809 189.446 132.943 188.671 132.943H183.272ZM184.942 131.332H188.671C189.277 131.332 189.752 131.188 190.095 130.899C190.438 130.611 190.61 130.218 190.61 129.721C190.61 129.13 190.438 128.665 190.095 128.327C189.752 127.984 189.277 127.812 188.671 127.812H184.942V131.332ZM184.942 126.291H187.955C188.427 126.291 188.832 126.226 189.17 126.097C189.508 125.963 189.767 125.774 189.946 125.53C190.13 125.282 190.222 124.988 190.222 124.65C190.222 124.168 190.021 123.79 189.618 123.517C189.215 123.238 188.661 123.099 187.955 123.099H184.942V126.291ZM199.297 133.181C198.263 133.181 197.356 132.935 196.575 132.443C195.8 131.951 195.193 131.262 194.755 130.377C194.323 129.492 194.107 128.458 194.107 127.275C194.107 126.082 194.323 125.04 194.755 124.151C195.193 123.261 195.8 122.57 196.575 122.077C197.356 121.585 198.263 121.339 199.297 121.339C200.331 121.339 201.236 121.585 202.012 122.077C202.792 122.57 203.399 123.261 203.831 124.151C204.269 125.04 204.487 126.082 204.487 127.275C204.487 128.458 204.269 129.492 203.831 130.377C203.399 131.262 202.792 131.951 202.012 132.443C201.236 132.935 200.331 133.181 199.297 133.181ZM199.297 131.6C200.083 131.6 200.729 131.399 201.236 130.996C201.743 130.594 202.118 130.064 202.362 129.408C202.606 128.752 202.727 128.041 202.727 127.275C202.727 126.51 202.606 125.796 202.362 125.135C202.118 124.474 201.743 123.939 201.236 123.532C200.729 123.124 200.083 122.92 199.297 122.92C198.512 122.92 197.865 123.124 197.358 123.532C196.851 123.939 196.476 124.474 196.232 125.135C195.988 125.796 195.867 126.51 195.867 127.275C195.867 128.041 195.988 128.752 196.232 129.408C196.476 130.064 196.851 130.594 197.358 130.996C197.865 131.399 198.512 131.6 199.297 131.6ZM206.754 132.943V121.488H211.437C212.67 121.488 213.649 121.767 214.375 122.323C215.101 122.88 215.464 123.616 215.464 124.531C215.464 125.227 215.258 125.766 214.845 126.149C214.433 126.527 213.903 126.783 213.257 126.917C213.679 126.977 214.089 127.126 214.487 127.365C214.89 127.603 215.223 127.931 215.486 128.349C215.75 128.762 215.882 129.269 215.882 129.87C215.882 130.457 215.733 130.981 215.434 131.444C215.136 131.906 214.708 132.272 214.152 132.54C213.595 132.809 212.929 132.943 212.153 132.943H206.754ZM208.424 131.332H212.153C212.76 131.332 213.234 131.188 213.577 130.899C213.92 130.611 214.092 130.218 214.092 129.721C214.092 129.13 213.92 128.665 213.577 128.327C213.234 127.984 212.76 127.812 212.153 127.812H208.424V131.332ZM208.424 126.291H211.437C211.909 126.291 212.315 126.226 212.653 126.097C212.991 125.963 213.249 125.774 213.428 125.53C213.612 125.282 213.704 124.988 213.704 124.65C213.704 124.168 213.503 123.79 213.1 123.517C212.697 123.238 212.143 123.099 211.437 123.099H208.424V126.291ZM228.266 133.181C227.231 133.181 226.324 132.935 225.544 132.443C224.768 131.951 224.161 131.262 223.724 130.377C223.291 129.492 223.075 128.458 223.075 127.275C223.075 126.082 223.291 125.04 223.724 124.151C224.161 123.261 224.768 122.57 225.544 122.077C226.324 121.585 227.231 121.339 228.266 121.339C229.3 121.339 230.204 121.585 230.98 122.077C231.761 122.57 232.367 123.261 232.8 124.151C233.237 125.04 233.456 126.082 233.456 127.275C233.456 128.458 233.237 129.492 232.8 130.377C232.367 131.262 231.761 131.951 230.98 132.443C230.204 132.935 229.3 133.181 228.266 133.181ZM228.266 131.6C229.051 131.6 229.697 131.399 230.204 130.996C230.712 130.594 231.087 130.064 231.331 129.408C231.574 128.752 231.696 128.041 231.696 127.275C231.696 126.51 231.574 125.796 231.331 125.135C231.087 124.474 230.712 123.939 230.204 123.532C229.697 123.124 229.051 122.92 228.266 122.92C227.48 122.92 226.834 123.124 226.327 123.532C225.82 123.939 225.444 124.474 225.201 125.135C224.957 125.796 224.835 126.51 224.835 127.275C224.835 128.041 224.957 128.752 225.201 129.408C225.444 130.064 225.82 130.594 226.327 130.996C226.834 131.399 227.48 131.6 228.266 131.6ZM241.209 137.238V121.488H242.909V123.308H243.118C243.247 123.109 243.426 122.855 243.655 122.547C243.888 122.234 244.221 121.956 244.654 121.712C245.091 121.463 245.683 121.339 246.429 121.339C247.393 121.339 248.243 121.58 248.979 122.062C249.715 122.545 250.289 123.228 250.702 124.113C251.115 124.998 251.321 126.042 251.321 127.245C251.321 128.458 251.115 129.51 250.702 130.4C250.289 131.285 249.718 131.971 248.987 132.458C248.256 132.94 247.413 133.181 246.459 133.181C245.723 133.181 245.134 133.06 244.691 132.816C244.249 132.567 243.908 132.287 243.67 131.973C243.431 131.655 243.247 131.392 243.118 131.183H242.969V137.238H241.209ZM242.939 127.215C242.939 128.081 243.066 128.844 243.319 129.505C243.573 130.161 243.943 130.676 244.43 131.049C244.917 131.416 245.514 131.6 246.22 131.6C246.956 131.6 247.57 131.407 248.062 131.019C248.559 130.626 248.932 130.099 249.181 129.438C249.434 128.772 249.561 128.031 249.561 127.215C249.561 126.41 249.437 125.684 249.188 125.038C248.944 124.387 248.574 123.872 248.077 123.494C247.585 123.111 246.966 122.92 246.22 122.92C245.504 122.92 244.903 123.101 244.415 123.464C243.928 123.822 243.56 124.325 243.312 124.971C243.063 125.612 242.939 126.36 242.939 127.215ZM256.956 133.211C256.23 133.211 255.572 133.075 254.98 132.801C254.388 132.523 253.919 132.122 253.571 131.6C253.223 131.073 253.049 130.437 253.049 129.691C253.049 129.035 253.178 128.503 253.436 128.095C253.695 127.683 254.04 127.36 254.473 127.126C254.905 126.892 255.383 126.718 255.905 126.604C256.432 126.485 256.961 126.39 257.493 126.321C258.189 126.231 258.753 126.164 259.186 126.119C259.624 126.07 259.942 125.988 260.141 125.873C260.344 125.759 260.446 125.56 260.446 125.277V125.217C260.446 124.481 260.245 123.909 259.842 123.502C259.445 123.094 258.84 122.89 258.03 122.89C257.19 122.89 256.531 123.074 256.054 123.442C255.577 123.81 255.241 124.203 255.047 124.62L253.377 124.024C253.675 123.328 254.073 122.786 254.57 122.398C255.072 122.005 255.619 121.732 256.211 121.578C256.807 121.419 257.394 121.339 257.97 121.339C258.338 121.339 258.761 121.384 259.238 121.473C259.72 121.558 260.185 121.734 260.633 122.003C261.085 122.271 261.461 122.676 261.759 123.218C262.057 123.76 262.206 124.486 262.206 125.396V132.943H260.446V131.392H260.357C260.238 131.64 260.039 131.906 259.76 132.19C259.482 132.473 259.111 132.714 258.649 132.913C258.187 133.112 257.622 133.211 256.956 133.211ZM257.225 131.63C257.921 131.63 258.507 131.494 258.985 131.22C259.467 130.947 259.83 130.594 260.073 130.161C260.322 129.729 260.446 129.274 260.446 128.796V127.186C260.372 127.275 260.208 127.357 259.954 127.432C259.706 127.501 259.417 127.564 259.089 127.618C258.766 127.668 258.45 127.713 258.142 127.752C257.839 127.787 257.593 127.817 257.404 127.842C256.946 127.902 256.519 127.999 256.121 128.133C255.728 128.262 255.41 128.458 255.166 128.722C254.928 128.98 254.809 129.333 254.809 129.781C254.809 130.392 255.035 130.855 255.487 131.168C255.945 131.476 256.524 131.63 257.225 131.63ZM273.5 117.193L274.395 118.267C274.047 118.605 273.644 118.841 273.187 118.975C272.729 119.109 272.212 119.191 271.636 119.221C271.059 119.251 270.418 119.281 269.712 119.311C268.916 119.34 268.257 119.534 267.735 119.892C267.213 120.25 266.811 120.767 266.527 121.443C266.244 122.12 266.062 122.95 265.983 123.934H266.132C266.52 123.218 267.057 122.691 267.743 122.353C268.429 122.015 269.165 121.846 269.95 121.846C270.845 121.846 271.651 122.055 272.366 122.473C273.082 122.89 273.649 123.509 274.067 124.329C274.484 125.15 274.693 126.162 274.693 127.365C274.693 128.563 274.479 129.597 274.052 130.467C273.629 131.337 273.035 132.008 272.269 132.48C271.509 132.948 270.616 133.181 269.592 133.181C268.568 133.181 267.671 132.94 266.9 132.458C266.13 131.971 265.53 131.25 265.103 130.295C264.675 129.336 264.462 128.15 264.462 126.738V125.515C264.462 122.965 264.894 121.031 265.759 119.713C266.629 118.396 267.937 117.715 269.682 117.67C270.298 117.65 270.848 117.645 271.33 117.655C271.812 117.665 272.232 117.643 272.59 117.588C272.948 117.533 273.251 117.402 273.5 117.193ZM269.592 131.6C270.283 131.6 270.877 131.426 271.375 131.078C271.877 130.73 272.262 130.241 272.53 129.609C272.799 128.973 272.933 128.225 272.933 127.365C272.933 126.529 272.796 125.818 272.523 125.232C272.255 124.645 271.869 124.198 271.367 123.889C270.865 123.581 270.263 123.427 269.562 123.427C269.05 123.427 268.591 123.514 268.183 123.688C267.775 123.862 267.427 124.118 267.139 124.456C266.85 124.794 266.627 125.207 266.468 125.694C266.314 126.181 266.231 126.738 266.222 127.365C266.222 128.647 266.522 129.674 267.124 130.445C267.725 131.215 268.548 131.6 269.592 131.6ZM281.619 133.181C280.585 133.181 279.677 132.935 278.897 132.443C278.121 131.951 277.515 131.262 277.077 130.377C276.645 129.492 276.428 128.458 276.428 127.275C276.428 126.082 276.645 125.04 277.077 124.151C277.515 123.261 278.121 122.57 278.897 122.077C279.677 121.585 280.585 121.339 281.619 121.339C282.653 121.339 283.558 121.585 284.333 122.077C285.114 122.57 285.72 123.261 286.153 124.151C286.59 125.04 286.809 126.082 286.809 127.275C286.809 128.458 286.59 129.492 286.153 130.377C285.72 131.262 285.114 131.951 284.333 132.443C283.558 132.935 282.653 133.181 281.619 133.181ZM281.619 131.6C282.404 131.6 283.05 131.399 283.558 130.996C284.065 130.594 284.44 130.064 284.684 129.408C284.927 128.752 285.049 128.041 285.049 127.275C285.049 126.51 284.927 125.796 284.684 125.135C284.44 124.474 284.065 123.939 283.558 123.532C283.05 123.124 282.404 122.92 281.619 122.92C280.833 122.92 280.187 123.124 279.68 123.532C279.173 123.939 278.797 124.474 278.554 125.135C278.31 125.796 278.188 126.51 278.188 127.275C278.188 128.041 278.31 128.752 278.554 129.408C278.797 130.064 279.173 130.594 279.68 130.996C280.187 131.399 280.833 131.6 281.619 131.6ZM287.578 123.129V121.488H296.885V123.129H293.127V132.943H291.367V123.129H287.578ZM303.24 133.181C302.137 133.181 301.185 132.938 300.384 132.451C299.589 131.958 298.975 131.272 298.542 130.392C298.115 129.507 297.901 128.478 297.901 127.305C297.901 126.132 298.115 125.098 298.542 124.203C298.975 123.303 299.576 122.602 300.347 122.1C301.122 121.593 302.027 121.339 303.061 121.339C303.658 121.339 304.247 121.439 304.829 121.637C305.41 121.836 305.94 122.159 306.417 122.607C306.894 123.049 307.275 123.636 307.558 124.367C307.842 125.098 307.983 125.997 307.983 127.066V127.812H299.154V126.291H306.193C306.193 125.644 306.064 125.068 305.806 124.561C305.552 124.054 305.189 123.653 304.717 123.36C304.25 123.067 303.698 122.92 303.061 122.92C302.36 122.92 301.754 123.094 301.242 123.442C300.735 123.785 300.344 124.233 300.071 124.784C299.797 125.336 299.661 125.928 299.661 126.559V127.573C299.661 128.439 299.81 129.172 300.108 129.773C300.411 130.37 300.832 130.825 301.368 131.138C301.905 131.446 302.529 131.6 303.24 131.6C303.703 131.6 304.12 131.536 304.493 131.407C304.871 131.272 305.197 131.073 305.47 130.81C305.743 130.541 305.955 130.208 306.104 129.811L307.804 130.288C307.625 130.865 307.324 131.372 306.902 131.809C306.479 132.242 305.957 132.58 305.336 132.823C304.714 133.062 304.016 133.181 303.24 133.181ZM311.523 133.062C311.155 133.062 310.839 132.93 310.576 132.667C310.312 132.403 310.181 132.088 310.181 131.72C310.181 131.352 310.312 131.036 310.576 130.773C310.839 130.509 311.155 130.377 311.523 130.377C311.891 130.377 312.207 130.509 312.47 130.773C312.734 131.036 312.865 131.352 312.865 131.72C312.865 131.963 312.803 132.187 312.679 132.391C312.56 132.595 312.398 132.759 312.194 132.883C311.995 133.002 311.772 133.062 311.523 133.062ZM311.523 124.561C311.155 124.561 310.839 124.429 310.576 124.165C310.312 123.902 310.181 123.586 310.181 123.218C310.181 122.85 310.312 122.535 310.576 122.271C310.839 122.008 311.155 121.876 311.523 121.876C311.891 121.876 312.207 122.008 312.47 122.271C312.734 122.535 312.865 122.85 312.865 123.218C312.865 123.462 312.803 123.686 312.679 123.889C312.56 124.093 312.398 124.257 312.194 124.382C311.995 124.501 311.772 124.561 311.523 124.561Z" fill="#4C5892" fill-opacity="0.75"/>
<path d="M325.62 133.152C324.546 133.152 323.592 132.968 322.757 132.6C321.926 132.232 321.27 131.72 320.788 131.064C320.306 130.407 320.05 129.649 320.02 128.789H322.824C322.849 129.202 322.985 129.562 323.234 129.87C323.482 130.174 323.813 130.41 324.226 130.579C324.638 130.748 325.101 130.832 325.613 130.832C326.16 130.832 326.644 130.738 327.067 130.549C327.49 130.355 327.82 130.087 328.059 129.744C328.297 129.401 328.414 129.005 328.409 128.558C328.414 128.095 328.295 127.688 328.051 127.335C327.808 126.982 327.455 126.706 326.992 126.507C326.535 126.308 325.983 126.209 325.337 126.209H323.987V124.076H325.337C325.869 124.076 326.334 123.984 326.731 123.8C327.134 123.616 327.45 123.358 327.678 123.024C327.907 122.686 328.019 122.296 328.014 121.854C328.019 121.421 327.922 121.046 327.723 120.728C327.529 120.404 327.253 120.153 326.895 119.974C326.542 119.795 326.127 119.706 325.65 119.706C325.183 119.706 324.75 119.79 324.352 119.959C323.955 120.128 323.634 120.37 323.39 120.683C323.147 120.991 323.018 121.359 323.003 121.787H320.34C320.36 120.931 320.606 120.181 321.079 119.534C321.556 118.883 322.192 118.376 322.988 118.013C323.783 117.645 324.676 117.461 325.665 117.461C326.684 117.461 327.569 117.653 328.32 118.035C329.075 118.413 329.66 118.923 330.072 119.564C330.485 120.206 330.691 120.914 330.691 121.69C330.696 122.55 330.443 123.271 329.931 123.852C329.423 124.434 328.757 124.814 327.932 124.993V125.113C329.006 125.262 329.829 125.659 330.4 126.306C330.977 126.947 331.263 127.745 331.258 128.7C331.258 129.555 331.014 130.32 330.527 130.996C330.045 131.668 329.379 132.195 328.529 132.577C327.683 132.96 326.714 133.152 325.62 133.152ZM338.879 133.152C337.805 133.152 336.851 132.968 336.015 132.6C335.185 132.232 334.529 131.72 334.047 131.064C333.564 130.407 333.308 129.649 333.278 128.789H336.082C336.107 129.202 336.244 129.562 336.493 129.87C336.741 130.174 337.072 130.41 337.484 130.579C337.897 130.748 338.359 130.832 338.871 130.832C339.418 130.832 339.903 130.738 340.326 130.549C340.748 130.355 341.079 130.087 341.318 129.744C341.556 129.401 341.673 129.005 341.668 128.558C341.673 128.095 341.554 127.688 341.31 127.335C341.066 126.982 340.713 126.706 340.251 126.507C339.794 126.308 339.242 126.209 338.596 126.209H337.246V124.076H338.596C339.128 124.076 339.592 123.984 339.99 123.8C340.393 123.616 340.708 123.358 340.937 123.024C341.166 122.686 341.278 122.296 341.273 121.854C341.278 121.421 341.181 121.046 340.982 120.728C340.788 120.404 340.512 120.153 340.154 119.974C339.801 119.795 339.386 119.706 338.909 119.706C338.441 119.706 338.009 119.79 337.611 119.959C337.213 120.128 336.893 120.37 336.649 120.683C336.406 120.991 336.276 121.359 336.261 121.787H333.599C333.619 120.931 333.865 120.181 334.337 119.534C334.815 118.883 335.451 118.376 336.246 118.013C337.042 117.645 337.934 117.461 338.924 117.461C339.943 117.461 340.828 117.653 341.579 118.035C342.334 118.413 342.918 118.923 343.331 119.564C343.744 120.206 343.95 120.914 343.95 121.69C343.955 122.55 343.701 123.271 343.189 123.852C342.682 124.434 342.016 124.814 341.191 124.993V125.113C342.265 125.262 343.087 125.659 343.659 126.306C344.236 126.947 344.522 127.745 344.517 128.7C344.517 129.555 344.273 130.32 343.786 130.996C343.304 131.668 342.637 132.195 341.787 132.577C340.942 132.96 339.973 133.152 338.879 133.152ZM352.868 117.67V132.943H350.102V120.362H350.012L346.44 122.644V120.109L350.236 117.67H352.868Z" fill="#5287DE"/>
</g>
<g filter="url(#filter1_d_69_222)">
<rect x="81" y="164.443" width="363" height="59" rx="18.0026" fill="white" shape-rendering="crispEdges"/>
<rect x="81.5001" y="164.943" width="362" height="57.9999" rx="17.5025" stroke="#CDCFD6" stroke-width="1.00014" shape-rendering="crispEdges"/>
<path d="M102 195.943C102 192.172 102 190.286 103.172 189.114C104.343 187.943 106.229 187.943 110 187.943H114C117.771 187.943 119.657 187.943 120.828 189.114C122 190.286 122 192.172 122 195.943C122 199.714 122 201.6 120.828 202.771C119.657 203.943 117.771 203.943 114 203.943H110C106.229 203.943 104.343 203.943 103.172 202.771C102 201.6 102 199.714 102 195.943Z" stroke="#7982AD" stroke-width="1.5"/>
<path d="M121.662 190.662C118.652 192.619 117.147 193.597 115.561 194.09C113.242 194.81 110.759 194.81 108.44 194.09C106.853 193.597 105.348 192.619 102.338 190.662" stroke="#7982AD" stroke-width="1.5" stroke-linecap="round"/>
<path d="M108 192.943V194.943" stroke="#7982AD" stroke-width="1.5" stroke-linecap="round"/>
<path d="M116 192.943V194.943" stroke="#7982AD" stroke-width="1.5" stroke-linecap="round"/>
<path d="M109.17 185.943C109.582 184.778 110.693 183.943 112 183.943C113.306 183.943 114.417 184.778 114.829 185.943" stroke="#7982AD" stroke-width="1.5" stroke-linecap="round"/>
<path d="M131.849 201.443V186.17H137.189C138.253 186.17 139.13 186.354 139.821 186.722C140.512 187.085 141.027 187.575 141.365 188.191C141.703 188.802 141.872 189.481 141.872 190.227C141.872 190.883 141.755 191.425 141.522 191.853C141.293 192.28 140.99 192.618 140.612 192.867C140.239 193.115 139.834 193.299 139.396 193.419V193.568C139.864 193.598 140.333 193.762 140.806 194.06C141.278 194.358 141.673 194.786 141.991 195.343C142.31 195.899 142.469 196.581 142.469 197.386C142.469 198.152 142.295 198.84 141.947 199.452C141.599 200.063 141.049 200.548 140.299 200.906C139.548 201.264 138.571 201.443 137.368 201.443H131.849ZM133.699 199.802H137.368C138.576 199.802 139.434 199.568 139.941 199.101C140.453 198.629 140.709 198.057 140.709 197.386C140.709 196.869 140.577 196.392 140.314 195.954C140.05 195.512 139.675 195.159 139.188 194.895C138.7 194.627 138.124 194.492 137.457 194.492H133.699V199.802ZM133.699 192.882H137.129C137.686 192.882 138.188 192.772 138.636 192.554C139.088 192.335 139.446 192.027 139.71 191.629C139.978 191.231 140.112 190.764 140.112 190.227C140.112 189.556 139.879 188.986 139.411 188.519C138.944 188.047 138.203 187.811 137.189 187.811H133.699V192.882ZM146.37 194.135H149.652C150.994 194.135 152.021 194.475 152.731 195.156C153.442 195.837 153.798 196.7 153.798 197.744C153.798 198.43 153.639 199.054 153.321 199.616C153.002 200.173 152.535 200.617 151.919 200.951C151.302 201.279 150.546 201.443 149.652 201.443H144.849V189.988H146.609V199.802H149.652C150.348 199.802 150.919 199.618 151.367 199.25C151.814 198.882 152.038 198.41 152.038 197.833C152.038 197.227 151.814 196.732 151.367 196.349C150.919 195.967 150.348 195.775 149.652 195.775H146.37V194.135ZM155.617 201.443V189.988H157.377V201.443H155.617ZM161.939 198.848L167.457 189.988H169.486V201.443H167.726V192.583L162.237 201.443H160.179V189.988H161.939V198.848ZM179.359 189.988V191.629H174.049V201.443H172.289V189.988H179.359ZM181.508 205.738V189.988H183.208V191.808H183.417C183.546 191.609 183.725 191.355 183.954 191.047C184.188 190.734 184.521 190.456 184.953 190.212C185.391 189.963 185.982 189.839 186.728 189.839C187.693 189.839 188.543 190.08 189.279 190.562C190.014 191.045 190.589 191.728 191.001 192.613C191.414 193.498 191.62 194.542 191.62 195.745C191.62 196.958 191.414 198.01 191.001 198.9C190.589 199.785 190.017 200.471 189.286 200.958C188.555 201.44 187.712 201.681 186.758 201.681C186.022 201.681 185.433 201.56 184.991 201.316C184.548 201.067 184.208 200.787 183.969 200.473C183.73 200.155 183.546 199.892 183.417 199.683H183.268V205.738H181.508ZM183.238 195.715C183.238 196.581 183.365 197.344 183.618 198.005C183.872 198.661 184.242 199.176 184.73 199.549C185.217 199.916 185.813 200.1 186.519 200.1C187.255 200.1 187.869 199.907 188.361 199.519C188.858 199.126 189.231 198.599 189.48 197.938C189.733 197.272 189.86 196.531 189.86 195.715C189.86 194.91 189.736 194.184 189.487 193.538C189.244 192.887 188.873 192.372 188.376 191.994C187.884 191.611 187.265 191.42 186.519 191.42C185.803 191.42 185.202 191.601 184.715 191.964C184.227 192.322 183.86 192.825 183.611 193.471C183.362 194.112 183.238 194.86 183.238 195.715ZM197.256 201.711C196.53 201.711 195.871 201.575 195.279 201.301C194.688 201.023 194.218 200.622 193.87 200.1C193.522 199.573 193.348 198.937 193.348 198.191C193.348 197.535 193.477 197.003 193.736 196.595C193.994 196.183 194.34 195.86 194.772 195.626C195.205 195.392 195.682 195.218 196.204 195.104C196.731 194.985 197.261 194.89 197.792 194.821C198.489 194.731 199.053 194.664 199.485 194.619C199.923 194.57 200.241 194.488 200.44 194.373C200.644 194.259 200.746 194.06 200.746 193.777V193.717C200.746 192.981 200.544 192.409 200.142 192.002C199.744 191.594 199.14 191.39 198.329 191.39C197.489 191.39 196.83 191.574 196.353 191.942C195.876 192.31 195.54 192.703 195.346 193.12L193.676 192.524C193.974 191.828 194.372 191.286 194.869 190.898C195.371 190.505 195.918 190.232 196.51 190.078C197.106 189.919 197.693 189.839 198.27 189.839C198.638 189.839 199.06 189.884 199.538 189.973C200.02 190.058 200.485 190.234 200.932 190.503C201.384 190.771 201.76 191.176 202.058 191.718C202.356 192.26 202.506 192.986 202.506 193.896V201.443H200.746V199.892H200.656C200.537 200.14 200.338 200.406 200.06 200.69C199.781 200.973 199.411 201.214 198.948 201.413C198.486 201.612 197.922 201.711 197.256 201.711ZM197.524 200.13C198.22 200.13 198.807 199.994 199.284 199.72C199.766 199.447 200.129 199.094 200.373 198.661C200.621 198.229 200.746 197.774 200.746 197.296V195.686C200.671 195.775 200.507 195.857 200.253 195.932C200.005 196.001 199.716 196.064 199.388 196.118C199.065 196.168 198.75 196.213 198.441 196.252C198.138 196.287 197.892 196.317 197.703 196.342C197.246 196.402 196.818 196.499 196.42 196.633C196.028 196.762 195.709 196.958 195.466 197.222C195.227 197.48 195.108 197.833 195.108 198.281C195.108 198.892 195.334 199.355 195.786 199.668C196.244 199.976 196.823 200.13 197.524 200.13ZM212.964 194.91V196.551H206.64V194.91H212.964ZM207.058 189.988V201.443H205.298V189.988H207.058ZM214.306 189.988V201.443H212.546V189.988H214.306ZM224.767 194.91V196.551H218.443V194.91H224.767ZM218.86 189.988V201.443H217.1V189.988H218.86ZM226.109 189.988V201.443H224.349V189.988H226.109ZM230.424 194.135H233.706C235.048 194.135 236.075 194.475 236.786 195.156C237.497 195.837 237.852 196.7 237.852 197.744C237.852 198.43 237.693 199.054 237.375 199.616C237.057 200.173 236.589 200.617 235.973 200.951C235.356 201.279 234.601 201.443 233.706 201.443H228.903V189.988H230.663V199.802H233.706C234.402 199.802 234.973 199.618 235.421 199.25C235.868 198.882 236.092 198.41 236.092 197.833C236.092 197.227 235.868 196.732 235.421 196.349C234.973 195.967 234.402 195.775 233.706 195.775H230.424V194.135ZM239.672 201.443V189.988H241.432V201.443H239.672ZM245.546 189.988L248.29 194.671L251.034 189.988H253.063L249.364 195.715L253.063 201.443H251.034L248.29 196.998L245.546 201.443H243.517L247.156 195.715L243.517 189.988H245.546ZM259.417 204.724V199.802H260.372C260.605 199.559 260.807 199.295 260.976 199.012C261.145 198.728 261.291 198.393 261.416 198.005C261.545 197.612 261.654 197.135 261.744 196.573C261.833 196.006 261.913 195.323 261.983 194.522L262.37 189.988H269.649V199.802H271.409V204.724H269.649V201.443H261.177V204.724H259.417ZM262.37 199.802H267.889V191.629H264.011L263.713 194.522C263.588 195.72 263.434 196.767 263.25 197.662C263.066 198.557 262.773 199.27 262.37 199.802ZM278.127 201.681C277.024 201.681 276.072 201.438 275.271 200.951C274.476 200.458 273.862 199.772 273.429 198.892C273.002 198.007 272.788 196.978 272.788 195.805C272.788 194.632 273.002 193.598 273.429 192.703C273.862 191.803 274.463 191.102 275.234 190.6C276.009 190.093 276.914 189.839 277.948 189.839C278.545 189.839 279.134 189.939 279.716 190.137C280.297 190.336 280.827 190.659 281.304 191.107C281.781 191.549 282.162 192.136 282.445 192.867C282.728 193.598 282.87 194.497 282.87 195.566V196.312H274.041V194.791H281.08C281.08 194.144 280.951 193.568 280.693 193.061C280.439 192.554 280.076 192.153 279.604 191.86C279.136 191.567 278.585 191.42 277.948 191.42C277.247 191.42 276.641 191.594 276.129 191.942C275.622 192.285 275.231 192.733 274.958 193.284C274.684 193.836 274.548 194.428 274.548 195.059V196.073C274.548 196.939 274.697 197.672 274.995 198.273C275.298 198.87 275.719 199.325 276.255 199.638C276.792 199.946 277.416 200.1 278.127 200.1C278.59 200.1 279.007 200.036 279.38 199.907C279.758 199.772 280.084 199.573 280.357 199.31C280.63 199.041 280.842 198.708 280.991 198.311L282.691 198.788C282.512 199.365 282.211 199.872 281.789 200.309C281.366 200.742 280.844 201.08 280.223 201.323C279.601 201.562 278.903 201.681 278.127 201.681ZM284.113 201.443V199.802H284.531C284.874 199.802 285.16 199.735 285.388 199.601C285.617 199.462 285.801 199.22 285.94 198.877C286.084 198.529 286.194 198.047 286.268 197.431C286.348 196.809 286.405 196.019 286.44 195.059L286.649 189.988H294.285V201.443H292.525V191.629H288.319L288.14 195.715C288.1 196.655 288.016 197.483 287.887 198.199C287.762 198.91 287.571 199.506 287.312 199.989C287.059 200.471 286.721 200.834 286.298 201.077C285.876 201.321 285.346 201.443 284.71 201.443H284.113ZM298.377 201.562C298.009 201.562 297.693 201.43 297.43 201.167C297.166 200.903 297.034 200.588 297.034 200.22C297.034 199.852 297.166 199.536 297.43 199.273C297.693 199.009 298.009 198.877 298.377 198.877C298.745 198.877 299.06 199.009 299.324 199.273C299.587 199.536 299.719 199.852 299.719 200.22C299.719 200.463 299.657 200.687 299.533 200.891C299.413 201.095 299.252 201.259 299.048 201.383C298.849 201.502 298.625 201.562 298.377 201.562ZM298.377 193.061C298.009 193.061 297.693 192.929 297.43 192.665C297.166 192.402 297.034 192.086 297.034 191.718C297.034 191.35 297.166 191.035 297.43 190.771C297.693 190.508 298.009 190.376 298.377 190.376C298.745 190.376 299.06 190.508 299.324 190.771C299.587 191.035 299.719 191.35 299.719 191.718C299.719 191.962 299.657 192.186 299.533 192.389C299.413 192.593 299.252 192.757 299.048 192.882C298.849 193.001 298.625 193.061 298.377 193.061Z" fill="#4C5892" fill-opacity="0.75"/>
<path d="M313.205 186.17V201.443H310.438V188.862H310.349L306.776 191.144V188.609L310.572 186.17H313.205ZM322.308 201.734C321.08 201.734 320.026 201.423 319.146 200.801C318.271 200.175 317.597 199.273 317.125 198.094C316.658 196.911 316.424 195.487 316.424 193.821C316.429 192.156 316.665 190.739 317.132 189.571C317.605 188.397 318.278 187.502 319.153 186.886C320.033 186.269 321.085 185.961 322.308 185.961C323.531 185.961 324.582 186.269 325.462 186.886C326.342 187.502 327.016 188.397 327.483 189.571C327.956 190.744 328.192 192.161 328.192 193.821C328.192 195.492 327.956 196.919 327.483 198.102C327.016 199.28 326.342 200.18 325.462 200.801C324.587 201.423 323.536 201.734 322.308 201.734ZM322.308 199.399C323.262 199.399 324.016 198.93 324.567 197.99C325.124 197.045 325.403 195.656 325.403 193.821C325.403 192.608 325.276 191.589 325.022 190.764C324.769 189.939 324.411 189.317 323.948 188.899C323.486 188.477 322.939 188.266 322.308 188.266C321.358 188.266 320.608 188.738 320.056 189.682C319.504 190.622 319.225 192.002 319.22 193.821C319.215 195.039 319.337 196.064 319.586 196.894C319.839 197.724 320.197 198.35 320.66 198.773C321.122 199.191 321.671 199.399 322.308 199.399ZM335.895 201.734C334.667 201.734 333.613 201.423 332.733 200.801C331.858 200.175 331.184 199.273 330.712 198.094C330.244 196.911 330.011 195.487 330.011 193.821C330.016 192.156 330.252 190.739 330.719 189.571C331.192 188.397 331.865 187.502 332.74 186.886C333.62 186.269 334.672 185.961 335.895 185.961C337.118 185.961 338.169 186.269 339.049 186.886C339.929 187.502 340.603 188.397 341.07 189.571C341.542 190.744 341.779 192.161 341.779 193.821C341.779 195.492 341.542 196.919 341.07 198.102C340.603 199.28 339.929 200.18 339.049 200.801C338.174 201.423 337.123 201.734 335.895 201.734ZM335.895 199.399C336.849 199.399 337.602 198.93 338.154 197.99C338.711 197.045 338.989 195.656 338.989 193.821C338.989 192.608 338.863 191.589 338.609 190.764C338.356 189.939 337.998 189.317 337.535 188.899C337.073 188.477 336.526 188.266 335.895 188.266C334.945 188.266 334.194 188.738 333.643 189.682C333.091 190.622 332.812 192.002 332.807 193.821C332.802 195.039 332.924 196.064 333.173 196.894C333.426 197.724 333.784 198.35 334.247 198.773C334.709 199.191 335.258 199.399 335.895 199.399ZM352.002 198.579V197.774C352.002 197.182 352.126 196.638 352.375 196.141C352.628 195.643 352.996 195.243 353.479 194.94C353.961 194.637 354.545 194.485 355.231 194.485C355.937 194.485 356.529 194.637 357.006 194.94C357.483 195.238 357.844 195.636 358.087 196.133C358.336 196.63 358.46 197.177 358.46 197.774V198.579C358.46 199.171 358.336 199.715 358.087 200.212C357.839 200.709 357.473 201.11 356.991 201.413C356.514 201.716 355.927 201.868 355.231 201.868C354.535 201.868 353.946 201.716 353.464 201.413C352.981 201.11 352.616 200.709 352.367 200.212C352.124 199.715 352.002 199.171 352.002 198.579ZM353.948 197.774V198.579C353.948 198.972 354.043 199.332 354.232 199.66C354.421 199.989 354.754 200.153 355.231 200.153C355.713 200.153 356.044 199.991 356.223 199.668C356.407 199.34 356.499 198.977 356.499 198.579V197.774C356.499 197.376 356.412 197.013 356.238 196.685C356.064 196.352 355.728 196.185 355.231 196.185C354.764 196.185 354.433 196.352 354.239 196.685C354.045 197.013 353.948 197.376 353.948 197.774ZM344.239 189.839V189.034C344.239 188.437 344.366 187.89 344.619 187.393C344.873 186.896 345.241 186.498 345.723 186.2C346.205 185.897 346.789 185.745 347.475 185.745C348.176 185.745 348.766 185.897 349.243 186.2C349.725 186.498 350.088 186.896 350.332 187.393C350.575 187.89 350.697 188.437 350.697 189.034V189.839C350.697 190.436 350.573 190.983 350.324 191.48C350.081 191.972 349.718 192.367 349.235 192.665C348.753 192.964 348.166 193.113 347.475 193.113C346.774 193.113 346.183 192.964 345.701 192.665C345.223 192.367 344.86 191.969 344.612 191.472C344.363 190.975 344.239 190.431 344.239 189.839ZM346.2 189.034V189.839C346.2 190.237 346.292 190.6 346.476 190.928C346.665 191.251 346.998 191.413 347.475 191.413C347.953 191.413 348.281 191.251 348.46 190.928C348.644 190.6 348.736 190.237 348.736 189.839V189.034C348.736 188.636 348.649 188.273 348.475 187.945C348.301 187.612 347.968 187.445 347.475 187.445C347.003 187.445 346.673 187.612 346.484 187.945C346.295 188.278 346.2 188.641 346.2 189.034ZM345.089 201.443L355.589 186.17H357.453L346.953 201.443H345.089Z" fill="#5287DE"/>
</g>
<g filter="url(#filter2_d_69_222)">
<rect x="81" y="232.443" width="363" height="59" rx="18.0026" fill="white" shape-rendering="crispEdges"/>
<rect x="81.5001" y="232.943" width="362" height="57.9999" rx="17.5025" stroke="#CDCFD6" stroke-width="1.00014" shape-rendering="crispEdges"/>
<path d="M112 252.443C113.176 252.442 114.322 252.819 115.268 253.517C116.214 254.216 116.912 255.199 117.258 256.323C117.604 257.447 117.581 258.652 117.192 259.762C116.803 260.872 116.069 261.828 115.096 262.49C116.784 263.109 118.248 264.219 119.299 265.677C120.351 267.135 120.942 268.874 120.996 270.671C121.001 270.77 120.986 270.87 120.953 270.964C120.919 271.058 120.866 271.144 120.798 271.218C120.731 271.291 120.649 271.35 120.558 271.392C120.467 271.433 120.369 271.456 120.269 271.459C120.169 271.462 120.07 271.445 119.977 271.409C119.884 271.373 119.799 271.318 119.727 271.249C119.655 271.18 119.598 271.097 119.558 271.005C119.519 270.913 119.498 270.815 119.497 270.715C119.438 268.766 118.622 266.917 117.222 265.56C115.823 264.203 113.95 263.444 112.001 263.444C110.051 263.444 108.178 264.203 106.779 265.56C105.38 266.917 104.564 268.766 104.504 270.715C104.498 270.914 104.414 271.102 104.269 271.239C104.124 271.375 103.931 271.448 103.732 271.442C103.533 271.436 103.344 271.352 103.208 271.207C103.072 271.062 102.998 270.869 103.004 270.67C103.059 268.873 103.65 267.134 104.702 265.676C105.753 264.218 107.217 263.109 108.904 262.49C107.932 261.828 107.197 260.872 106.808 259.762C106.419 258.652 106.396 257.447 106.742 256.323C107.089 255.199 107.786 254.216 108.733 253.517C109.679 252.819 110.824 252.442 112 252.443ZM108 257.943C108 259.004 108.422 260.021 109.172 260.771C109.922 261.521 110.939 261.943 112 261.943C113.061 261.943 114.079 261.521 114.829 260.771C115.579 260.021 116 259.004 116 257.943C116 256.882 115.579 255.864 114.829 255.114C114.079 254.364 113.061 253.943 112 253.943C110.939 253.943 109.922 254.364 109.172 255.114C108.422 255.864 108 256.882 108 257.943Z" fill="#7982AD"/>
<path d="M144.736 261.806C144.736 263.417 144.445 264.809 143.863 265.983C143.282 267.156 142.484 268.061 141.469 268.697C140.455 269.333 139.297 269.652 137.994 269.652C136.692 269.652 135.533 269.333 134.519 268.697C133.505 268.061 132.707 267.156 132.125 265.983C131.544 264.809 131.253 263.417 131.253 261.806C131.253 260.196 131.544 258.804 132.125 257.63C132.707 256.457 133.505 255.552 134.519 254.916C135.533 254.279 136.692 253.961 137.994 253.961C139.297 253.961 140.455 254.279 141.469 254.916C142.484 255.552 143.282 256.457 143.863 257.63C144.445 258.804 144.736 260.196 144.736 261.806ZM142.946 261.806C142.946 260.484 142.725 259.368 142.282 258.458C141.845 257.548 141.251 256.86 140.5 256.392C139.754 255.925 138.919 255.691 137.994 255.691C137.07 255.691 136.232 255.925 135.481 256.392C134.735 256.86 134.141 257.548 133.699 258.458C133.261 259.368 133.043 260.484 133.043 261.806C133.043 263.129 133.261 264.245 133.699 265.155C134.141 266.065 134.735 266.753 135.481 267.22C136.232 267.688 137.07 267.921 137.994 267.921C138.919 267.921 139.754 267.688 140.5 267.22C141.251 266.753 141.845 266.065 142.282 265.155C142.725 264.245 142.946 263.129 142.946 261.806ZM147.187 269.443V257.988H156.195V269.443H154.435V259.629H148.947V269.443H147.187ZM160.511 262.135H163.792C165.134 262.135 166.161 262.475 166.872 263.156C167.583 263.837 167.938 264.7 167.938 265.744C167.938 266.43 167.779 267.054 167.461 267.616C167.143 268.173 166.676 268.617 166.059 268.951C165.443 269.279 164.687 269.443 163.792 269.443H158.99V257.988H160.749V267.802H163.792C164.488 267.802 165.06 267.618 165.507 267.25C165.955 266.882 166.178 266.41 166.178 265.833C166.178 265.227 165.955 264.732 165.507 264.349C165.06 263.967 164.488 263.775 163.792 263.775H160.511V262.135ZM169.758 269.443V257.988H171.518V269.443H169.758ZM173.663 259.629V257.988H182.97V259.629H179.212V269.443H177.452V259.629H173.663ZM190.604 273.738V257.988H192.304V259.808H192.513C192.642 259.609 192.821 259.355 193.05 259.047C193.283 258.734 193.616 258.456 194.049 258.212C194.486 257.963 195.078 257.839 195.824 257.839C196.788 257.839 197.638 258.08 198.374 258.562C199.11 259.045 199.684 259.728 200.097 260.613C200.509 261.498 200.716 262.542 200.716 263.745C200.716 264.958 200.509 266.01 200.097 266.9C199.684 267.785 199.112 268.471 198.382 268.958C197.651 269.44 196.808 269.681 195.854 269.681C195.118 269.681 194.529 269.56 194.086 269.316C193.644 269.067 193.303 268.787 193.065 268.473C192.826 268.155 192.642 267.892 192.513 267.683H192.364V273.738H190.604ZM192.334 263.715C192.334 264.581 192.46 265.344 192.714 266.005C192.968 266.661 193.338 267.176 193.825 267.549C194.312 267.916 194.909 268.1 195.615 268.1C196.351 268.1 196.965 267.907 197.457 267.519C197.954 267.126 198.327 266.599 198.576 265.938C198.829 265.272 198.956 264.531 198.956 263.715C198.956 262.91 198.832 262.184 198.583 261.538C198.339 260.887 197.969 260.372 197.472 259.994C196.98 259.611 196.361 259.42 195.615 259.42C194.899 259.42 194.297 259.601 193.81 259.964C193.323 260.322 192.955 260.825 192.707 261.471C192.458 262.112 192.334 262.86 192.334 263.715ZM206.351 269.711C205.625 269.711 204.967 269.575 204.375 269.301C203.783 269.023 203.314 268.622 202.966 268.1C202.618 267.573 202.444 266.937 202.444 266.191C202.444 265.535 202.573 265.003 202.831 264.595C203.09 264.183 203.435 263.86 203.868 263.626C204.3 263.392 204.778 263.218 205.3 263.104C205.827 262.985 206.356 262.89 206.888 262.821C207.584 262.731 208.148 262.664 208.581 262.619C209.018 262.57 209.337 262.488 209.535 262.373C209.739 262.259 209.841 262.06 209.841 261.777V261.717C209.841 260.981 209.64 260.409 209.237 260.002C208.839 259.594 208.235 259.39 207.425 259.39C206.585 259.39 205.926 259.574 205.449 259.942C204.972 260.31 204.636 260.703 204.442 261.12L202.772 260.524C203.07 259.828 203.468 259.286 203.965 258.898C204.467 258.505 205.014 258.232 205.605 258.078C206.202 257.919 206.789 257.839 207.365 257.839C207.733 257.839 208.156 257.884 208.633 257.973C209.115 258.058 209.58 258.234 210.028 258.503C210.48 258.771 210.855 259.176 211.154 259.718C211.452 260.26 211.601 260.986 211.601 261.896V269.443H209.841V267.892H209.752C209.632 268.14 209.434 268.406 209.155 268.69C208.877 268.973 208.506 269.214 208.044 269.413C207.582 269.612 207.017 269.711 206.351 269.711ZM206.62 268.13C207.316 268.13 207.902 267.994 208.38 267.72C208.862 267.447 209.225 267.094 209.468 266.661C209.717 266.229 209.841 265.774 209.841 265.296V263.686C209.767 263.775 209.603 263.857 209.349 263.932C209.1 264.001 208.812 264.064 208.484 264.118C208.161 264.168 207.845 264.213 207.537 264.252C207.234 264.287 206.988 264.317 206.799 264.342C206.341 264.402 205.914 264.499 205.516 264.633C205.123 264.762 204.805 264.958 204.561 265.222C204.323 265.48 204.203 265.833 204.203 266.281C204.203 266.892 204.43 267.355 204.882 267.668C205.339 267.976 205.919 268.13 206.62 268.13ZM222.895 253.693L223.79 254.767C223.442 255.105 223.039 255.341 222.582 255.475C222.124 255.609 221.607 255.691 221.031 255.721C220.454 255.751 219.812 255.781 219.107 255.811C218.311 255.84 217.652 256.034 217.13 256.392C216.608 256.75 216.206 257.267 215.922 257.943C215.639 258.62 215.457 259.45 215.378 260.434H215.527C215.915 259.718 216.452 259.191 217.138 258.853C217.824 258.515 218.56 258.346 219.345 258.346C220.24 258.346 221.045 258.555 221.761 258.973C222.477 259.39 223.044 260.009 223.462 260.829C223.879 261.65 224.088 262.662 224.088 263.865C224.088 265.063 223.874 266.097 223.447 266.967C223.024 267.837 222.43 268.508 221.664 268.98C220.904 269.448 220.011 269.681 218.987 269.681C217.963 269.681 217.066 269.44 216.295 268.958C215.524 268.471 214.925 267.75 214.498 266.795C214.07 265.836 213.857 264.65 213.857 263.238V262.015C213.857 259.465 214.289 257.531 215.154 256.213C216.024 254.896 217.332 254.215 219.077 254.17C219.693 254.15 220.243 254.145 220.725 254.155C221.207 254.165 221.627 254.143 221.985 254.088C222.343 254.033 222.646 253.902 222.895 253.693ZM218.987 268.1C219.678 268.1 220.272 267.926 220.77 267.578C221.272 267.23 221.657 266.741 221.925 266.109C222.194 265.473 222.328 264.725 222.328 263.865C222.328 263.029 222.191 262.318 221.918 261.732C221.649 261.145 221.264 260.698 220.762 260.389C220.26 260.081 219.658 259.927 218.957 259.927C218.445 259.927 217.985 260.014 217.578 260.188C217.17 260.362 216.822 260.618 216.534 260.956C216.245 261.294 216.022 261.707 215.863 262.194C215.708 262.681 215.626 263.238 215.616 263.865C215.616 265.147 215.917 266.174 216.519 266.945C217.12 267.715 217.943 268.1 218.987 268.1ZM231.014 269.681C229.979 269.681 229.072 269.435 228.292 268.943C227.516 268.451 226.91 267.762 226.472 266.877C226.04 265.992 225.823 264.958 225.823 263.775C225.823 262.582 226.04 261.54 226.472 260.651C226.91 259.761 227.516 259.07 228.292 258.577C229.072 258.085 229.979 257.839 231.014 257.839C232.048 257.839 232.952 258.085 233.728 258.577C234.509 259.07 235.115 259.761 235.548 260.651C235.985 261.54 236.204 262.582 236.204 263.775C236.204 264.958 235.985 265.992 235.548 266.877C235.115 267.762 234.509 268.451 233.728 268.943C232.952 269.435 232.048 269.681 231.014 269.681ZM231.014 268.1C231.799 268.1 232.445 267.899 232.952 267.496C233.46 267.094 233.835 266.564 234.079 265.908C234.322 265.252 234.444 264.541 234.444 263.775C234.444 263.01 234.322 262.296 234.079 261.635C233.835 260.974 233.46 260.439 232.952 260.032C232.445 259.624 231.799 259.42 231.014 259.42C230.228 259.42 229.582 259.624 229.075 260.032C228.568 260.439 228.192 260.974 227.949 261.635C227.705 262.296 227.583 263.01 227.583 263.775C227.583 264.541 227.705 265.252 227.949 265.908C228.192 266.564 228.568 267.094 229.075 267.496C229.582 267.899 230.228 268.1 231.014 268.1ZM236.973 259.629V257.988H246.28V259.629H242.522V269.443H240.762V259.629H236.973ZM249.949 262.135H253.23C254.572 262.135 255.599 262.475 256.31 263.156C257.021 263.837 257.376 264.7 257.376 265.744C257.376 266.43 257.217 267.054 256.899 267.616C256.581 268.173 256.113 268.617 255.497 268.951C254.881 269.279 254.125 269.443 253.23 269.443H248.427V257.988H250.187V267.802H253.23C253.926 267.802 254.498 267.618 254.945 267.25C255.393 266.882 255.616 266.41 255.616 265.833C255.616 265.227 255.393 264.732 254.945 264.349C254.498 263.967 253.926 263.775 253.23 263.775H249.949V262.135ZM259.196 269.443V257.988H260.956V269.443H259.196ZM265.04 269.562C264.672 269.562 264.356 269.43 264.093 269.167C263.829 268.903 263.698 268.588 263.698 268.22C263.698 267.852 263.829 267.536 264.093 267.273C264.356 267.009 264.672 266.877 265.04 266.877C265.408 266.877 265.724 267.009 265.987 267.273C266.251 267.536 266.382 267.852 266.382 268.22C266.382 268.463 266.32 268.687 266.196 268.891C266.077 269.095 265.915 269.259 265.711 269.383C265.512 269.502 265.289 269.562 265.04 269.562ZM265.04 261.061C264.672 261.061 264.356 260.929 264.093 260.665C263.829 260.402 263.698 260.086 263.698 259.718C263.698 259.35 263.829 259.035 264.093 258.771C264.356 258.508 264.672 258.376 265.04 258.376C265.408 258.376 265.724 258.508 265.987 258.771C266.251 259.035 266.382 259.35 266.382 259.718C266.382 259.962 266.32 260.186 266.196 260.389C266.077 260.593 265.915 260.757 265.711 260.882C265.512 261.001 265.289 261.061 265.04 261.061Z" fill="#4C5892" fill-opacity="0.75"/>
<path d="M273.656 269.443V267.444L278.958 262.246C279.465 261.734 279.888 261.279 280.226 260.882C280.564 260.484 280.818 260.099 280.987 259.726C281.156 259.353 281.24 258.955 281.24 258.533C281.24 258.05 281.131 257.638 280.912 257.295C280.693 256.947 280.393 256.678 280.01 256.489C279.627 256.3 279.192 256.206 278.705 256.206C278.203 256.206 277.763 256.31 277.385 256.519C277.007 256.723 276.714 257.014 276.505 257.392C276.301 257.769 276.199 258.219 276.199 258.741H273.567C273.567 257.772 273.788 256.929 274.23 256.213C274.673 255.497 275.282 254.943 276.057 254.55C276.838 254.158 277.733 253.961 278.742 253.961C279.766 253.961 280.666 254.153 281.442 254.535C282.217 254.918 282.819 255.443 283.246 256.109C283.679 256.775 283.895 257.536 283.895 258.391C283.895 258.963 283.786 259.524 283.567 260.076C283.348 260.628 282.963 261.24 282.411 261.911C281.864 262.582 281.096 263.395 280.107 264.349L277.474 267.027V267.131H284.126V269.443H273.656ZM291.924 269.734C290.696 269.734 289.642 269.423 288.762 268.801C287.887 268.175 287.214 267.273 286.741 266.094C286.274 264.911 286.04 263.487 286.04 261.821C286.045 260.156 286.281 258.739 286.749 257.571C287.221 256.397 287.895 255.502 288.77 254.886C289.65 254.269 290.701 253.961 291.924 253.961C293.147 253.961 294.199 254.269 295.079 254.886C295.959 255.502 296.632 256.397 297.1 257.571C297.572 258.744 297.808 260.161 297.808 261.821C297.808 263.492 297.572 264.919 297.1 266.102C296.632 267.28 295.959 268.18 295.079 268.801C294.204 269.423 293.152 269.734 291.924 269.734ZM291.924 267.399C292.879 267.399 293.632 266.93 294.184 265.99C294.741 265.045 295.019 263.656 295.019 261.821C295.019 260.608 294.892 259.589 294.639 258.764C294.385 257.939 294.027 257.317 293.565 256.899C293.103 256.477 292.556 256.266 291.924 256.266C290.975 256.266 290.224 256.738 289.672 257.682C289.12 258.622 288.842 260.002 288.837 261.821C288.832 263.039 288.954 264.064 289.202 264.894C289.456 265.724 289.814 266.35 290.276 266.773C290.739 267.191 291.288 267.399 291.924 267.399ZM303.894 269.443L303.879 267.22H304.274C304.573 267.22 304.824 267.153 305.028 267.019C305.232 266.885 305.401 266.661 305.535 266.348C305.669 266.03 305.773 265.602 305.848 265.065C305.923 264.528 305.975 263.86 306.005 263.059L306.206 257.988H314.558V269.443H311.948V260.203H308.659L308.48 263.894C308.436 264.849 308.329 265.677 308.16 266.378C307.996 267.074 307.762 267.648 307.459 268.1C307.161 268.553 306.785 268.891 306.333 269.115C305.88 269.333 305.346 269.443 304.729 269.443H303.894ZM321.927 269.666C320.779 269.666 319.787 269.428 318.952 268.951C318.122 268.468 317.483 267.787 317.035 266.907C316.588 266.022 316.364 264.981 316.364 263.783C316.364 262.604 316.588 261.57 317.035 260.68C317.488 259.785 318.119 259.089 318.93 258.592C319.74 258.09 320.692 257.839 321.786 257.839C322.492 257.839 323.158 257.953 323.784 258.182C324.416 258.406 324.973 258.754 325.455 259.226C325.942 259.698 326.325 260.3 326.603 261.031C326.882 261.757 327.021 262.622 327.021 263.626V264.454H317.632V262.634H324.433C324.428 262.117 324.316 261.657 324.098 261.255C323.879 260.847 323.573 260.526 323.18 260.293C322.793 260.059 322.34 259.942 321.823 259.942C321.271 259.942 320.786 260.076 320.369 260.345C319.951 260.608 319.626 260.956 319.392 261.389C319.163 261.816 319.046 262.286 319.041 262.798V264.387C319.041 265.053 319.163 265.625 319.407 266.102C319.65 266.574 319.991 266.937 320.429 267.191C320.866 267.439 321.378 267.564 321.965 267.564C322.358 267.564 322.713 267.509 323.031 267.399C323.349 267.285 323.625 267.119 323.859 266.9C324.093 266.681 324.269 266.41 324.388 266.087L326.909 266.37C326.75 267.037 326.447 267.618 325.999 268.115C325.557 268.608 324.99 268.99 324.299 269.264C323.608 269.532 322.817 269.666 321.927 269.666ZM327.93 260.203V257.988H337.953V260.203H334.247V269.443H331.636V260.203H327.93Z" fill="#5287DE"/>
</g>
<g filter="url(#filter3_d_69_222)">
<rect x="81" y="300.443" width="363" height="59" rx="18.0026" fill="white" shape-rendering="crispEdges"/>
<rect x="81.5001" y="300.943" width="362" height="57.9999" rx="17.5025" stroke="#CDCFD6" stroke-width="1.00014" shape-rendering="crispEdges"/>
<path d="M110.038 323.259L110.687 324.422C111.272 325.471 111.037 326.848 110.115 327.771C110.115 327.771 110.115 327.771 110.115 327.771C110.115 327.771 108.996 328.89 111.025 330.918C113.053 332.946 114.171 331.829 114.172 331.828C114.172 331.828 114.172 331.828 114.172 331.828C115.095 330.906 116.471 330.67 117.521 331.256L118.684 331.905C120.269 332.79 120.456 335.012 119.063 336.405C118.226 337.242 117.2 337.893 116.067 337.936C114.159 338.009 110.918 337.526 107.668 334.275C104.417 331.024 103.934 327.784 104.007 325.876C104.05 324.742 104.701 323.717 105.538 322.88C106.931 321.487 109.153 321.674 110.038 323.259Z" stroke="#7982AD" stroke-width="1.5" stroke-linecap="round"/>
<path d="M143.274 322.17V337.443H141.425V323.811H133.729V337.443H131.879V322.17H143.274ZM151.149 337.681C150.045 337.681 149.093 337.438 148.292 336.951C147.497 336.458 146.883 335.772 146.45 334.892C146.023 334.007 145.809 332.978 145.809 331.805C145.809 330.632 146.023 329.598 146.45 328.703C146.883 327.803 147.485 327.102 148.255 326.6C149.031 326.093 149.936 325.839 150.97 325.839C151.566 325.839 152.155 325.939 152.737 326.137C153.319 326.336 153.848 326.659 154.325 327.107C154.803 327.549 155.183 328.136 155.466 328.867C155.75 329.598 155.892 330.497 155.892 331.566V332.312H147.062V330.791H154.102C154.102 330.144 153.972 329.568 153.714 329.061C153.46 328.554 153.097 328.153 152.625 327.86C152.158 327.567 151.606 327.42 150.97 327.42C150.269 327.42 149.662 327.594 149.15 327.942C148.643 328.285 148.253 328.733 147.979 329.284C147.706 329.836 147.569 330.428 147.569 331.059V332.073C147.569 332.939 147.718 333.672 148.017 334.273C148.32 334.87 148.74 335.325 149.277 335.638C149.814 335.946 150.438 336.1 151.149 336.1C151.611 336.1 152.029 336.036 152.401 335.907C152.779 335.772 153.105 335.573 153.378 335.31C153.652 335.041 153.863 334.708 154.012 334.311L155.713 334.788C155.534 335.365 155.233 335.872 154.81 336.309C154.388 336.742 153.866 337.08 153.244 337.323C152.623 337.562 151.924 337.681 151.149 337.681ZM158.149 341.738V325.988H159.849V327.808H160.058C160.187 327.609 160.366 327.355 160.595 327.047C160.828 326.734 161.162 326.456 161.594 326.212C162.032 325.963 162.623 325.839 163.369 325.839C164.333 325.839 165.184 326.08 165.919 326.562C166.655 327.045 167.229 327.728 167.642 328.613C168.055 329.498 168.261 330.542 168.261 331.745C168.261 332.958 168.055 334.01 167.642 334.9C167.229 335.785 166.658 336.471 165.927 336.958C165.196 337.44 164.353 337.681 163.399 337.681C162.663 337.681 162.074 337.56 161.631 337.316C161.189 337.067 160.848 336.787 160.61 336.473C160.371 336.155 160.187 335.892 160.058 335.683H159.909V341.738H158.149ZM159.879 331.715C159.879 332.581 160.006 333.344 160.259 334.005C160.513 334.661 160.883 335.176 161.37 335.549C161.858 335.916 162.454 336.1 163.16 336.1C163.896 336.1 164.51 335.907 165.002 335.519C165.499 335.126 165.872 334.599 166.121 333.938C166.374 333.272 166.501 332.531 166.501 331.715C166.501 330.91 166.377 330.184 166.128 329.538C165.885 328.887 165.514 328.372 165.017 327.994C164.525 327.611 163.906 327.42 163.16 327.42C162.444 327.42 161.843 327.601 161.355 327.964C160.868 328.322 160.5 328.825 160.252 329.471C160.003 330.112 159.879 330.86 159.879 331.715ZM175.328 337.681C174.224 337.681 173.272 337.438 172.472 336.951C171.677 336.458 171.063 335.772 170.63 334.892C170.202 334.007 169.989 332.978 169.989 331.805C169.989 330.632 170.202 329.598 170.63 328.703C171.063 327.803 171.664 327.102 172.435 326.6C173.21 326.093 174.115 325.839 175.149 325.839C175.746 325.839 176.335 325.939 176.917 326.137C177.498 326.336 178.028 326.659 178.505 327.107C178.982 327.549 179.363 328.136 179.646 328.867C179.929 329.598 180.071 330.497 180.071 331.566V332.312H171.242V330.791H178.281C178.281 330.144 178.152 329.568 177.894 329.061C177.64 328.554 177.277 328.153 176.805 327.86C176.337 327.567 175.786 327.42 175.149 327.42C174.448 327.42 173.842 327.594 173.33 327.942C172.822 328.285 172.432 328.733 172.159 329.284C171.885 329.836 171.749 330.428 171.749 331.059V332.073C171.749 332.939 171.898 333.672 172.196 334.273C172.499 334.87 172.919 335.325 173.456 335.638C173.993 335.946 174.617 336.1 175.328 336.1C175.791 336.1 176.208 336.036 176.581 335.907C176.959 335.772 177.284 335.573 177.558 335.31C177.831 335.041 178.043 334.708 178.192 334.311L179.892 334.788C179.713 335.365 179.412 335.872 178.99 336.309C178.567 336.742 178.045 337.08 177.424 337.323C176.802 337.562 176.104 337.681 175.328 337.681ZM181.612 334.519H183.492C183.531 335.037 183.765 335.429 184.193 335.698C184.625 335.966 185.187 336.1 185.878 336.1C186.584 336.1 187.188 335.956 187.69 335.668C188.192 335.375 188.443 334.902 188.443 334.251C188.443 333.868 188.349 333.535 188.16 333.252C187.971 332.963 187.705 332.74 187.362 332.581C187.019 332.421 186.614 332.342 186.146 332.342H184.178V330.761H186.146C186.847 330.761 187.364 330.602 187.698 330.284C188.036 329.965 188.205 329.568 188.205 329.09C188.205 328.578 188.023 328.168 187.66 327.86C187.297 327.547 186.783 327.39 186.117 327.39C185.445 327.39 184.886 327.542 184.439 327.845C183.991 328.143 183.755 328.529 183.73 329.001H181.881C181.901 328.385 182.09 327.84 182.448 327.368C182.806 326.891 183.293 326.518 183.909 326.249C184.526 325.976 185.232 325.839 186.027 325.839C186.833 325.839 187.531 325.981 188.123 326.264C188.719 326.543 189.179 326.923 189.502 327.405C189.83 327.882 189.994 328.424 189.994 329.031C189.994 329.677 189.813 330.199 189.45 330.597C189.087 330.995 188.632 331.278 188.085 331.447V331.566C188.518 331.596 188.893 331.735 189.211 331.984C189.535 332.228 189.786 332.548 189.965 332.946C190.144 333.339 190.233 333.774 190.233 334.251C190.233 334.947 190.047 335.554 189.674 336.071C189.301 336.583 188.789 336.98 188.138 337.264C187.486 337.542 186.743 337.681 185.908 337.681C185.097 337.681 184.372 337.55 183.73 337.286C183.089 337.018 182.579 336.647 182.201 336.175C181.829 335.698 181.632 335.146 181.612 334.519ZM192.285 337.443V325.988H196.968C198.201 325.988 199.181 326.267 199.907 326.823C200.633 327.38 200.995 328.116 200.995 329.031C200.995 329.727 200.789 330.266 200.376 330.649C199.964 331.027 199.434 331.283 198.788 331.417C199.211 331.477 199.621 331.626 200.019 331.865C200.421 332.103 200.754 332.431 201.018 332.849C201.281 333.262 201.413 333.769 201.413 334.37C201.413 334.957 201.264 335.481 200.966 335.944C200.667 336.406 200.24 336.772 199.683 337.04C199.126 337.309 198.46 337.443 197.684 337.443H192.285ZM193.956 335.832H197.684C198.291 335.832 198.766 335.688 199.109 335.399C199.452 335.111 199.623 334.718 199.623 334.221C199.623 333.63 199.452 333.165 199.109 332.827C198.766 332.484 198.291 332.312 197.684 332.312H193.956V335.832ZM193.956 330.791H196.968C197.441 330.791 197.846 330.726 198.184 330.597C198.522 330.463 198.781 330.274 198.96 330.03C199.144 329.782 199.235 329.488 199.235 329.15C199.235 328.668 199.034 328.29 198.631 328.017C198.229 327.738 197.674 327.599 196.968 327.599H193.956V330.791ZM208.311 337.681C207.277 337.681 206.369 337.435 205.589 336.943C204.813 336.451 204.207 335.762 203.769 334.877C203.337 333.992 203.12 332.958 203.12 331.775C203.12 330.582 203.337 329.54 203.769 328.651C204.207 327.761 204.813 327.07 205.589 326.577C206.369 326.085 207.277 325.839 208.311 325.839C209.345 325.839 210.25 326.085 211.025 326.577C211.806 327.07 212.412 327.761 212.845 328.651C213.282 329.54 213.501 330.582 213.501 331.775C213.501 332.958 213.282 333.992 212.845 334.877C212.412 335.762 211.806 336.451 211.025 336.943C210.25 337.435 209.345 337.681 208.311 337.681ZM208.311 336.1C209.096 336.1 209.742 335.899 210.25 335.496C210.757 335.094 211.132 334.564 211.376 333.908C211.619 333.252 211.741 332.541 211.741 331.775C211.741 331.01 211.619 330.296 211.376 329.635C211.132 328.974 210.757 328.439 210.25 328.032C209.742 327.624 209.096 327.42 208.311 327.42C207.525 327.42 206.879 327.624 206.372 328.032C205.865 328.439 205.489 328.974 205.246 329.635C205.002 330.296 204.88 331.01 204.88 331.775C204.88 332.541 205.002 333.252 205.246 333.908C205.489 334.564 205.865 335.094 206.372 335.496C206.879 335.899 207.525 336.1 208.311 336.1ZM223.434 330.91V332.551H217.11V330.91H223.434ZM217.527 325.988V337.443H215.767V325.988H217.527ZM224.776 325.988V337.443H223.016V325.988H224.776ZM229.33 334.848L234.849 325.988H236.877V337.443H235.117V328.583L229.628 337.443H227.57V325.988H229.33V334.848ZM245.945 335.056L249.942 325.988H251.612L246.661 337.443H245.229L240.366 325.988H242.007L245.945 335.056ZM241.44 325.988V337.443H239.68V325.988H241.44ZM250.449 337.443V325.988H252.209V337.443H250.449ZM269.326 325.988V337.443H267.566V325.988H269.326ZM268.64 331.447V333.088C268.242 333.237 267.847 333.369 267.454 333.483C267.062 333.592 266.649 333.679 266.216 333.744C265.784 333.804 265.309 333.833 264.792 333.833C263.495 333.833 262.453 333.483 261.667 332.782C260.887 332.081 260.497 331.029 260.497 329.627V325.958H262.257V329.627C262.257 330.214 262.368 330.696 262.592 331.074C262.816 331.452 263.119 331.733 263.502 331.917C263.885 332.101 264.315 332.193 264.792 332.193C265.538 332.193 266.212 332.126 266.813 331.991C267.42 331.852 268.029 331.671 268.64 331.447ZM276.938 337.681C275.834 337.681 274.882 337.438 274.082 336.951C273.286 336.458 272.672 335.772 272.24 334.892C271.812 334.007 271.598 332.978 271.598 331.805C271.598 330.632 271.812 329.598 272.24 328.703C272.672 327.803 273.274 327.102 274.044 326.6C274.82 326.093 275.725 325.839 276.759 325.839C277.355 325.839 277.945 325.939 278.526 326.137C279.108 326.336 279.637 326.659 280.115 327.107C280.592 327.549 280.972 328.136 281.256 328.867C281.539 329.598 281.681 330.497 281.681 331.566V332.312H272.851V330.791H279.891C279.891 330.144 279.762 329.568 279.503 329.061C279.25 328.554 278.887 328.153 278.414 327.86C277.947 327.567 277.395 327.42 276.759 327.42C276.058 327.42 275.451 327.594 274.939 327.942C274.432 328.285 274.042 328.733 273.768 329.284C273.495 329.836 273.358 330.428 273.358 331.059V332.073C273.358 332.939 273.507 333.672 273.806 334.273C274.109 334.87 274.529 335.325 275.066 335.638C275.603 335.946 276.227 336.1 276.938 336.1C277.4 336.1 277.818 336.036 278.191 335.907C278.568 335.772 278.894 335.573 279.168 335.31C279.441 335.041 279.652 334.708 279.801 334.311L281.502 334.788C281.323 335.365 281.022 335.872 280.599 336.309C280.177 336.742 279.655 337.08 279.033 337.323C278.412 337.562 277.713 337.681 276.938 337.681ZM283.938 341.738V325.988H285.638V327.808H285.847C285.976 327.609 286.155 327.355 286.384 327.047C286.618 326.734 286.951 326.456 287.383 326.212C287.821 325.963 288.412 325.839 289.158 325.839C290.123 325.839 290.973 326.08 291.708 326.562C292.444 327.045 293.019 327.728 293.431 328.613C293.844 329.498 294.05 330.542 294.05 331.745C294.05 332.958 293.844 334.01 293.431 334.9C293.019 335.785 292.447 336.471 291.716 336.958C290.985 337.44 290.142 337.681 289.188 337.681C288.452 337.681 287.863 337.56 287.42 337.316C286.978 337.067 286.637 336.787 286.399 336.473C286.16 336.155 285.976 335.892 285.847 335.683H285.698V341.738H283.938ZM285.668 331.715C285.668 332.581 285.795 333.344 286.048 334.005C286.302 334.661 286.672 335.176 287.159 335.549C287.647 335.916 288.243 336.1 288.949 336.1C289.685 336.1 290.299 335.907 290.791 335.519C291.288 335.126 291.661 334.599 291.91 333.938C292.163 333.272 292.29 332.531 292.29 331.715C292.29 330.91 292.166 330.184 291.917 329.538C291.674 328.887 291.303 328.372 290.806 327.994C290.314 327.611 289.695 327.42 288.949 327.42C288.233 327.42 287.632 327.601 287.145 327.964C286.657 328.322 286.289 328.825 286.041 329.471C285.792 330.112 285.668 330.86 285.668 331.715ZM301.117 337.681C300.014 337.681 299.062 337.438 298.261 336.951C297.466 336.458 296.852 335.772 296.419 334.892C295.992 334.007 295.778 332.978 295.778 331.805C295.778 330.632 295.992 329.598 296.419 328.703C296.852 327.803 297.453 327.102 298.224 326.6C298.999 326.093 299.904 325.839 300.938 325.839C301.535 325.839 302.124 325.939 302.706 326.137C303.287 326.336 303.817 326.659 304.294 327.107C304.771 327.549 305.152 328.136 305.435 328.867C305.719 329.598 305.86 330.497 305.86 331.566V332.312H297.031V330.791H304.07C304.07 330.144 303.941 329.568 303.683 329.061C303.429 328.554 303.066 328.153 302.594 327.86C302.127 327.567 301.575 327.42 300.938 327.42C300.237 327.42 299.631 327.594 299.119 327.942C298.612 328.285 298.221 328.733 297.948 329.284C297.675 329.836 297.538 330.428 297.538 331.059V332.073C297.538 332.939 297.687 333.672 297.985 334.273C298.288 334.87 298.709 335.325 299.246 335.638C299.782 335.946 300.406 336.1 301.117 336.1C301.58 336.1 301.997 336.036 302.37 335.907C302.748 335.772 303.074 335.573 303.347 335.31C303.621 335.041 303.832 334.708 303.981 334.311L305.681 334.788C305.502 335.365 305.201 335.872 304.779 336.309C304.356 336.742 303.834 337.08 303.213 337.323C302.591 337.562 301.893 337.681 301.117 337.681ZM307.402 334.519H309.281C309.321 335.037 309.554 335.429 309.982 335.698C310.414 335.966 310.976 336.1 311.667 336.1C312.373 336.1 312.977 335.956 313.479 335.668C313.981 335.375 314.232 334.902 314.232 334.251C314.232 333.868 314.138 333.535 313.949 333.252C313.76 332.963 313.494 332.74 313.151 332.581C312.808 332.421 312.403 332.342 311.936 332.342H309.967V330.761H311.936C312.637 330.761 313.154 330.602 313.487 330.284C313.825 329.965 313.994 329.568 313.994 329.09C313.994 328.578 313.812 328.168 313.449 327.86C313.087 327.547 312.572 327.39 311.906 327.39C311.235 327.39 310.675 327.542 310.228 327.845C309.78 328.143 309.544 328.529 309.519 329.001H307.67C307.69 328.385 307.879 327.84 308.237 327.368C308.595 326.891 309.082 326.518 309.698 326.249C310.315 325.976 311.021 325.839 311.816 325.839C312.622 325.839 313.32 325.981 313.912 326.264C314.508 326.543 314.968 326.923 315.291 327.405C315.62 327.882 315.784 328.424 315.784 329.031C315.784 329.677 315.602 330.199 315.239 330.597C314.876 330.995 314.421 331.278 313.875 331.447V331.566C314.307 331.596 314.682 331.735 315.001 331.984C315.324 332.228 315.575 332.548 315.754 332.946C315.933 333.339 316.022 333.774 316.022 334.251C316.022 334.947 315.836 335.554 315.463 336.071C315.09 336.583 314.578 336.98 313.927 337.264C313.275 337.542 312.532 337.681 311.697 337.681C310.887 337.681 310.161 337.55 309.519 337.286C308.878 337.018 308.368 336.647 307.991 336.175C307.618 335.698 307.421 335.146 307.402 334.519Z" fill="#4C5892" fill-opacity="0.75"/>
<path d="M328.822 322.17V337.443H326.055V324.862H325.966L322.394 327.144V324.609L326.189 322.17H328.822ZM337.589 337.652C336.595 337.652 335.705 337.465 334.92 337.092C334.134 336.714 333.51 336.197 333.048 335.541C332.59 334.885 332.347 334.134 332.317 333.289H335.002C335.051 333.915 335.322 334.427 335.814 334.825C336.307 335.218 336.898 335.414 337.589 335.414C338.131 335.414 338.613 335.29 339.036 335.041C339.459 334.793 339.792 334.447 340.035 334.005C340.279 333.562 340.398 333.058 340.393 332.491C340.398 331.914 340.276 331.402 340.028 330.955C339.779 330.507 339.439 330.157 339.006 329.903C338.574 329.645 338.077 329.516 337.515 329.516C337.057 329.511 336.607 329.595 336.165 329.769C335.722 329.943 335.372 330.172 335.113 330.455L332.615 330.045L333.413 322.17H342.273V324.482H335.703L335.263 328.531H335.352C335.635 328.198 336.036 327.922 336.553 327.703C337.07 327.48 337.637 327.368 338.253 327.368C339.178 327.368 340.003 327.587 340.729 328.024C341.455 328.457 342.026 329.053 342.444 329.814C342.862 330.575 343.071 331.445 343.071 332.424C343.071 333.433 342.837 334.333 342.37 335.124C341.907 335.909 341.263 336.528 340.438 336.98C339.618 337.428 338.668 337.652 337.589 337.652ZM354.964 337.666C353.821 337.666 352.839 337.415 352.018 336.913C351.203 336.411 350.574 335.718 350.132 334.833C349.694 333.943 349.475 332.919 349.475 331.76C349.475 330.597 349.699 329.57 350.147 328.68C350.594 327.785 351.225 327.089 352.041 326.592C352.861 326.09 353.83 325.839 354.949 325.839C355.879 325.839 356.702 326.011 357.417 326.354C358.138 326.692 358.713 327.171 359.14 327.793C359.568 328.409 359.811 329.13 359.871 329.956H357.291C357.186 329.404 356.938 328.944 356.545 328.576C356.157 328.203 355.638 328.017 354.986 328.017C354.435 328.017 353.95 328.166 353.532 328.464C353.115 328.757 352.789 329.18 352.555 329.732C352.327 330.284 352.212 330.945 352.212 331.715C352.212 332.496 352.327 333.167 352.555 333.729C352.784 334.286 353.105 334.716 353.517 335.019C353.935 335.317 354.425 335.467 354.986 335.467C355.384 335.467 355.74 335.392 356.053 335.243C356.371 335.089 356.637 334.867 356.851 334.579C357.064 334.291 357.211 333.94 357.291 333.528H359.871C359.806 334.338 359.568 335.056 359.155 335.683C358.742 336.304 358.181 336.791 357.47 337.144C356.759 337.492 355.924 337.666 354.964 337.666ZM366.739 337.666C365.59 337.666 364.598 337.428 363.763 336.951C362.933 336.468 362.294 335.787 361.847 334.907C361.399 334.022 361.175 332.981 361.175 331.783C361.175 330.604 361.399 329.57 361.847 328.68C362.299 327.785 362.93 327.089 363.741 326.592C364.551 326.09 365.503 325.839 366.597 325.839C367.303 325.839 367.969 325.953 368.596 326.182C369.227 326.406 369.784 326.754 370.266 327.226C370.753 327.698 371.136 328.3 371.414 329.031C371.693 329.757 371.832 330.622 371.832 331.626V332.454H362.443V330.634H369.244C369.239 330.117 369.128 329.657 368.909 329.255C368.69 328.847 368.384 328.526 367.992 328.293C367.604 328.059 367.151 327.942 366.634 327.942C366.082 327.942 365.598 328.076 365.18 328.345C364.762 328.608 364.437 328.956 364.203 329.389C363.974 329.816 363.858 330.286 363.853 330.798V332.387C363.853 333.053 363.974 333.625 364.218 334.102C364.462 334.574 364.802 334.937 365.24 335.191C365.677 335.439 366.189 335.564 366.776 335.564C367.169 335.564 367.524 335.509 367.842 335.399C368.161 335.285 368.436 335.119 368.67 334.9C368.904 334.681 369.08 334.41 369.2 334.087L371.72 334.37C371.561 335.037 371.258 335.618 370.81 336.115C370.368 336.608 369.801 336.99 369.11 337.264C368.419 337.532 367.629 337.666 366.739 337.666ZM373.696 337.443V325.988H376.395V330.612H377.38L380.825 325.988H384.077L379.833 331.611L384.121 337.443H380.855L377.715 333.125H376.395V337.443H373.696ZM387.033 341.738C386.665 341.738 386.324 341.708 386.011 341.649C385.703 341.594 385.457 341.529 385.273 341.455L385.899 339.352C386.292 339.466 386.643 339.521 386.951 339.516C387.259 339.511 387.53 339.414 387.764 339.225C388.002 339.041 388.204 338.733 388.368 338.3L388.599 337.681L384.445 325.988H387.309L389.949 334.639H390.068L392.715 325.988H395.587L391 338.83C390.786 339.436 390.503 339.956 390.15 340.388C389.797 340.826 389.365 341.159 388.853 341.388C388.345 341.621 387.739 341.738 387.033 341.738ZM404.902 330.597V332.812H398.802V330.597H404.902ZM399.637 325.988V337.443H397.035V325.988H399.637ZM406.67 325.988V337.443H404.074V325.988H406.67ZM407.967 340.769V335.22H408.876C409.12 335.032 409.324 334.776 409.488 334.452C409.652 334.124 409.786 333.739 409.891 333.296C410 332.849 410.089 332.349 410.159 331.798C410.229 331.241 410.291 330.642 410.346 330L410.674 325.988H418.951V335.22H420.726V340.769H418.116V337.443H410.621V340.769H407.967ZM411.651 335.22H416.371V328.166H413.015L412.836 330C412.737 331.213 412.605 332.252 412.441 333.117C412.277 333.983 412.013 334.684 411.651 335.22Z" fill="#5287DE"/>
</g>
<defs>
<filter id="filter0_d_69_222" x="54.1962" y="94.6425" width="416.608" height="112.608" filterUnits="userSpaceOnUse" color-interpolation-filters="sRGB">
<feFlood flood-opacity="0" result="BackgroundImageFix"/>
<feColorMatrix in="SourceAlpha" type="matrix" values="0 0 0 0 0 0 0 0 0 0 0 0 0 0 0 0 0 0 127 0" result="hardAlpha"/>
<feOffset dy="25.0036"/>
<feGaussianBlur stdDeviation="13.4019"/>
<feComposite in2="hardAlpha" operator="out"/>
<feColorMatrix type="matrix" values="0 0 0 0 0.0288889 0 0 0 0 0.0466667 0 0 0 0 0.133333 0 0 0 0.05 0"/>
<feBlend mode="normal" in2="BackgroundImageFix" result="effect1_dropShadow_69_222"/>
<feBlend mode="normal" in="SourceGraphic" in2="effect1_dropShadow_69_222" result="shape"/>
</filter>
<filter id="filter1_d_69_222" x="54.1962" y="162.643" width="416.608" height="112.608" filterUnits="userSpaceOnUse" color-interpolation-filters="sRGB">
<feFlood flood-opacity="0" result="BackgroundImageFix"/>
<feColorMatrix in="SourceAlpha" type="matrix" values="0 0 0 0 0 0 0 0 0 0 0 0 0 0 0 0 0 0 127 0" result="hardAlpha"/>
<feOffset dy="25.0036"/>
<feGaussianBlur stdDeviation="13.4019"/>
<feComposite in2="hardAlpha" operator="out"/>
<feColorMatrix type="matrix" values="0 0 0 0 0.0288889 0 0 0 0 0.0466667 0 0 0 0 0.133333 0 0 0 0.05 0"/>
<feBlend mode="normal" in2="BackgroundImageFix" result="effect1_dropShadow_69_222"/>
<feBlend mode="normal" in="SourceGraphic" in2="effect1_dropShadow_69_222" result="shape"/>
</filter>
<filter id="filter2_d_69_222" x="54.1962" y="230.643" width="416.608" height="112.608" filterUnits="userSpaceOnUse" color-interpolation-filters="sRGB">
<feFlood flood-opacity="0" result="BackgroundImageFix"/>
<feColorMatrix in="SourceAlpha" type="matrix" values="0 0 0 0 0 0 0 0 0 0 0 0 0 0 0 0 0 0 127 0" result="hardAlpha"/>
<feOffset dy="25.0036"/>
<feGaussianBlur stdDeviation="13.4019"/>
<feComposite in2="hardAlpha" operator="out"/>
<feColorMatrix type="matrix" values="0 0 0 0 0.0288889 0 0 0 0 0.0466667 0 0 0 0 0.133333 0 0 0 0.05 0"/>
<feBlend mode="normal" in2="BackgroundImageFix" result="effect1_dropShadow_69_222"/>
<feBlend mode="normal" in="SourceGraphic" in2="effect1_dropShadow_69_222" result="shape"/>
</filter>
<filter id="filter3_d_69_222" x="54.1962" y="298.643" width="416.608" height="112.608" filterUnits="userSpaceOnUse" color-interpolation-filters="sRGB">
<feFlood flood-opacity="0" result="BackgroundImageFix"/>
<feColorMatrix in="SourceAlpha" type="matrix" values="0 0 0 0 0 0 0 0 0 0 0 0 0 0 0 0 0 0 127 0" result="hardAlpha"/>
<feOffset dy="25.0036"/>
<feGaussianBlur stdDeviation="13.4019"/>
<feComposite in2="hardAlpha" operator="out"/>
<feColorMatrix type="matrix" values="0 0 0 0 0.0288889 0 0 0 0 0.0466667 0 0 0 0 0.133333 0 0 0 0.05 0"/>
<feBlend mode="normal" in2="BackgroundImageFix" result="effect1_dropShadow_69_222"/>
<feBlend mode="normal" in="SourceGraphic" in2="effect1_dropShadow_69_222" result="shape"/>
</filter>
</defs>
</svg>
