<?xml version="1.0" encoding="utf-8"?><svg viewBox="0 0 128 128" xmlns="http://www.w3.org/2000/svg" xmlns:xlink="http://www.w3.org/1999/xlink"><style>:root>svg{display:none}:root>svg:target{display:block}</style><svg viewBox="0 0 34 34" id="bookmark" xmlns="http://www.w3.org/2000/svg"><path d="M5.667 11.333c0-4.007 0-6.01 1.244-7.255 1.245-1.245 3.249-1.245 7.256-1.245h5.666c4.007 0 6.01 0 7.256 1.245 1.244 1.245 1.244 3.248 1.244 7.255v11.334c0 4.007 0 6.01-1.244 7.255-1.245 1.245-3.249 1.245-7.256 1.245h-5.666c-4.007 0-6.01 0-7.256-1.245-1.244-1.245-1.244-3.248-1.244-7.255V11.333z"/><path d="M28.189 22.667h-17c-1.318 0-1.977 0-2.517.144a4.25 4.25 0 00-3.005 3.006M9.917 22.667V3.542"/><path d="M18.417 22.667v5.002c0 .39 0 .585-.135.664-.134.08-.318-.008-.685-.183l-1.76-.836c-.125-.059-.187-.088-.254-.088s-.129.03-.253.088l-1.76.836c-.367.175-.551.262-.686.183-.134-.079-.134-.274-.134-.664v-4.365"/></svg><svg viewBox="0 0 34 34" id="case" xmlns="http://www.w3.org/2000/svg"><path d="M2.833 19.833c0-5.342 0-8.013 1.66-9.673C6.153 8.5 8.824 8.5 14.167 8.5h5.666c5.343 0 8.014 0 9.674 1.66 1.66 1.66 1.66 4.33 1.66 9.673s0 8.014-1.66 9.674c-1.66 1.66-4.331 1.66-9.674 1.66h-5.666c-5.343 0-8.014 0-9.674-1.66-1.66-1.66-1.66-4.331-1.66-9.674z"/><path d="M30.687 12.353c-4.264 2.771-6.396 4.157-8.643 4.856a17 17 0 01-10.088 0c-2.247-.699-4.38-2.085-8.643-4.856M11.333 15.583v2.834M22.667 15.583v2.834M12.992 5.667a4.252 4.252 0 018.016 0"/></svg><svg viewBox="0 0 34 34" id="court-hammer" xmlns="http://www.w3.org/2000/svg"><g clip-path="url(#cclip0_21_612)"><path d="M17.986 2.22l-8.017 8.016a2.66 2.66 0 000 3.767l1.004 1.004a2.66 2.66 0 003.763.004l.127-.125.234.238L2.374 27.846a2.678 2.678 0 000 3.78 2.662 2.662 0 003.766 0v-.001l12.73-12.73.236.236-.112.114a2.652 2.652 0 00.003 3.787l.987.986a2.678 2.678 0 003.78 0l8.003-8.004a2.678 2.678 0 00.004-3.776l-.99-1.003-.005-.006a2.678 2.678 0 00-3.78 0l-.122.122-.45-.45a2.677 2.677 0 00-1.526-3.253 2.66 2.66 0 00-1.795-.088l-.458-.46.1-.098.006-.006.006-.006a2.66 2.66 0 000-3.766l-.884.884.884-.884-1.005-1.004v-.001a2.661 2.661 0 00-3.766 0zm13.18 30.197h1.25V29.75a4.083 4.083 0 00-4.083-4.083h-8.5a4.083 4.083 0 00-4.083 4.083v2.667h15.417z"/></g><defs><clipPath id="cclip0_21_612"><path d="M0 0h34v34H0z"/></clipPath></defs></svg><svg viewBox="0 0 34 34" id="earth" xmlns="http://www.w3.org/2000/svg"><circle cx="17" cy="17" r="14.167"/><path d="M8.5 6.673c1.105 1.007 3.382 3.758 3.648 6.71.248 2.76 2.07 5.003 4.852 5.034 1.07.011 2.151-.761 2.148-1.83 0-.331-.055-.67-.14-.98-.12-.433-.13-.931.117-1.44.864-1.782 2.563-2.26 3.91-3.228.597-.429 1.142-.882 1.382-1.246.663-1.007 1.326-3.02.995-4.026M31.167 18.417c-.467 1.319-.797 4.78-6.066 4.836 0 0-4.666 0-6.066 2.638-1.12 2.11-.467 4.396 0 5.276"/></svg><svg viewBox="0 0 29 29" id="education" xmlns="http://www.w3.org/2000/svg"><path d="M3.283 17.183v-5.756m18.293 2.414l-4.723 3.112a4.667 4.667 0 01-5.136 0l-4.724-3.111v5.906c0 .577.139 1.151.513 1.591.872 1.023 2.934 2.788 6.779 2.788 3.845 0 5.907-1.765 6.778-2.788.373-.44.514-1.014.514-1.591v-5.906l2.893-1.906a1.4 1.4 0 000-2.338l-7.618-5.02a4.667 4.667 0 00-5.135 0L3.805 9.794a1.155 1.155 0 00-.525.998m3.713 3.05l-3.188-2.099a1.155 1.155 0 01-.525-.95m0 0v.636"/></svg><svg viewBox="0 0 28 28" id="exp" xmlns="http://www.w3.org/2000/svg"><path d="M2.333 16.333c0-4.4 0-6.6 1.367-7.966C5.067 7 7.267 7 11.667 7h4.666c4.4 0 6.6 0 7.967 1.367s1.367 3.567 1.367 7.966c0 4.4 0 6.6-1.367 7.967s-3.567 1.367-7.967 1.367h-4.666c-4.4 0-6.6 0-7.967-1.367s-1.367-3.567-1.367-7.967z"/><path d="M25.272 10.173c-3.511 2.283-5.267 3.424-7.118 3.999-2.706.84-5.602.84-8.308 0-1.85-.575-3.606-1.716-7.118-3.999M9.333 12.834v2.333M18.667 12.834v2.333M10.7 4.667a3.501 3.501 0 016.6 0"/></svg><svg viewBox="0 0 29 29" id="exp-new" xmlns="http://www.w3.org/2000/svg"><path d="M14.19 2.934A6.417 6.417 0 0117.8 14.655a10.506 10.506 0 016.883 9.545.875.875 0 11-1.748.05 8.75 8.75 0 00-17.492 0 .876.876 0 11-1.75-.052 10.506 10.506 0 016.883-9.543A6.417 6.417 0 0114.19 2.934zM9.521 9.35a4.667 4.667 0 109.334 0 4.667 4.667 0 00-9.334 0z"/></svg><svg viewBox="0 0 128 128" id="favicon" xmlns="http://www.w3.org/2000/svg"><path d="M16 55.556c0-17.054 0-25.581 2.013-28.45 2.014-2.869 10.031-5.613 26.067-11.102l3.055-1.046c8.358-2.86 12.538-4.291 16.865-4.291 4.327 0 8.507 1.43 16.865 4.292l3.056 1.045c16.035 5.49 24.052 8.233 26.066 11.102C112 29.975 112 38.502 112 55.556v8.398c0 30.07-22.608 44.662-36.792 50.858-3.848 1.681-5.772 2.521-11.208 2.521s-7.36-.84-11.208-2.521C38.608 108.616 16 94.024 16 63.954v-8.398z"/></svg><svg viewBox="0 0 27 27" id="free" xmlns="http://www.w3.org/2000/svg"><path d="M24.75 13.5H2.25M13.5 2.25v22.5M14.625 13.5a4.5 4.5 0 004.5 4.5M12.375 13.5a4.5 4.5 0 01-4.5 4.5"/><path d="M13.5 11.29a3.653 3.653 0 012.767-3.544c1.804-.451 3.438 1.183 2.987 2.987A3.653 3.653 0 0115.71 13.5H13.5v-2.21z"/><path d="M13.5 11.29a3.653 3.653 0 00-2.767-3.544c-1.804-.451-3.438 1.183-2.987 2.987a3.653 3.653 0 003.543 2.767H13.5v-2.21z"/><path d="M2.25 13.5c0-5.303 0-7.955 1.648-9.602C5.545 2.25 8.197 2.25 13.5 2.25s7.955 0 9.602 1.648C24.75 5.545 24.75 8.197 24.75 13.5s0 7.955-1.648 9.602c-1.647 1.648-4.299 1.648-9.602 1.648s-7.955 0-9.602-1.648C2.25 21.456 2.25 18.803 2.25 13.5z"/></svg><svg viewBox="0 0 17 17" id="gift" xmlns="http://www.w3.org/2000/svg"><path d="M15.258 8.646H2.073M8.666 2.053v13.185M9.325 8.646a2.637 2.637 0 002.637 2.637M8.006 8.646a2.637 2.637 0 01-2.637 2.637M8.666 7.35a2.14 2.14 0 011.621-2.077 1.444 1.444 0 011.75 1.751 2.14 2.14 0 01-2.076 1.622H8.666V7.35zM8.665 7.35a2.14 2.14 0 00-1.621-2.077 1.444 1.444 0 00-1.75 1.751A2.14 2.14 0 007.37 8.646h1.295V7.35z"/><path d="M2.073 8.646c0-3.108 0-4.662.965-5.628.966-.965 2.52-.965 5.627-.965 3.108 0 4.662 0 5.628.965.965.966.965 2.52.965 5.628 0 3.107 0 4.661-.965 5.627-.966.966-2.52.966-5.628.966-3.107 0-4.661 0-5.627-.966-.965-.966-.965-2.52-.965-5.627z"/></svg><svg viewBox="0 0 34 34" id="handcuffs" xmlns="http://www.w3.org/2000/svg"><path d="M2.833 20.07c0 4.564 3.806 8.263 8.5 8.263 4.695 0 8.5-3.699 8.5-8.263 0-2.805-1.436-5.283-3.633-6.776-.438-.298-.617-.547-.617-1.094 0-1.137 0-1.705-.188-2.156-.64-1.53-2.163-1.544-3.617-1.544h-.89c-1.453 0-2.974.014-3.616 1.544-.189.45-.189 1.02-.189 2.156 0 .522-.164.787-.616 1.094-2.197 1.493-3.634 3.97-3.634 6.776z"/><path d="M20.556 11.427c.53-.09 1.104-.094 1.667-.094h.89c1.454 0 2.975.014 3.617 1.544.188.45.188 1.02.188 2.157 0 .546.179.794.616 1.093 2.196 1.494 3.634 3.971 3.634 6.776-.001 4.563-3.805 8.264-8.501 8.264a8.642 8.642 0 01-3.91-.925M11.333 22.667a2.833 2.833 0 100-5.667 2.833 2.833 0 000 5.667z"/><path d="M22.83 25.496a2.833 2.833 0 001.252-5.284m-1.415-7.462V9.822c0-2.34 0-3.51-.601-4.355-.6-.847-1.63-1.13-3.692-1.699l-.17-.046c-3.078-.848-4.618-1.271-5.68-.437-.068.053-.134.11-.196.169-.995.933-.995 2.68-.995 6.176"/></svg><svg viewBox="0 0 34 34" id="money-bag" xmlns="http://www.w3.org/2000/svg"><path d="M2.833 19.833c0-5.342 0-8.013 1.66-9.673C6.153 8.5 8.824 8.5 14.167 8.5h5.666c5.343 0 8.014 0 9.674 1.66 1.66 1.66 1.66 4.33 1.66 9.673s0 8.014-1.66 9.674c-1.66 1.66-4.331 1.66-9.674 1.66h-5.666c-5.343 0-8.014 0-9.674-1.66-1.66-1.66-1.66-4.331-1.66-9.674zM22.667 8.5c0-2.671 0-4.007-.83-4.837-.83-.83-2.166-.83-4.837-.83s-4.007 0-4.837.83c-.83.83-.83 2.166-.83 4.837"/><path d="M17 24.555c1.565 0 2.833-1.057 2.833-2.36 0-1.305-1.268-2.362-2.833-2.362-1.565 0-2.833-1.057-2.833-2.36 0-1.305 1.268-2.362 2.833-2.362m0 9.444c-1.565 0-2.833-1.057-2.833-2.36M17 24.554v.945m0-11.333v.944m0 0c1.565 0 2.833 1.057 2.833 2.361"/></svg><svg viewBox="0 0 29 29" id="practics" xmlns="http://www.w3.org/2000/svg"><path d="M11.856 13.582l-5.746 6.76a2.032 2.032 0 01-2.991.12 2.04 2.04 0 01.12-2.999l6.744-5.757m11.206.056l-5.777 5.79M11.8 2.352l-5.778 5.79m17.5 5.477l2.334-1.913m-2.334 5.74l2.334 1.275m-12.831 6.962h11.664m-10.235 0c.643-1.153 1.123-3.358 3.4-3.48a18.64 18.64 0 012.042 0c2.276.122 2.76 2.327 3.403 3.48M11.078 3.076L6.746 7.418s2.166 2.896 4.333 5.067c2.167 2.171 5.056 4.344 5.056 4.344l4.333-4.344s-2.166-2.894-4.333-5.067c-2.167-2.17-5.058-4.342-5.058-4.342z"/></svg><svg viewBox="0 0 28 27" id="price" xmlns="http://www.w3.org/2000/svg"><path d="M10.265 21.375c-3.16 0-4.74 0-5.875-.758a4.5 4.5 0 01-1.242-1.242C2.39 18.24 2.39 16.66 2.39 13.5s0-4.74.758-5.875A4.5 4.5 0 014.39 6.383c1.135-.758 2.715-.758 5.875-.758h6.75c3.16 0 4.74 0 5.875.758a4.5 4.5 0 011.241 1.242c.759 1.135.759 2.715.759 5.875s0 4.74-.759 5.875c-.328.491-.75.913-1.241 1.242-1.135.758-2.715.758-5.875.758h-6.75zM10.265 10.125a3.375 3.375 0 000 6.75M17.015 10.125a3.375 3.375 0 110 6.75M10.265 5.625v15.188M17.015 5.625v15.188"/></svg><svg viewBox="0 0 23 16" id="quote" xmlns="http://www.w3.org/2000/svg"><path d="M11.04 0l-3.6 15.52H0L5.52 0h5.52zm11.92 0l-3.6 15.52h-7.44L17.44 0h5.52z"/><defs><linearGradient id="opaint0_linear_1_213" x1="11.48" y1="10.52" x2="11.48" y2="0" gradientUnits="userSpaceOnUse"><stop stop-color="#5287DE"/><stop offset="1" stop-color="#5287DE"/></linearGradient></defs></svg><svg viewBox="0 0 34 34" id="settings" xmlns="http://www.w3.org/2000/svg"><circle cx="17" cy="17" r="4.25"/><path d="M19.5 3.049c-.52-.216-1.18-.216-2.5-.216s-1.98 0-2.501.216a2.834 2.834 0 00-1.533 1.533c-.132.317-.183.686-.203 1.224-.03.79-.435 1.52-1.12 1.916-.684.395-1.52.38-2.22.011-.475-.251-.82-.39-1.16-.436a2.833 2.833 0 00-2.094.562c-.447.343-.778.914-1.438 2.058-.66 1.143-.99 1.715-1.063 2.273a2.834 2.834 0 00.561 2.095c.209.272.502.5.958.787.67.42 1.1 1.137 1.1 1.928 0 .79-.43 1.507-1.1 1.928-.456.286-.75.515-.958.787a2.833 2.833 0 00-.561 2.095c.073.558.403 1.13 1.063 2.273.66 1.144.99 1.715 1.438 2.058.596.458 1.35.66 2.094.562.34-.045.685-.185 1.16-.436.7-.37 1.536-.384 2.22.01.685.396 1.09 1.127 1.12 1.918.02.537.071.906.203 1.223.287.694.839 1.245 1.533 1.533.52.216 1.18.216 2.5.216 1.321 0 1.981 0 2.502-.216a2.833 2.833 0 001.533-1.533c.132-.317.183-.686.203-1.223.03-.79.435-1.522 1.12-1.917.684-.395 1.52-.38 2.22-.011.475.251.82.39 1.16.436a2.833 2.833 0 002.094-.562c.447-.343.777-.914 1.438-2.058.66-1.143.99-1.715 1.063-2.273a2.833 2.833 0 00-.561-2.095c-.209-.272-.502-.501-.958-.787-.67-.42-1.1-1.137-1.1-1.928 0-.79.43-1.507 1.1-1.928.456-.286.75-.515.958-.787.457-.596.66-1.35.561-2.095-.073-.558-.403-1.13-1.063-2.273-.66-1.144-.99-1.715-1.438-2.058a2.833 2.833 0 00-2.094-.562c-.34.045-.685.185-1.16.436-.7.37-1.536.385-2.22-.01-.685-.396-1.09-1.127-1.12-1.918-.02-.537-.071-.906-.203-1.223a2.834 2.834 0 00-1.533-1.533z"/></svg><svg viewBox="0 0 34 34" id="shield" xmlns="http://www.w3.org/2000/svg"><path d="M4.25 14.757c0-4.53 0-6.795.535-7.557.535-.762 2.664-1.49 6.924-2.949l.811-.278c2.22-.76 3.33-1.14 4.48-1.14 1.15 0 2.26.38 4.48 1.14l.811.278c4.26 1.458 6.39 2.187 6.924 2.95.535.761.535 3.026.535 7.556v2.23c0 7.988-6.005 11.864-9.773 13.51-1.022.446-1.533.67-2.977.67s-1.955-.224-2.977-.67c-3.768-1.646-9.773-5.522-9.773-13.51v-2.23z"/></svg><svg viewBox="0 0 127 23" id="stars" xmlns="http://www.w3.org/2000/svg"><path d="M10.132 1.57a1 1 0 011.743 0l2.396 4.252a1 1 0 00.674.489l4.784.965a1 1 0 01.539 1.657l-3.304 3.594a1 1 0 00-.257.791l.56 4.849a1 1 0 01-1.41 1.024L11.42 17.16a1 1 0 00-.833 0L6.15 19.19a1 1 0 01-1.41-1.023l.56-4.849a1 1 0 00-.256-.791L1.739 8.933a1 1 0 01.539-1.657l4.784-.965a1 1 0 00.674-.49l2.396-4.252zM36.14 1.57a1 1 0 011.741 0l2.397 4.252a1 1 0 00.673.489l4.785.965a1 1 0 01.538 1.657l-3.303 3.594a1 1 0 00-.257.791l.56 4.849a1 1 0 01-1.41 1.024l-4.438-2.031a1 1 0 00-.832 0l-4.438 2.03a1 1 0 01-1.41-1.023l.56-4.849a1 1 0 00-.257-.791l-3.303-3.594a1 1 0 01.539-1.657l4.784-.965a1 1 0 00.673-.49L36.14 1.57zM62.146 1.57a1 1 0 011.742 0l2.397 4.252a1 1 0 00.673.489l4.785.965a1 1 0 01.538 1.657l-3.303 3.594a1 1 0 00-.257.791l.56 4.849a1 1 0 01-1.41 1.024l-4.438-2.031a1 1 0 00-.832 0l-4.438 2.03a1 1 0 01-1.41-1.023l.56-4.849a1 1 0 00-.257-.791l-3.303-3.594a1 1 0 01.538-1.657l4.785-.965a1 1 0 00.673-.49l2.397-4.252zM88.153 1.57a1 1 0 011.742 0l2.397 4.252a1 1 0 00.673.489l4.785.965a1 1 0 01.538 1.657l-3.303 3.594a1 1 0 00-.257.791l.56 4.849a1 1 0 01-1.41 1.024L89.44 17.16a1 1 0 00-.832 0l-4.439 2.03a1 1 0 01-1.409-1.023l.56-4.849a1 1 0 00-.257-.791L79.76 8.933a1 1 0 01.538-1.657l4.785-.965a1 1 0 00.673-.49l2.397-4.252zM114.16 1.57a1 1 0 011.742 0l2.397 4.252a.998.998 0 00.673.489l4.785.965a1 1 0 01.538 1.657l-3.303 3.594a1 1 0 00-.258.791l.561 4.849a1 1 0 01-1.41 1.024l-4.438-2.031a.999.999 0 00-.832 0l-4.439 2.03a1 1 0 01-1.409-1.023l.56-4.849a.997.997 0 00-.257-.791l-3.303-3.594a1 1 0 01.538-1.657l4.785-.965c.284-.058.53-.236.673-.49l2.397-4.252z"/></svg><svg viewBox="0 0 28 27" id="time" xmlns="http://www.w3.org/2000/svg"><circle cx="13.64" cy="14.625" r="10.125"/><path d="M13.64 10.125v4.5l2.812 2.813M4.077 5.063l4.5-2.813M23.202 5.063l-4.5-2.813"/></svg><svg viewBox="0 0 29 29" id="winner" xmlns="http://www.w3.org/2000/svg"><path d="M2.522 16.85c0-4.4 0-6.6 1.367-7.966 1.367-1.367 3.567-1.367 7.966-1.367h4.667c4.4 0 6.6 0 7.966 1.367 1.367 1.367 1.367 3.567 1.367 7.966 0 4.4 0 6.6-1.367 7.967-1.366 1.367-3.566 1.367-7.966 1.367h-4.667c-4.4 0-6.6 0-7.966-1.367-1.367-1.367-1.367-3.567-1.367-7.967z"/><path d="M25.461 10.69c-3.511 2.282-5.267 3.424-7.118 3.999a14 14 0 01-8.308 0c-1.85-.575-3.607-1.717-7.118-4M9.522 13.35v2.334M18.855 13.35v2.334M10.888 5.183a3.501 3.501 0 016.602 0"/></svg></svg>