<svg width="34" height="34" viewBox="0 0 34 34" fill="none" xmlns="http://www.w3.org/2000/svg">
<path d="M5.66663 11.3334C5.66663 7.32644 5.66663 5.32297 6.91142 4.07817C8.15622 2.83337 10.1597 2.83337 14.1666 2.83337H19.8333C23.8402 2.83337 25.8437 2.83337 27.0885 4.07817C28.3333 5.32297 28.3333 7.32644 28.3333 11.3334V22.6667C28.3333 26.6736 28.3333 28.6771 27.0885 29.9219C25.8437 31.1667 23.8402 31.1667 19.8333 31.1667H14.1666C10.1597 31.1667 8.15622 31.1667 6.91142 29.9219C5.66663 28.6771 5.66663 26.6736 5.66663 22.6667V11.3334Z" stroke="#5287DE" stroke-width="2.5"/>
<path d="M28.1885 22.6666H11.1885C9.87102 22.6666 9.21229 22.6666 8.67183 22.8114C7.20519 23.2044 6.05961 24.35 5.66663 25.8166" stroke="#5287DE" stroke-width="2.5"/>
<path d="M9.91663 22.6666V3.54163" stroke="#5287DE" stroke-width="2.5" stroke-linecap="round"/>
<path d="M18.4167 22.6666V27.6688C18.4167 28.0592 18.4167 28.2544 18.2823 28.3333C18.1479 28.4122 17.9641 28.3249 17.5966 28.1503L15.8368 27.3144C15.7124 27.2553 15.6502 27.2258 15.5833 27.2258C15.5164 27.2258 15.4543 27.2553 15.3299 27.3144L13.5701 28.1503C13.2025 28.3249 13.0188 28.4122 12.8844 28.3333C12.75 28.2544 12.75 28.0592 12.75 27.6688V23.3042" stroke="#5287DE" stroke-width="2.5" stroke-linecap="round"/>
</svg>
