<svg width="34" height="34" viewBox="0 0 34 34" fill="none" xmlns="http://www.w3.org/2000/svg">
<path d="M2.83337 19.8333C2.83337 14.4907 2.83337 11.8195 4.4931 10.1597C6.15283 8.5 8.82412 8.5 14.1667 8.5H19.8334C25.176 8.5 27.8473 8.5 29.507 10.1597C31.1667 11.8195 31.1667 14.4907 31.1667 19.8333C31.1667 25.1759 31.1667 27.8472 29.507 29.5069C27.8473 31.1667 25.176 31.1667 19.8334 31.1667H14.1667C8.82412 31.1667 6.15283 31.1667 4.4931 29.5069C2.83337 27.8472 2.83337 25.1759 2.83337 19.8333Z" stroke="#5287DE" stroke-width="2.5"/>
<path d="M30.6874 12.3529C26.4235 15.1245 24.2915 16.5103 22.044 17.2086C18.7588 18.2293 15.2413 18.2293 11.9561 17.2086C9.70853 16.5103 7.57656 15.1245 3.31262 12.3529" stroke="#5287DE" stroke-width="2.5" stroke-linecap="round"/>
<path d="M11.3334 15.5833V18.4167" stroke="#5287DE" stroke-width="2.5" stroke-linecap="round"/>
<path d="M22.6666 15.5833V18.4167" stroke="#5287DE" stroke-width="2.5" stroke-linecap="round"/>
<path d="M12.9917 5.66668C13.5751 4.01599 15.1494 2.83334 16.9999 2.83334C18.8503 2.83334 20.4246 4.01599 21.008 5.66668" stroke="#5287DE" stroke-width="2.5" stroke-linecap="round"/>
</svg>
