<svg width="34" height="34" viewBox="0 0 34 34" fill="none" xmlns="http://www.w3.org/2000/svg">
<g clip-path="url(#clip0_21_612)">
<path d="M17.9857 2.2191C17.9855 2.21925 17.9854 2.2194 17.9852 2.21955L9.96872 10.2361C9.96864 10.2362 9.96856 10.2362 9.96847 10.2363C9.72092 10.4834 9.52451 10.7769 9.39048 11.1C9.25641 11.4232 9.18741 11.7697 9.18741 12.1196C9.18741 12.4695 9.25642 12.816 9.39048 13.1392C9.52451 13.4623 9.72092 13.7558 9.96848 14.0029C9.96856 14.003 9.96864 14.0031 9.96873 14.0032L10.9727 15.0072C10.9729 15.0073 10.9731 15.0075 10.9733 15.0077C11.2203 15.2551 11.5137 15.4514 11.8367 15.5854C12.1599 15.7195 12.5064 15.7885 12.8563 15.7885C13.2062 15.7885 13.5527 15.7195 13.8759 15.5854C14.1973 15.4521 14.4895 15.257 14.7358 15.0112L14.8626 14.8862L15.0968 15.1238L2.37449 27.8461C1.33383 28.8868 1.33383 30.5849 2.37449 31.6256C2.62147 31.8728 2.91474 32.069 3.23754 32.2029C3.56075 32.337 3.90722 32.406 4.25712 32.406C4.60702 32.406 4.95349 32.337 5.2767 32.2029C5.59966 32.0689 5.89306 31.8726 6.14012 31.6252C6.1403 31.625 6.14048 31.6249 6.14066 31.6247L18.87 18.8953L19.106 19.1313L18.9936 19.2453C18.7444 19.4903 18.5461 19.7821 18.41 20.1041C18.2719 20.4308 18.2008 20.782 18.2008 21.1367C18.2008 21.4914 18.2719 21.8426 18.41 22.1693C18.5467 22.4928 18.7463 22.7859 18.9972 23.0316L19.9837 24.0181C21.0243 25.0587 22.7224 25.0587 23.7631 24.0181L31.7673 16.0139C32.8067 14.9745 32.8079 13.2791 31.7709 12.2382L30.7818 11.2349L30.7819 11.2349L30.7756 11.2286C29.7349 10.188 28.0368 10.188 26.9962 11.2286L26.8742 11.3506L26.4241 10.9005C26.7035 9.98499 26.4823 8.94704 25.7606 8.22531C25.5136 7.97807 25.2203 7.78189 24.8975 7.64798C24.5743 7.51391 24.2279 7.4449 23.878 7.4449C23.6148 7.4449 23.3536 7.48393 23.1028 7.56032L22.6448 7.09917L22.7445 7.00228L22.7509 6.99606L22.7573 6.98975C23.7979 5.94909 23.7979 4.26513 22.7573 3.22448L21.8734 4.10836L22.7573 3.22448L21.7523 2.21955C21.7521 2.21928 21.7518 2.21901 21.7515 2.21874C21.7515 2.21871 21.7514 2.21868 21.7514 2.21864C21.5044 1.9714 21.2112 1.77522 20.8884 1.64131C20.5652 1.50724 20.2187 1.43823 19.8688 1.43823C19.5189 1.43823 19.1724 1.50724 18.8492 1.64131C18.5262 1.7753 18.2328 1.97164 17.9857 2.2191ZM31.1667 32.4167H32.4167V31.1667V29.75C32.4167 28.6671 31.9865 27.6285 31.2207 26.8627C30.455 26.0969 29.4163 25.6667 28.3334 25.6667H19.8334C18.7504 25.6667 17.7118 26.0969 16.946 26.8627C16.1802 27.6285 15.75 28.6671 15.75 29.75V31.1667V32.4167H17H31.1667Z" stroke="#5287DE" stroke-width="2.5"/>
</g>
<defs>
<clipPath id="clip0_21_612">
<rect width="34" height="34" fill="white"/>
</clipPath>
</defs>
</svg>
