<svg width="34" height="34" viewBox="0 0 34 34" fill="none" xmlns="http://www.w3.org/2000/svg">
<circle cx="17" cy="17" r="14.1667" stroke="#5287DE" stroke-width="2.5"/>
<path d="M8.5 6.67321C9.60535 7.67978 11.8824 10.4311 12.1476 13.3837C12.3956 16.1436 14.2173 18.3862 17 18.4166C18.0694 18.4283 19.151 17.6557 19.1482 16.5862C19.1474 16.2555 19.0928 15.9174 19.0074 15.6063C18.8886 15.1736 18.878 14.6758 19.125 14.1666C19.989 12.3852 21.6883 11.9067 23.0348 10.9393C23.632 10.5102 24.1768 10.0575 24.417 9.69294C25.0802 8.68636 25.7434 6.67321 25.4118 5.66663" stroke="#5287DE" stroke-width="2.5"/>
<path d="M31.1666 18.4166C30.7 19.7356 30.3698 23.1979 25.1008 23.2528C25.1008 23.2528 20.4348 23.2528 19.035 25.8908C17.9151 28.0011 18.5683 30.2873 19.035 31.1666" stroke="#5287DE" stroke-width="2.5"/>
</svg>
