<svg width="29" height="29" viewBox="0 0 29 29" fill="none" xmlns="http://www.w3.org/2000/svg">
<path d="M3.28317 17.1834V11.427M21.5765 13.8409L16.8527 16.9535C16.0905 17.4558 15.1977 17.7235 14.2848 17.7235C13.372 17.7235 12.4792 17.4558 11.717 16.9535L6.99317 13.842V19.7477C6.99317 20.3252 7.132 20.8992 7.5065 21.339C8.378 22.3622 10.4395 24.1274 14.2848 24.1274C18.1302 24.1274 20.1917 22.3622 21.0632 21.339C21.4365 20.8992 21.5765 20.3252 21.5765 19.7477V13.842L24.4698 11.9357C24.6633 11.8082 24.8222 11.6346 24.9321 11.4306C25.042 11.2266 25.0995 10.9984 25.0995 10.7667C25.0995 10.535 25.042 10.3068 24.9321 10.1028C24.8222 9.89877 24.6633 9.72522 24.4698 9.5977L16.8515 4.5787C16.0894 4.07666 15.1968 3.80908 14.2843 3.80908C13.3717 3.80908 12.4791 4.07666 11.717 4.5787L3.80467 9.79253C3.63923 9.9001 3.50412 10.0483 3.41222 10.2229C3.32031 10.3975 3.27468 10.5939 3.27967 10.7912M6.99317 13.8409L3.80467 11.742C3.6459 11.6387 3.51498 11.498 3.42343 11.3322C3.33187 11.1664 3.2825 10.9806 3.27967 10.7912M3.27967 10.7912V11.4282" stroke="#8F95AA" stroke-width="1.5" stroke-linecap="round" stroke-linejoin="round"/>
</svg>
