<svg width="29" height="29" viewBox="0 0 29 29" fill="none" xmlns="http://www.w3.org/2000/svg">
<path d="M14.1891 2.93359C15.5612 2.93317 16.8973 3.3726 18.0013 4.18738C19.1053 5.00215 19.9191 6.14937 20.3232 7.46064C20.7272 8.77191 20.7003 10.1782 20.2464 11.473C19.7925 12.7679 18.9355 13.8831 17.8011 14.6551C19.77 15.3773 21.4778 16.6722 22.7045 18.3732C23.9312 20.0742 24.6208 22.1034 24.6844 24.1996C24.6904 24.3159 24.673 24.4323 24.6334 24.5419C24.5938 24.6514 24.5327 24.752 24.4537 24.8376C24.3746 24.9232 24.2793 24.9922 24.1733 25.0405C24.0673 25.0888 23.9527 25.1155 23.8362 25.1189C23.7198 25.1223 23.6038 25.1024 23.4951 25.0604C23.3865 25.0184 23.2873 24.9552 23.2034 24.8743C23.1195 24.7935 23.0526 24.6967 23.0066 24.5896C22.9606 24.4826 22.9365 24.3674 22.9356 24.2509C22.8661 21.9776 21.9142 19.8207 20.2816 18.2372C18.649 16.6538 16.464 15.7682 14.1897 15.7682C11.9153 15.7682 9.73031 16.6538 8.09772 18.2372C6.46512 19.8207 5.51323 21.9776 5.44375 24.2509C5.43679 24.483 5.33793 24.7028 5.16891 24.862C4.99989 25.0211 4.77457 25.1066 4.5425 25.0997C4.31044 25.0927 4.09065 24.9939 3.93147 24.8248C3.7723 24.6558 3.68679 24.4305 3.69375 24.1984C3.75763 22.1024 4.4473 20.0734 5.67401 18.3727C6.90072 16.6719 8.60833 15.3772 10.5771 14.6551C9.44272 13.8831 8.58568 12.7679 8.13176 11.473C7.67783 10.1782 7.65093 8.77191 8.055 7.46064C8.45907 6.14937 9.27283 5.00215 10.3768 4.18738C11.4809 3.3726 12.817 2.93317 14.1891 2.93359ZM9.52242 9.35026C9.52242 10.5879 10.0141 11.7749 10.8893 12.6501C11.7644 13.5253 12.9514 14.0169 14.1891 14.0169C15.4268 14.0169 16.6137 13.5253 17.4889 12.6501C18.3641 11.7749 18.8558 10.5879 18.8558 9.35026C18.8558 8.11258 18.3641 6.9256 17.4889 6.05043C16.6137 5.17526 15.4268 4.68359 14.1891 4.68359C12.9514 4.68359 11.7644 5.17526 10.8893 6.05043C10.0141 6.9256 9.52242 8.11258 9.52242 9.35026Z" fill="#8F95AA"/>
</svg>
