<svg width="28" height="28" viewBox="0 0 28 28" fill="none" xmlns="http://www.w3.org/2000/svg">
<path d="M2.33337 16.3333C2.33337 11.9336 2.33337 9.73367 3.70021 8.36684C5.06704 7 7.26693 7 11.6667 7H16.3334C20.7332 7 22.933 7 24.2999 8.36684C25.6667 9.73367 25.6667 11.9336 25.6667 16.3333C25.6667 20.7331 25.6667 22.933 24.2999 24.2998C22.933 25.6667 20.7332 25.6667 16.3334 25.6667H11.6667C7.26693 25.6667 5.06704 25.6667 3.70021 24.2998C2.33337 22.933 2.33337 20.7331 2.33337 16.3333Z" stroke="#8F95AA" stroke-width="1.83824"/>
<path d="M25.2721 10.1731C21.7606 12.4556 20.0049 13.5968 18.154 14.1719C15.4485 15.0124 12.5517 15.0124 9.84628 14.1719C7.99536 13.5968 6.23963 12.4556 2.72815 10.1731" stroke="#8F95AA" stroke-width="1.83824" stroke-linecap="round"/>
<path d="M9.33337 12.8335V15.1668" stroke="#8F95AA" stroke-width="1.83824" stroke-linecap="round"/>
<path d="M18.6667 12.8335V15.1668" stroke="#8F95AA" stroke-width="1.83824" stroke-linecap="round"/>
<path d="M10.6991 4.66659C11.1796 3.30719 12.476 2.33325 13.9999 2.33325C15.5239 2.33325 16.8203 3.30719 17.3008 4.66659" stroke="#8F95AA" stroke-width="1.83824" stroke-linecap="round"/>
</svg>
