<svg width="27" height="27" viewBox="0 0 27 27" fill="none" xmlns="http://www.w3.org/2000/svg">
<path d="M24.75 13.5H2.25" stroke="#575D74" stroke-width="1.375" stroke-linecap="round"/>
<path d="M13.5 2.25V24.75" stroke="#575D74" stroke-width="1.375" stroke-linecap="round"/>
<path d="M14.625 13.5C14.625 15.9853 16.6397 18 19.125 18" stroke="#575D74" stroke-width="1.375" stroke-linecap="round"/>
<path d="M12.375 13.5C12.375 15.9853 10.3603 18 7.875 18" stroke="#575D74" stroke-width="1.375" stroke-linecap="round"/>
<path d="M13.5 11.2895C13.5 9.61336 14.6407 8.15233 16.2668 7.74581C18.071 7.29476 19.7053 8.929 19.2542 10.7332C18.8477 12.3593 17.3867 13.5 15.7105 13.5H13.5V11.2895Z" stroke="#575D74" stroke-width="1.375"/>
<path d="M13.5 11.2895C13.5 9.61336 12.3593 8.15233 10.7332 7.74581C8.92904 7.29476 7.29479 8.929 7.74584 10.7332C8.15236 12.3593 9.61339 13.5 11.2895 13.5H13.5V11.2895Z" stroke="#575D74" stroke-width="1.375"/>
<path d="M2.25 13.5C2.25 8.1967 2.25 5.54505 3.89752 3.89752C5.54505 2.25 8.1967 2.25 13.5 2.25C18.8033 2.25 21.4549 2.25 23.1025 3.89752C24.75 5.54505 24.75 8.1967 24.75 13.5C24.75 18.8033 24.75 21.4549 23.1025 23.1025C21.4549 24.75 18.8033 24.75 13.5 24.75C8.1967 24.75 5.54505 24.75 3.89752 23.1025C2.25 21.4549 2.25 18.8033 2.25 13.5Z" stroke="#575D74" stroke-width="1.375"/>
</svg>
