<svg width="17" height="17" viewBox="0 0 17 17" fill="none" xmlns="http://www.w3.org/2000/svg">
<path d="M15.2584 8.64554H2.07251" stroke="#DE5252" stroke-width="0.988943" stroke-linecap="round"/>
<path d="M8.66553 2.05258V15.2385" stroke="#DE5252" stroke-width="0.988943" stroke-linecap="round"/>
<path d="M9.32471 8.64554C9.32471 10.102 10.5054 11.2827 11.9619 11.2827" stroke="#DE5252" stroke-width="0.988943" stroke-linecap="round"/>
<path d="M8.00608 8.64554C8.00608 10.102 6.82537 11.2827 5.3689 11.2827" stroke="#DE5252" stroke-width="0.988943" stroke-linecap="round"/>
<path d="M8.66553 7.35006C8.66553 6.36779 9.33404 5.51157 10.287 5.27333C11.3443 5.009 12.3021 5.96673 12.0377 7.02406C11.7995 7.97701 10.9433 8.64553 9.96099 8.64553H8.66553V7.35006Z" stroke="#DE5252" stroke-width="0.988943"/>
<path d="M8.66539 7.35006C8.66539 6.36779 7.99688 5.51157 7.04393 5.27333C5.9866 5.009 5.02887 5.96673 5.2932 7.02406C5.53143 7.97701 6.38766 8.64553 7.36993 8.64553H8.66539V7.35006Z" stroke="#DE5252" stroke-width="0.988943"/>
<path d="M2.07251 8.64554C2.07251 5.53759 2.07251 3.98361 3.03803 3.0181C4.00354 2.05258 5.55752 2.05258 8.66546 2.05258C11.7734 2.05258 13.3274 2.05258 14.2929 3.0181C15.2584 3.98361 15.2584 5.53759 15.2584 8.64554C15.2584 11.7535 15.2584 13.3075 14.2929 14.273C13.3274 15.2385 11.7734 15.2385 8.66546 15.2385C5.55752 15.2385 4.00354 15.2385 3.03803 14.273C2.07251 13.3075 2.07251 11.7535 2.07251 8.64554Z" stroke="#DE5252" stroke-width="0.988943"/>
</svg>
