<svg width="34" height="34" viewBox="0 0 34 34" fill="none" xmlns="http://www.w3.org/2000/svg">
<path d="M2.83337 20.0699C2.83337 24.6344 6.63854 28.3333 11.3334 28.3333C16.0282 28.3333 19.8334 24.6344 19.8334 20.0699C19.8334 17.2649 18.3969 14.7872 16.1996 13.294C15.7619 12.9965 15.5834 12.7472 15.5834 12.2003C15.5834 11.0628 15.5834 10.4947 15.395 10.0442C14.7546 8.51417 13.2317 8.5 11.7782 8.5H10.8885C9.43504 8.5 7.91354 8.51417 7.27179 10.0442C7.08337 10.4947 7.08337 11.0642 7.08337 12.2003C7.08337 12.7217 6.91904 12.9866 6.46712 13.294C4.26987 14.7872 2.83337 17.2649 2.83337 20.0699Z" stroke="#5287DE" stroke-width="2.5" stroke-linecap="round" stroke-linejoin="round"/>
<path d="M20.5559 11.4268C21.0857 11.3361 21.6595 11.3333 22.2233 11.3333H23.113C24.5665 11.3333 26.088 11.3475 26.7297 12.8775C26.9181 13.3266 26.9181 13.8961 26.9181 15.0336C26.9181 15.5805 27.0966 15.8284 27.5344 16.1273C29.7302 17.6205 31.1681 20.0982 31.1681 22.9032C31.1667 27.4663 27.363 31.1666 22.6667 31.1666C21.3088 31.1698 19.9693 30.8528 18.7567 30.2416" stroke="#5287DE" stroke-width="2.5" stroke-linecap="round" stroke-linejoin="round"/>
<path d="M11.3333 22.6667C12.8981 22.6667 14.1667 21.3981 14.1667 19.8333C14.1667 18.2685 12.8981 17 11.3333 17C9.76853 17 8.5 18.2685 8.5 19.8333C8.5 21.3981 9.76853 22.6667 11.3333 22.6667Z" stroke="#5287DE" stroke-width="2.5" stroke-linecap="round" stroke-linejoin="round"/>
<path d="M22.8296 25.4957C23.4388 25.461 24.0205 25.2305 24.4882 24.8385C24.9558 24.4466 25.2845 23.9142 25.4252 23.3204C25.5659 22.7267 25.5112 22.1034 25.2692 21.5432C25.0271 20.9831 24.6108 20.516 24.082 20.2116M22.6667 12.75V9.82175C22.6667 7.48283 22.6667 6.31266 22.066 5.46691C21.4668 4.61975 20.4369 4.33641 18.3742 3.76833L18.2042 3.72158C15.1258 2.87441 13.5859 2.45083 12.5234 3.28525C12.4557 3.33844 12.3904 3.3947 12.3279 3.45383C11.3334 4.38741 11.3334 6.13416 11.3334 9.6305" stroke="#5287DE" stroke-width="2.5" stroke-linecap="round" stroke-linejoin="round"/>
</svg>
