<svg width="34" height="34" viewBox="0 0 34 34" fill="none" xmlns="http://www.w3.org/2000/svg">
<path d="M2.83337 19.8333C2.83337 14.4907 2.83337 11.8195 4.4931 10.1597C6.15283 8.5 8.82412 8.5 14.1667 8.5H19.8334C25.176 8.5 27.8472 8.5 29.507 10.1597C31.1667 11.8195 31.1667 14.4907 31.1667 19.8333C31.1667 25.1759 31.1667 27.8472 29.507 29.5069C27.8472 31.1667 25.176 31.1667 19.8334 31.1667H14.1667C8.82412 31.1667 6.15283 31.1667 4.4931 29.5069C2.83337 27.8472 2.83337 25.1759 2.83337 19.8333Z" stroke="#5287DE" stroke-width="2.5"/>
<path d="M22.6667 8.50004C22.6667 5.82875 22.6667 4.4931 21.8368 3.66324C21.007 2.83337 19.6713 2.83337 17 2.83337C14.3287 2.83337 12.9931 2.83337 12.1632 3.66324C11.3334 4.4931 11.3334 5.82875 11.3334 8.50004" stroke="#5287DE" stroke-width="2.5"/>
<path d="M17 24.5555C18.5648 24.5555 19.8333 23.4984 19.8333 22.1944C19.8333 20.8904 18.5648 19.8333 17 19.8333C15.4352 19.8333 14.1666 18.7762 14.1666 17.4722C14.1666 16.1682 15.4352 15.1111 17 15.1111M17 24.5555C15.4352 24.5555 14.1666 23.4984 14.1666 22.1944M17 24.5555V25.5M17 14.1666V15.1111M17 15.1111C18.5648 15.1111 19.8333 16.1682 19.8333 17.4722" stroke="#5287DE" stroke-width="2.5" stroke-linecap="round"/>
</svg>
