<svg width="29" height="29" viewBox="0 0 29 29" fill="none" xmlns="http://www.w3.org/2000/svg">
<path d="M11.8557 13.5819L6.10987 20.3427C5.92779 20.5573 5.70317 20.7317 5.45022 20.8549C5.19727 20.9782 4.92149 21.0476 4.64032 21.0588C4.35916 21.07 4.07874 21.0227 3.81679 20.9199C3.55485 20.8171 3.31708 20.6611 3.11854 20.4617C2.9192 20.2624 2.7633 20.024 2.66066 19.7614C2.55802 19.4989 2.51086 19.2179 2.52215 18.9363C2.53343 18.6546 2.60293 18.3783 2.72625 18.1248C2.84958 17.8713 3.02406 17.6461 3.23871 17.4634L9.98321 11.7059M21.189 11.7619L15.4117 17.5521M11.7997 2.35156L6.02237 8.1429M23.5224 13.6192L25.8557 11.7059M23.5224 17.4459L25.8557 18.7211M13.0247 25.6826H24.689M14.4539 25.6826C15.0967 24.5299 15.5774 22.3249 17.8547 22.2024C18.5314 22.1651 19.2197 22.1651 19.8964 22.2024C22.1725 22.3249 22.6555 24.5299 23.2995 25.6826M11.0775 3.07606L6.74571 7.4184C6.74571 7.4184 8.9122 10.3141 11.0787 12.4852C13.2464 14.6564 16.135 16.8287 16.135 16.8287L20.468 12.4852C20.468 12.4852 18.3015 9.59073 16.135 7.4184C13.9685 5.2484 11.0775 3.07606 11.0775 3.07606Z" stroke="#8F95AA" stroke-width="1.5" stroke-linecap="round" stroke-linejoin="round"/>
</svg>
