<svg width="28" height="27" viewBox="0 0 28 27" fill="none" xmlns="http://www.w3.org/2000/svg">
<path d="M10.2646 21.375C7.10461 21.375 5.52459 21.375 4.38958 20.6166C3.89823 20.2883 3.47635 19.8664 3.14804 19.3751C2.38965 18.2401 2.38965 16.66 2.38965 13.5C2.38965 10.34 2.38965 8.75994 3.14803 7.62493C3.47635 7.13358 3.89823 6.7117 4.38958 6.38339C5.52459 5.625 7.10461 5.625 10.2646 5.625L17.0146 5.625C20.1747 5.625 21.7547 5.625 22.8897 6.38339C23.3811 6.7117 23.8029 7.13358 24.1313 7.62493C24.8896 8.75994 24.8896 10.34 24.8896 13.5C24.8896 16.66 24.8896 18.2401 24.1313 19.3751C23.8029 19.8664 23.3811 20.2883 22.8897 20.6166C21.7547 21.375 20.1747 21.375 17.0146 21.375H10.2646Z" stroke="#575D74" stroke-width="1.5"/>
<path d="M10.2646 10.125C8.40069 10.125 6.88965 11.636 6.88965 13.5C6.88965 15.364 8.40069 16.875 10.2646 16.875" stroke="#575D74" stroke-width="1.5"/>
<path d="M17.0146 10.125C18.8786 10.125 20.3896 11.636 20.3896 13.5C20.3896 15.364 18.8786 16.875 17.0146 16.875" stroke="#575D74" stroke-width="1.5"/>
<path d="M10.2646 5.625V20.8125" stroke="#575D74" stroke-width="1.5" stroke-linecap="round"/>
<path d="M17.0146 5.625V20.8125" stroke="#575D74" stroke-width="1.5" stroke-linecap="round"/>
</svg>
