<svg width="34" height="34" viewBox="0 0 34 34" fill="none" xmlns="http://www.w3.org/2000/svg">
<path d="M4.25 14.7569C4.25 10.227 4.25 7.96204 4.78481 7.20006C5.31963 6.43808 7.44929 5.70909 11.7086 4.2511L12.5201 3.97333C14.7404 3.21332 15.8505 2.83331 17 2.83331C18.1495 2.83331 19.2596 3.21332 21.4799 3.97333L22.2914 4.2511C26.5507 5.70909 28.6804 6.43808 29.2152 7.20006C29.75 7.96204 29.75 10.227 29.75 14.7569C29.75 15.4411 29.75 16.1832 29.75 16.9877C29.75 24.975 23.7448 28.8511 19.977 30.497C18.955 30.9434 18.444 31.1666 17 31.1666C15.556 31.1666 15.045 30.9434 14.023 30.4969C10.2552 28.8511 4.25 24.975 4.25 16.9877C4.25 16.1832 4.25 15.4411 4.25 14.7569Z" stroke="#5287DE" stroke-width="2.5"/>
</svg>
