<svg width="127" height="23" viewBox="0 0 127 23" fill="none" xmlns="http://www.w3.org/2000/svg">
<path d="M10.1323 1.5695C10.5148 0.890856 11.4921 0.890856 11.8746 1.5695L14.2712 5.82158C14.4139 6.07476 14.6597 6.25333 14.9446 6.31081L19.7292 7.2762C20.4928 7.43027 20.7948 8.35972 20.2676 8.93322L16.9642 12.5265C16.7675 12.7405 16.6736 13.0294 16.707 13.3181L17.2674 18.1668C17.3568 18.9407 16.5662 19.5151 15.8578 19.1909L11.4196 17.1597C11.1553 17.0387 10.8515 17.0387 10.5873 17.1597L6.14901 19.1909C5.44066 19.5151 4.65002 18.9407 4.73946 18.1668L5.29984 13.3181C5.33321 13.0294 5.23933 12.7405 5.04264 12.5265L1.73927 8.93322C1.21205 8.35972 1.51404 7.43027 2.27767 7.2762L7.06225 6.31081C7.34713 6.25333 7.59292 6.07476 7.73562 5.82158L10.1323 1.5695Z" fill="#FFB61D"/>
<path d="M36.1391 1.5695C36.5216 0.890856 37.4989 0.890856 37.8814 1.5695L40.2781 5.82158C40.4208 6.07476 40.6665 6.25333 40.9514 6.31081L45.736 7.2762C46.4996 7.43027 46.8016 8.35972 46.2744 8.93322L42.971 12.5265C42.7743 12.7405 42.6805 13.0294 42.7138 13.3181L43.2742 18.1668C43.3636 18.9407 42.573 19.5151 41.8647 19.1909L37.4264 17.1597C37.1622 17.0387 36.8584 17.0387 36.5941 17.1597L32.1558 19.1909C31.4475 19.5151 30.6569 18.9407 30.7463 18.1668L31.3067 13.3181C31.34 13.0294 31.2462 12.7405 31.0495 12.5265L27.7461 8.93322C27.2189 8.35972 27.5209 7.43027 28.2845 7.2762L33.0691 6.31081C33.354 6.25333 33.5998 6.07476 33.7425 5.82158L36.1391 1.5695Z" fill="#FFB61D"/>
<path d="M62.1459 1.5695C62.5285 0.890856 63.5057 0.890856 63.8882 1.5695L66.2849 5.82158C66.4276 6.07476 66.6734 6.25333 66.9583 6.31081L71.7428 7.2762C72.5065 7.43027 72.8085 8.35972 72.2812 8.93322L68.9779 12.5265C68.7812 12.7405 68.6873 13.0294 68.7207 13.3181L69.281 18.1668C69.3705 18.9407 68.5799 19.5151 67.8715 19.1909L63.4333 17.1597C63.169 17.0387 62.8652 17.0387 62.6009 17.1597L58.1627 19.1909C57.4543 19.5151 56.6637 18.9407 56.7531 18.1668L57.3135 13.3181C57.3469 13.0294 57.253 12.7405 57.0563 12.5265L53.7529 8.93322C53.2257 8.35972 53.5277 7.43027 54.2913 7.2762L59.0759 6.31081C59.3608 6.25333 59.6066 6.07476 59.7493 5.82158L62.1459 1.5695Z" fill="#FFB61D"/>
<path d="M88.1528 1.5695C88.5353 0.890856 89.5126 0.890856 89.8951 1.5695L92.2917 5.82158C92.4344 6.07476 92.6802 6.25333 92.9651 6.31081L97.7497 7.2762C98.5133 7.43027 98.8153 8.35972 98.2881 8.93322L94.9847 12.5265C94.788 12.7405 94.6941 13.0294 94.7275 13.3181L95.2879 18.1668C95.3773 18.9407 94.5867 19.5151 93.8783 19.1909L89.4401 17.1597C89.1758 17.0387 88.872 17.0387 88.6078 17.1597L84.1695 19.1909C83.4612 19.5151 82.6705 18.9407 82.76 18.1668L83.3203 13.3181C83.3537 13.0294 83.2598 12.7405 83.0631 12.5265L79.7598 8.93322C79.2326 8.35972 79.5346 7.43027 80.2982 7.2762L85.0828 6.31081C85.3676 6.25333 85.6134 6.07476 85.7561 5.82158L88.1528 1.5695Z" fill="#FFB61D"/>
<path d="M114.16 1.5695C114.542 0.890856 115.519 0.890856 115.902 1.5695L118.299 5.82158C118.441 6.07476 118.687 6.25333 118.972 6.31081L123.757 7.2762C124.52 7.43027 124.822 8.35972 124.295 8.93322L120.992 12.5265C120.795 12.7405 120.701 13.0294 120.734 13.3181L121.295 18.1668C121.384 18.9407 120.594 19.5151 119.885 19.1909L115.447 17.1597C115.183 17.0387 114.879 17.0387 114.615 17.1597L110.176 19.1909C109.468 19.5151 108.677 18.9407 108.767 18.1668L109.327 13.3181C109.361 13.0294 109.267 12.7405 109.07 12.5265L105.767 8.93322C105.239 8.35972 105.541 7.43027 106.305 7.2762L111.09 6.31081C111.374 6.25333 111.62 6.07476 111.763 5.82158L114.16 1.5695Z" fill="#FFB61D"/>
</svg>
