<svg width="29" height="29" viewBox="0 0 29 29" fill="none" xmlns="http://www.w3.org/2000/svg">
<path d="M2.52197 16.8504C2.52197 12.4506 2.52197 10.2508 3.88881 8.88393C5.25564 7.51709 7.45553 7.51709 11.8553 7.51709H16.522C20.9217 7.51709 23.1216 7.51709 24.4885 8.88393C25.8553 10.2508 25.8553 12.4506 25.8553 16.8504C25.8553 21.2502 25.8553 23.4501 24.4885 24.8169C23.1216 26.1838 20.9217 26.1838 16.522 26.1838H11.8553C7.45553 26.1838 5.25564 26.1838 3.88881 24.8169C2.52197 23.4501 2.52197 21.2502 2.52197 16.8504Z" stroke="#8F95AA" stroke-width="1.5"/>
<path d="M25.461 10.6899C21.9495 12.9724 20.1937 14.1136 18.3428 14.6887C15.6374 15.5293 12.7406 15.5293 10.0351 14.6887C8.18421 14.1136 6.42847 12.9724 2.91699 10.6899" stroke="#8F95AA" stroke-width="1.5" stroke-linecap="round"/>
<path d="M9.52246 13.3506V15.6839" stroke="#8F95AA" stroke-width="1.83824" stroke-linecap="round"/>
<path d="M18.8555 13.3506V15.6839" stroke="#8F95AA" stroke-width="1.83824" stroke-linecap="round"/>
<path d="M10.8882 5.18343C11.3687 3.82404 12.6651 2.8501 14.189 2.8501C15.7129 2.8501 17.0094 3.82404 17.4899 5.18343" stroke="#8F95AA" stroke-width="1.5" stroke-linecap="round"/>
</svg>
